<?xml version="1.0"?>
<svg xmlns="http://www.w3.org/2000/svg" xmlns:xlink="http://www.w3.org/1999/xlink" xmlns:svgjs="http://svgjs.com/svgjs" version="1.1" width="512" height="512" x="0" y="0" viewBox="0 0 24 24" style="enable-background:new 0 0 512 512" xml:space="preserve" class=""><g transform="matrix(1,4.898587196589413e-16,-4.898587196589413e-16,1,1.0658141036401503e-14,0)"><path xmlns="http://www.w3.org/2000/svg" d="m12 24c-6.617 0-12-5.383-12-12s5.383-12 12-12 12 5.383 12 12-5.383 12-12 12z" fill="#f3ee21" data-original="#2196f3" style="" class=""/><path xmlns="http://www.w3.org/2000/svg" d="m12 0c-6.617 0-12 5.383-12 12s5.383 12 12 12z" fill="#dbe003" data-original="#1d83d4" style="" class=""/><path xmlns="http://www.w3.org/2000/svg" d="m20.25 11.25h-7.5v-7.5c0-.414-.336-.75-.75-.75-4.963 0-9 4.037-9 9s4.037 9 9 9 9-4.037 9-9c0-.414-.336-.75-.75-.75z" fill="#fafafa" data-original="#fafafa" style="" class=""/><path xmlns="http://www.w3.org/2000/svg" d="m12.75 11.235-7.118 7.118c1.63 1.635 3.883 2.647 6.368 2.647 4.963 0 9-4.037 9-9 0-.414-.336-.75-.75-.75h-7.5z" fill="#f5f5f5" data-original="#dadada" style="" class=""/></g></svg>
