<?xml version="1.0"?>
<svg xmlns="http://www.w3.org/2000/svg" xmlns:xlink="http://www.w3.org/1999/xlink" xmlns:svgjs="http://svgjs.com/svgjs" version="1.1" width="512" height="512" x="0" y="0" viewBox="0 0 24 24" style="enable-background:new 0 0 512 512" xml:space="preserve" class=""><g><path xmlns="http://www.w3.org/2000/svg" d="m12 24c-6.617 0-12-5.383-12-12s5.383-12 12-12 12 5.383 12 12-5.383 12-12 12z" fill="#f36e21" data-original="#2196f3" style="" class=""/><path xmlns="http://www.w3.org/2000/svg" d="m12 0c-6.617 0-12 5.383-12 12s5.383 12 12 12z" fill="#f39839" data-original="#1d83d4" style="" class=""/><path xmlns="http://www.w3.org/2000/svg" d="m12 3c-4.962 0-9 4.037-9 9s4.038 9 9 9c.414 0 .75-.336.75-.75v-16.5c0-.414-.336-.75-.75-.75z" fill="#fafafa" data-original="#fafafa" style="" class=""/><path xmlns="http://www.w3.org/2000/svg" d="m12.75 12h-9.75c0 4.963 4.038 9 9 9 .414 0 .75-.336.75-.75z" fill="#dadada" data-original="#dadada" style=""/></g></svg>
