<svg enable-background="new 0 0 24 24" height="512" viewBox="0 0 24 24" width="512" xmlns="http://www.w3.org/2000/svg"><path d="m12 24c-6.617 0-12-5.383-12-12s5.383-12 12-12 12 5.383 12 12-5.383 12-12 12z" fill="#2196f3"/><path d="m12 0c-6.617 0-12 5.383-12 12s5.383 12 12 12z" fill="#1d83d4"/><path d="m12 3c-4.962 0-9 4.037-9 9 0 .414.336.75.75.75h8.25c.414 0 .75-.336.75-.75v-8.25c0-.414-.336-.75-.75-.75z" fill="#fafafa"/><path d="m5.624 5.654c-1.621 1.629-2.624 3.872-2.624 6.346 0 .414.336.75.75.75h8.25c.199 0 .381-.078.515-.205z" fill="#dadada"/></svg>