<svg height="512pt" viewBox="0 0 512 512" width="512pt" xmlns="http://www.w3.org/2000/svg"><path d="m512 256c0 25.558594-3.742188 50.238281-10.71875 73.53125-5.695312 19.027344-13.542969 37.113281-23.25 54-4.421875 7.65625-9.21875 15.066406-14.367188 22.203125-4.902343 6.792969-10.136718 13.34375-15.675781 19.613281-.449219.511719-.90625 1.023438-1.367187 1.535156-4.566406 5.089844-9.339844 10-14.304688 14.710938-4.785156 4.566406-9.757812 8.925781-14.890625 13.105469-.773437.636719-1.566406 1.261719-2.351562 1.890625-3.207031 2.546875-6.488281 5.023437-9.820313 7.40625-1.933594 1.402344-3.886718 2.761718-5.851562 4.097656-2.078125 1.410156-4.191406 2.800781-6.3125 4.136719-3.582032 2.289062-7.21875 4.472656-10.929688 6.5625-.8125.460937-1.628906.917969-2.445312 1.367187-3.992188 2.21875-8.042969 4.328125-12.160156 6.3125-4.390626 2.132813-8.851563 4.148438-13.386719 6.019532-3.175781 1.328124-6.382813 2.582031-9.625 3.773437-5.652344 2.097656-11.398438 3.980469-17.238281 5.671875-.773438.230469-1.558594.449219-2.332032.648438-4.410156 1.253906-8.871094 2.359374-13.382812 3.355468-17.898438 3.96875-36.5 6.058594-55.589844 6.058594-.523438 0-1.042969 0-1.566406-.011719-.261719.011719-.523438 0-.785156 0-6.277344-.050781-12.515626-.332031-18.683594-.84375-2.140625-.167969-4.273438-.367187-6.394532-.597656-7.710937-.824219-15.316406-1.984375-22.796874-3.480469-4.914063-.96875-9.78125-2.089844-14.597657-3.351562-.074219-.011719-.148437-.03125-.21875-.054688-6.375-1.660156-12.644531-3.570312-18.808593-5.714844-3.429688-1.179687-6.8125-2.433593-10.167969-3.761718-4.523438-1.785156-8.988281-3.699219-13.386719-5.734375-4.117188-1.914063-8.167969-3.917969-12.160156-6.039063-.636719-.335937-1.277344-.671875-1.902344-1.015625-3.886719-2.089843-7.710938-4.285156-11.464844-6.570312-1.941406-1.191407-3.863281-2.394531-5.777344-3.628907-5.371093-3.457031-10.59375-7.125-15.671874-10.96875-5.957032-4.503906-11.703126-9.269531-17.230469-14.273437-6.480469-5.851563-12.65625-12.039063-18.496094-18.515625-11.890625-13.175781-22.433594-27.597656-31.410156-43.039062-9.945313-17.128907-17.972657-35.515626-23.761719-54.867188-6.976562-23.292969-10.71875-47.972656-10.71875-73.53125s3.742188-50.238281 10.71875-73.53125c5.789062-19.351562 13.816406-37.738281 23.761719-54.867188 13.386719-23.039062 30.261719-43.800781 49.90625-61.554687 5.527343-5.003906 11.273437-9.769531 17.230469-14.273437 1.292968-.980469 2.601562-1.953126 3.917968-2.914063 3.835938-2.789063 7.753906-5.484375 11.753906-8.054687 5.601563-3.617188 11.347657-7.023438 17.242188-10.199219 11.996094-6.488281 24.566406-12.039063 37.617188-16.550781 6.164062-2.144532 12.433593-4.054688 18.808593-5.714844 12.203125-3.199219 24.761719-5.519532 37.613281-6.886719 8.246094-.878906 16.613282-1.3710938 25.078126-1.4414062.785156-.0117188 1.566406-.0117188 2.351562-.0117188 24.742188 0 48.671875 3.511719 71.304688 10.0625 5.839843 1.691406 11.585937 3.574219 17.238281 5.671875 13.074219 4.808594 25.652343 10.671875 37.617187 17.472656 5.90625 3.332031 11.652344 6.90625 17.242188 10.699219 2.371094 1.609375 4.722656 3.25 7.03125 4.953125 2.9375 2.109375 5.808594 4.304687 8.640625 6.550781 5.96875 4.746094 11.726562 9.738282 17.242187 14.996094 5.453125 5.183594 10.6875 10.605469 15.671875 16.246094 5.539063 6.269531 10.773438 12.820312 15.675781 19.613281 5.148438 7.136719 9.945313 14.546875 14.367188 22.203125 9.707031 16.886719 17.554688 34.972656 23.25 54 6.976562 23.292969 10.71875 47.972656 10.71875 73.53125zm0 0" fill="#349cdd"/><path d="m478.03125 75.160156v308.371094c-4.421875 7.65625-9.21875 15.066406-14.367188 22.203125-4.902343 6.792969-10.136718 13.34375-15.675781 19.613281-4.984375 5.640625-10.21875 11.0625-15.671875 16.246094-5.515625 5.257812-11.273437 10.25-17.242187 14.996094-5.066407 4.023437-10.300781 7.867187-15.671875 11.503906-5.589844 3.792969-11.335938 7.367188-17.242188 10.699219-11.964844 6.800781-24.542968 12.664062-37.617187 17.472656-5.652344 2.097656-11.398438 3.980469-17.238281 5.671875-22.632813 6.550781-46.5625 10.0625-71.304688 10.0625-.785156 0-1.566406 0-2.351562-.011719-8.464844-.070312-16.832032-.5625-25.078126-1.441406-12.851562-1.367187-25.410156-3.6875-37.613281-6.886719-6.375-1.660156-12.644531-3.570312-18.808593-5.714844-13.050782-4.511718-25.621094-10.0625-37.617188-16.550781-5.894531-3.175781-11.640625-6.582031-17.242188-10.199219-5.371093-3.457031-10.59375-7.125-15.671874-10.96875-5.957032-4.503906-11.703126-9.269531-17.230469-14.273437-19.644531-17.753906-36.519531-38.515625-49.90625-61.554687v-309.238282c0-14.523437 11.777343-26.300781 26.3125-26.300781h390.925781c14.523438 0 26.3125 11.777344 26.3125 26.300781zm0 0" fill="#f2f2f2"/><g fill="#444f56"><path d="m123.066406 163.285156v311.539063c-1.941406-1.191407-3.863281-2.394531-5.777344-3.628907-5.371093-3.457031-10.59375-7.125-15.671874-10.96875-5.957032-4.503906-11.703126-9.269531-17.230469-14.273437-6.480469-5.851563-12.65625-12.039063-18.496094-18.515625v-264.152344zm0 0"/><path d="m311.589844 163.285156v342.65625c-17.898438 3.96875-36.5 6.058594-55.589844 6.058594-.523438 0-1.042969 0-1.566406-.011719v-348.703125zm0 0"/><path d="m148.59375 163.285156v325.164063c-4.117188-1.914063-8.167969-3.917969-12.160156-6.039063v-319.125zm0 0"/><path d="m379.714844 163.285156v316.875c-3.992188 2.21875-8.042969 4.328125-12.160156 6.3125v-323.1875zm0 0"/><path d="m405.253906 163.285156v300.710938c-1.933594 1.402344-3.886718 2.761718-5.851562 4.097656-2.078125 1.410156-4.191406 2.800781-6.3125 4.136719v-308.945313zm0 0"/><path d="m191.175781 163.285156v340.429688c-.074219-.011719-.148437-.03125-.21875-.054688-6.375-1.660156-12.644531-3.570312-18.808593-5.714844-3.429688-1.179687-6.8125-2.433593-10.167969-3.761718v-330.898438zm0 0"/><path d="m234.964844 163.285156v347.859375c-2.140625-.167969-4.273438-.367187-6.394532-.597656-7.710937-.824219-15.316406-1.984375-22.796874-3.480469v-343.78125zm0 0"/><path d="m354.167969 163.285156v329.207032c-3.175781 1.328124-6.382813 2.582031-9.625 3.773437-5.652344 2.097656-11.398438 3.980469-17.238281 5.671875-.773438.230469-1.558594.449219-2.332032.648438v-339.300782zm0 0"/><path d="m446.621094 163.285156v263.597656c-4.566406 5.089844-9.339844 10-14.304688 14.710938-4.785156 4.566406-9.757812 8.925781-14.890625 13.105469v-291.414063zm0 0"/><path d="m67.902344 135.335938c0-5.632813 3.246094-9.53125 8.375-11.769532v-.21875c-4.550782-2.308594-6.789063-6.136718-6.789063-10.253906 0-7.941406 7.148438-13.210938 16.539063-13.210938 10.972656 0 15.523437 6.355469 15.523437 12.058594 0 4.042969-2.167969 8.015625-6.789062 10.324219v.21875c4.550781 1.730469 8.59375 5.632813 8.59375 11.695313 0 8.523437-7.148438 14.226562-18.050781 14.226562-11.917969 0-17.402344-6.714844-17.402344-13.070312zm24.261718-.359376c0-4.117187-3.035156-6.570312-7.367187-7.726562-3.609375 1.011719-5.703125 3.609375-5.703125 7.003906-.070312 3.394532 2.527344 6.570313 6.644531 6.570313 3.898438 0 6.425781-2.527344 6.425781-5.847657zm-12.347656-22.242187c0 3.179687 2.886719 5.199219 6.644532 6.355469 2.523437-.722656 4.765624-3.03125 4.765624-5.992188 0-2.890625-1.664062-5.777344-5.707031-5.777344-3.753906 0-5.703125 2.453126-5.703125 5.414063zm0 0"/><path d="m131.953125 147.613281v-6.644531l6.066406-5.488281c10.253907-9.171875 15.238281-14.441407 15.382813-19.929688 0-3.828125-2.3125-6.859375-7.726563-6.859375-4.046875 0-7.582031 2.023438-10.039062 3.898438l-3.105469-7.871094c3.539062-2.671875 9.027344-4.839844 15.382812-4.839844 10.613282 0 16.464844 6.210938 16.464844 14.734375 0 7.871094-5.707031 14.152344-12.496094 20.21875l-4.332031 3.609375v.144532h17.691407v9.027343zm0 0"/><path d="m178.316406 136.851562c1.949219 1.011719 6.425782 2.890626 10.902344 2.890626 5.707031 0 8.59375-2.746094 8.59375-6.28125 0-4.621094-4.621094-6.71875-9.457031-6.71875h-4.476563v-7.867188h4.257813c3.683593-.074219 8.378906-1.445312 8.378906-5.417969 0-2.816406-2.3125-4.910156-6.933594-4.910156-3.828125 0-7.871093 1.660156-9.820312 2.816406l-2.238281-7.941406c2.816406-1.804687 8.449218-3.539063 14.515624-3.539063 10.035157 0 15.597657 5.273438 15.597657 11.699219 0 4.980469-2.816407 8.878907-8.59375 10.902344v.144531c5.632812 1.011719 10.179687 5.269532 10.179687 11.410156 0 8.300782-7.292968 14.367188-19.207031 14.367188-6.066406 0-11.191406-1.589844-13.9375-3.320312zm0 0"/><path d="m240.203125 147.613281v-11.191406h-20.796875v-7.148437l17.765625-28.597657h13.429687v27.511719h5.632813v8.234375h-5.632813v11.191406zm0-19.425781v-10.398438c0-2.816406.144531-5.703124.363281-8.734374h-.289062c-1.515625 3.03125-2.742188 5.777343-4.332032 8.734374l-6.28125 10.253907v.144531zm0 0"/><path d="m296.53125 109.703125h-18.195312l-1.011719 7.222656c1.011719-.144531 1.875-.144531 3.03125-.144531 4.476562 0 9.027343 1.011719 12.347656 3.390625 3.539063 2.386719 5.707031 6.285156 5.707031 11.773437 0 8.738282-7.511718 16.460938-20.148437 16.460938-5.703125 0-10.472657-1.296875-13.070313-2.671875l1.949219-8.230469c2.09375 1.011719 6.355469 2.3125 10.617187 2.3125 4.546876 0 9.386719-2.167968 9.386719-7.152344 0-4.835937-3.828125-7.796874-13.214843-7.796874-2.597657 0-4.40625.144531-6.355469.433593l3.105469-24.621093h25.851562zm0 0"/><path d="m339.570312 108.476562c-1.226562-.074218-2.527343 0-4.261718.144532-9.746094.792968-14.078125 5.773437-15.304688 11.261718h.214844c2.308594-2.382812 5.558594-3.753906 9.964844-3.753906 7.871094 0 14.515625 5.558594 14.515625 15.308594 0 9.316406-7.148438 16.96875-17.332031 16.96875-12.492188 0-18.628907-9.316406-18.628907-20.507812 0-8.808594 3.25-16.171876 8.300781-20.867188 4.695313-4.261719 10.761719-6.570312 18.125-6.933594 2.023438-.144531 3.324219-.144531 4.40625-.070312zm-5.992187 23.539063c0-4.332031-2.308594-8.085937-7.003906-8.085937-2.960938 0-5.417969 1.804687-6.5 4.1875-.289063.578124-.433594 1.441406-.433594 2.742187.21875 4.984375 2.601563 9.460937 7.582031 9.460937 3.898438 0 6.355469-3.539062 6.355469-8.304687zm0 0"/><path d="m387.667969 100.675781v6.933594l-19.355469 40.003906h-11.625l19.351562-37.765625v-.144531h-21.515624v-9.027344zm0 0"/><path d="m397.707031 135.335938c0-5.632813 3.25-9.53125 8.375-11.769532v-.21875c-4.546875-2.308594-6.785156-6.136718-6.785156-10.253906 0-7.941406 7.148437-13.210938 16.535156-13.210938 10.972657 0 15.523438 6.355469 15.523438 12.058594 0 4.042969-2.164063 8.015625-6.789063 10.324219v.21875c4.550782 1.730469 8.59375 5.632813 8.59375 11.695313 0 8.523437-7.148437 14.226562-18.050781 14.226562-11.914063 0-17.402344-6.714844-17.402344-13.070312zm24.261719-.359376c0-4.117187-3.035156-6.570312-7.367188-7.726562-3.609374 1.011719-5.703124 3.609375-5.703124 7.003906-.070313 3.394532 2.527343 6.570313 6.644531 6.570313 3.898437 0 6.425781-2.527344 6.425781-5.847657zm-12.347656-22.242187c0 3.179687 2.886718 5.199219 6.644531 6.355469 2.523437-.722656 4.765625-3.03125 4.765625-5.992188 0-2.890625-1.664062-5.777344-5.707031-5.777344-3.753907 0-5.703125 2.453126-5.703125 5.414063zm0 0"/></g></svg>