<?xml version="1.0" encoding="iso-8859-1"?>
<!-- Generator: Adobe Illustrator 19.0.0, SVG Export Plug-In . SVG Version: 6.00 Build 0)  -->
<svg version="1.1" id="Capa_1" xmlns="http://www.w3.org/2000/svg" xmlns:xlink="http://www.w3.org/1999/xlink" x="0px" y="0px"
	 viewBox="0 0 426.318 426.318" style="enable-background:new 0 0 426.318 426.318;" xml:space="preserve">
<path style="fill:#D4E1F4;" d="M347.951,409.208L347.951,409.208H74.71c-32.914,0-59.037-26.645-59.037-59.037v-38.139h68.963
	h207.935v38.139C292.571,382.041,317.127,407.118,347.951,409.208z"/>
<path style="fill:#4DCFE0;" d="M410.645,17.371v332.8c0,16.196-6.269,30.824-17.241,41.796
	c-10.449,10.449-25.6,17.241-41.796,17.241c-1.045,0-2.612,0-3.657,0c-30.824-2.09-55.38-27.167-55.38-59.037v-38.139H84.637v-0.522
	V17.371l54.335,48.065l54.335-48.588l54.335,48.588l54.335-48.588l54.335,48.588L410.645,17.371z"/>
<g>
	<path style="fill:#3A2C51;" d="M259.657,172.539h-96.653c-8.882,0-15.673-6.792-15.673-15.673c0-8.882,6.792-15.673,15.673-15.673
		h96.653c8.882,0,15.673,6.792,15.673,15.673C275.331,165.747,268.539,172.539,259.657,172.539z"/>
	<path style="fill:#3A2C51;" d="M332.8,245.682H163.004c-8.882,0-15.673-6.792-15.673-15.673s6.792-15.673,15.673-15.673H332.8
		c8.882,0,15.673,6.792,15.673,15.673S341.682,245.682,332.8,245.682z"/>
	<path style="fill:#3A2C51;" d="M416.914,3.265c-5.747-2.612-12.016-1.567-16.718,2.612L356.31,44.539L312.424,5.355
		c-5.747-5.224-15.151-5.224-20.898,0l-43.886,39.184L203.755,5.355c-5.747-5.224-15.151-5.224-20.898,0l-43.886,39.184
		L95.086,5.878c-4.702-4.18-10.971-5.224-16.718-2.612s-9.404,8.359-9.404,14.106v278.988h-53.29C6.792,296.359,0,303.151,0,312.033
		v38.139c0,40.229,31.869,73.143,72.098,74.71l0,0h275.853h3.657c19.853,0,38.661-7.837,53.29-21.943
		c14.106-14.629,21.42-33.437,21.42-52.767v-332.8C426.318,11.102,422.661,5.355,416.914,3.265z M31.347,350.171v-22.465h245.551
		v22.465c0,16.196,5.224,31.347,13.584,43.363H74.71C50.678,393.535,31.347,374.204,31.347,350.171z M394.971,350.171
		c0,11.494-4.702,22.465-12.539,30.824c-8.359,8.359-18.808,12.539-30.824,12.539h-3.135c-22.988-1.567-40.229-20.376-40.229-43.363
		v-38.139c0-8.882-6.792-15.673-15.673-15.673H100.31V52.375l28.212,25.078c5.747,5.224,15.151,5.224,20.898,0l43.886-39.184
		l43.886,39.184c5.747,5.224,15.151,5.224,20.898,0l43.886-39.184l43.886,39.184c5.747,5.224,14.629,5.224,20.898,0l28.212-25.078
		V350.171z"/>
</g>
<g>
</g>
<g>
</g>
<g>
</g>
<g>
</g>
<g>
</g>
<g>
</g>
<g>
</g>
<g>
</g>
<g>
</g>
<g>
</g>
<g>
</g>
<g>
</g>
<g>
</g>
<g>
</g>
<g>
</g>
</svg>
