<?xml version="1.0" encoding="iso-8859-1"?>
<!-- Generator: Adobe Illustrator 19.0.0, SVG Export Plug-In . SVG Version: 6.00 Build 0)  -->
<svg version="1.1" id="Capa_1" xmlns="http://www.w3.org/2000/svg" xmlns:xlink="http://www.w3.org/1999/xlink" x="0px" y="0px"
	 viewBox="0 0 512 512" style="enable-background:new 0 0 512 512;" xml:space="preserve">
<path style="fill:#617075;" d="M396.911,0H115.089C87.93,0,65.834,22.096,65.834,49.255v413.49
	c0,27.159,22.096,49.255,49.255,49.255h281.822c27.159,0,49.255-22.096,49.255-49.255V49.255C446.166,22.096,424.07,0,396.911,0z"/>
<path style="fill:#889FA8;" d="M256,0H115.089C87.93,0,65.834,22.096,65.834,49.255v413.49c0,27.159,22.096,49.255,49.255,49.255
	H256V0z"/>
<path style="fill:#43B57C;" d="M378.656,55.096H133.344c-8.284,0-15,6.716-15,15v59.618c0,8.284,6.716,15,15,15h245.313
	c8.284,0,15-6.716,15-15V70.096C393.656,61.812,386.94,55.096,378.656,55.096z"/>
<path style="fill:#69EB99;" d="M256,55.096H133.344c-8.284,0-15,6.716-15,15v59.618c0,8.284,6.716,15,15,15H256V55.096z"/>
<path style="fill:#CC567D;" d="M282.479,200.163H133.344c-8.284,0-15,6.716-15,15v44.212c0,8.284,6.716,15,15,15h149.135
	c8.284,0,15-6.716,15-15v-44.212C297.479,206.879,290.763,200.163,282.479,200.163z"/>
<path style="fill:#FF80B7;" d="M256,200.163H133.344c-8.284,0-15,6.716-15,15v44.212c0,8.284,6.716,15,15,15H256V200.163z"/>
<path style="fill:#A7C8D1;" d="M381.114,200.163h-50.5c-8.284,0-15,6.716-15,15v44.212c0,8.284,6.716,15,15,15h50.5
	c8.284,0,15-6.716,15-15v-44.212C396.114,206.879,389.398,200.163,381.114,200.163z"/>
<path style="fill:#C7F4FF;" d="M355.864,200.163h-25.25c-8.284,0-15,6.716-15,15v44.212c0,8.284,6.716,15,15,15h25.25V200.163z"/>
<path style="fill:#A7C8D1;" d="M381.114,288.934h-50.5c-8.284,0-15,6.716-15,15v44.212c0,8.284,6.716,15,15,15h50.5
	c8.284,0,15-6.716,15-15v-44.212C396.114,295.65,389.398,288.934,381.114,288.934z"/>
<path style="fill:#C7F4FF;" d="M355.864,288.934h-25.25c-8.284,0-15,6.716-15,15v44.212c0,8.284,6.716,15,15,15h25.25V288.934z"/>
<path style="fill:#A7C8D1;" d="M381.114,377.705h-50.5c-8.284,0-15,6.716-15,15v44.212c0,8.284,6.716,15,15,15h50.5
	c8.284,0,15-6.716,15-15v-44.212C396.114,384.42,389.398,377.705,381.114,377.705z"/>
<path style="fill:#C7F4FF;" d="M355.864,377.705h-25.25c-8.284,0-15,6.716-15,15v44.212c0,8.284,6.716,15,15,15h25.25V377.705z"/>
<path style="fill:#A7C8D1;" d="M282.479,377.705h-50.5c-8.284,0-15,6.716-15,15v44.212c0,8.284,6.716,15,15,15h50.5
	c8.284,0,15-6.716,15-15v-44.212C297.479,384.42,290.763,377.705,282.479,377.705z"/>
<path style="fill:#C7F4FF;" d="M256,377.705h-24.021c-8.284,0-15,6.716-15,15v44.212c0,8.284,6.716,15,15,15H256V377.705z"/>
<path style="fill:#A7C8D1;" d="M183.843,377.705h-50.5c-8.284,0-15,6.716-15,15v44.212c0,8.284,6.716,15,15,15h50.5
	c8.284,0,15-6.716,15-15v-44.212C198.843,384.42,192.127,377.705,183.843,377.705z"/>
<path style="fill:#C7F4FF;" d="M158.593,377.705h-25.25c-8.284,0-15,6.716-15,15v44.212c0,8.284,6.716,15,15,15h25.25V377.705z"/>
<path style="fill:#A7C8D1;" d="M282.479,288.934h-50.5c-8.284,0-15,6.716-15,15v44.212c0,8.284,6.716,15,15,15h50.5
	c8.284,0,15-6.716,15-15v-44.212C297.479,295.65,290.763,288.934,282.479,288.934z"/>
<path style="fill:#C7F4FF;" d="M256,288.934h-24.021c-8.284,0-15,6.716-15,15v44.212c0,8.284,6.716,15,15,15H256V288.934z"/>
<path style="fill:#A7C8D1;" d="M183.843,288.934h-50.5c-8.284,0-15,6.716-15,15v44.212c0,8.284,6.716,15,15,15h50.5
	c8.284,0,15-6.716,15-15v-44.212C198.843,295.65,192.127,288.934,183.843,288.934z"/>
<path style="fill:#C7F4FF;" d="M158.593,288.934h-25.25c-8.284,0-15,6.716-15,15v44.212c0,8.284,6.716,15,15,15h25.25V288.934z"/>
<g>
</g>
<g>
</g>
<g>
</g>
<g>
</g>
<g>
</g>
<g>
</g>
<g>
</g>
<g>
</g>
<g>
</g>
<g>
</g>
<g>
</g>
<g>
</g>
<g>
</g>
<g>
</g>
<g>
</g>
</svg>
