<svg id="Capa_1" enable-background="new 0 0 511.91 511.91" height="512" viewBox="0 0 511.91 511.91" width="512" xmlns="http://www.w3.org/2000/svg"><g><path d="m111.29 63.599-47.691 47.69v289.331l47.691 47.691h144.706l39.896-198.662-39.896-186.05z" fill="#f4f4f7"/><path d="m400.621 63.599h-144.625v384.712h144.625l47.69-47.691v-289.33z" fill="#e2e2eb"/><path d="m208.097 288.813v80.714h47.903l20-57.527-20-71.09z" fill="#ff5b5b"/><path d="m369.528 208.097h-80.715l-32.813 32.813v128.617h113.528z" fill="#d24380"/><path d="m142.383 142.382v161.431h113.617l8-84.813-8-76.618z" fill="#64e0db"/><path d="m256 142.382h47.812v161.43h-47.812z" fill="#00c7c7"/><g><path d="m255.996 438.1h153.294v30h-153.294z" fill="#00c7c7"/><path d="m102.62 438.1h153.376v30h-153.376z" fill="#64e0db"/><path d="m43.81 102.62h30v306.669h-30z" fill="#64e0db"/><path d="m255.996 43.81h153.294v30h-153.294z" fill="#00c7c7"/><path d="m102.62 43.81h153.376v30h-153.376z" fill="#64e0db"/><path d="m438.1 102.62h30v306.669h-30z" fill="#00c7c7"/></g><path d="m15 15h87.62v87.62h-87.62z" fill="#f4f4f7"/><path d="m409.29 15h87.62v87.62h-87.62z" fill="#e2e2eb"/><path d="m117.62 117.62h-117.62v-117.62h117.62zm-87.62-30h57.62v-57.62h-57.62z" fill="#5a5a5a"/><path d="m15 409.29h87.62v87.62h-87.62z" fill="#f4f4f7"/><path d="m117.62 511.91h-117.62v-117.62h117.62zm-87.62-30h57.62v-57.62h-57.62z" fill="#5a5a5a"/><path d="m409.29 409.29h87.62v87.62h-87.62z" fill="#e2e2eb"/><g fill="#444"><path d="m511.909 117.62h-117.619v-117.62h117.619zm-87.619-30h57.619v-57.62h-57.619z"/><path d="m511.909 511.91h-117.619v-117.62h117.619zm-87.619-30h57.619v-57.62h-57.619z"/></g></g></svg>