<svg id="Layer_1" enable-background="new 0 0 512.002 512.002" height="512" viewBox="0 0 512.002 512.002" width="512" xmlns="http://www.w3.org/2000/svg"><g><g><path d="m441.429 11.931h-15.503c-9.32 0-16.876 7.555-16.876 16.875v29.828l3.911 3.801h42.25l3.093-3.801v-29.828c0-9.32-7.555-16.875-16.875-16.875z" fill="#f9f6f9"/><path d="m434.393 28.806c0-7.608 5.036-14.036 11.956-16.142-1.557-.474-3.208-.733-4.92-.733h-15.503c-9.32 0-16.876 7.555-16.876 16.875v29.828l3.911 3.801h25.343l-3.911-3.801z" fill="#cbe2ff"/><path d="m457.774 435.498h-49.5l-1.486 1.765 14.399 50.133c3.603 12.544 21.378 12.544 24.98 0l14.399-50.133z" fill="#8479c2"/><path d="m432.131 437.263 1.486-1.765h-25.343l-1.486 1.765 14.399 50.133c3.603 12.544 21.378 12.544 24.98 0l.181-.631z" fill="#6e60b8"/><path d="m462.461 258.686h-58.25l-.866 1.773v169.924c0 4.761 3.859 8.621 8.621 8.621h43.423c4.761 0 8.621-3.86 8.621-8.621v-169.925z" fill="#f9f6f9"/><path d="m428.688 430.382v-169.924l.866-1.773h-25.343l-.866 1.773v169.924c0 4.761 3.859 8.621 8.621 8.621h25.343c-4.761 0-8.621-3.86-8.621-8.621z" fill="#cbe2ff"/><path d="m344.961 432.186h-337.323v37.965c0 17.131 14.016 31.147 31.147 31.147h304.752c4.496 0 8.175-3.679 8.175-8.176v-54.119z" fill="#f9f6f9"/><path d="m60.737 470.151v-37.965h-53.099v37.965c0 17.131 14.016 31.147 31.147 31.147h53.099c-17.131 0-31.147-14.017-31.147-31.147z" fill="#cbe2ff"/><path d="m339.921 11.931h-279.184l-10.276 11.755v415.317h301.25v-415.281c.001-6.512-5.278-11.791-11.79-11.791z" fill="#ff636e"/><path d="m106.065 11.931h-45.328l-10.276 11.755v415.317h55.604z" fill="#ff4654"/><path d="m460.863 58.635h-54.371c-5.962 0-10.794 4.833-10.794 10.794v180.704c0 5.961 4.833 10.794 10.794 10.794h54.371c5.962 0 10.794-4.833 10.794-10.794v-180.704c0-5.961-4.832-10.794-10.794-10.794z" fill="#8479c2"/><path d="m421.041 250.133v-180.704c0-5.962 4.833-10.794 10.794-10.794h-25.343c-5.962 0-10.794 4.833-10.794 10.794v180.704c0 5.961 4.833 10.794 10.794 10.794h25.343c-5.962 0-10.794-4.833-10.794-10.794z" fill="#6e60b8"/><path d="m60.737 11.931h-21.952c-17.131 0-31.147 14.016-31.147 31.147v427.072c0-17.131 14.016-31.147 31.147-31.147h21.952z" fill="#ff7f87"/><path d="m34.187 43.078c0-15.569 11.578-28.563 26.549-30.803v-.344h-21.951c-17.131 0-31.147 14.016-31.147 31.147v427.072c0-15.57 11.578-28.563 26.549-30.803z" fill="#ff636e"/><path d="m280.731 84.377h-163.666c-6.6 0-12 5.4-12 12v80c0 6.6 5.4 12 12 12h163.667l3.48-4.441v-95.25z" fill="#ff9ba1"/><path d="m148.874 176.377v-80c0-6.6 5.4-12 12-12h-43.81c-6.6 0-12 5.4-12 12v80c0 6.6 5.4 12 12 12h43.81c-6.6 0-12-5.4-12-12z" fill="#ff7f87"/><path d="m280.731 11.931h29.333v489.367h-29.333z" fill="#ffe07d"/><path d="m280.731 439.003h29.333v62.295h-29.333z" fill="#ffc250"/></g><g><path d="m38.647 508.184h304.752c8.644 0 15.675-7.032 15.675-15.675 0-10.494 0-465.283 0-469.4 0-10.637-8.654-19.291-19.291-19.291-7.761 0-292.425 0-301.136 0-21.309 0-38.647 17.336-38.647 38.647v427.072c0 21.31 17.337 38.647 38.647 38.647zm-23.647-69.195v-396.524c0-13.038 10.607-23.647 23.647-23.647h14.453v412.072h-14.453c-8.633 0-16.933 2.899-23.647 8.099zm258.094-362.725h-156.167c-10.752 0-19.5 8.748-19.5 19.5v80c0 10.752 8.748 19.5 19.5 19.5h58.334c4.143 0 7.5-3.358 7.5-7.5s-3.357-7.5-7.5-7.5h-58.334c-2.439 0-4.5-2.061-4.5-4.5v-80c0-2.439 2.061-4.5 4.5-4.5h156.167v89h-62.833c-4.143 0-7.5 3.358-7.5 7.5s3.357 7.5 7.5 7.5h62.833v235.626h-204.994v-412.072h204.994zm-258.094 393.273c0-13.039 10.608-23.647 23.647-23.647h234.446v47.294h-234.446c-13.039 0-23.647-10.608-23.647-23.647zm273.094 23.647v-47.294h14.333v47.294zm55.98-.675c0 .354-.321.675-.675.675h-25.973v-47.294h26.647v46.619zm-41.647-473.691v204.11c0 4.142 3.357 7.5 7.5 7.5s7.5-3.358 7.5-7.5v-204.11h22.356c2.366 0 4.291 1.925 4.291 4.291v407.781h-26.647v-172.963c0-4.142-3.357-7.5-7.5-7.5s-7.5 3.358-7.5 7.5v172.963h-14.333v-243.126c0-8.101 0-160.845 0-168.946z"/><path d="m504.502 85.503h-25.482v-16.687c0-8.373-5.662-15.434-13.353-17.598v-23.025c0-13.441-10.935-24.375-24.375-24.375h-15.503c-13.441 0-24.376 10.935-24.376 24.375v23.026c-7.691 2.164-13.353 9.224-13.353 17.598v16.692c-4.094.056-7.396 3.388-7.396 7.495s3.302 7.439 7.396 7.495v149.021c0 6.114 3.026 11.524 7.647 14.847v165.402c0 4.218 1.641 8.05 4.302 10.926l13.831 48.158c5.674 19.757 33.729 19.739 39.398 0l13.833-48.16c2.66-2.876 4.3-6.708 4.3-10.924v-165.402c4.622-3.324 7.647-8.733 7.647-14.847v-149.017h17.982v155.498c0 4.142 3.357 7.5 7.5 7.5s7.5-3.358 7.5-7.5v-162.998c.002-4.142-3.355-7.5-7.498-7.5zm-98.148-19.981h54.371c1.816 0 3.294 1.478 3.294 3.294v16.687h-60.959v-16.687c.001-1.816 1.478-3.294 3.294-3.294zm10.059-37.329c0-5.169 4.206-9.375 9.376-9.375h15.503c5.169 0 9.375 4.206 9.375 9.375v22.329h-34.254zm39.959 401.576c0 .656-.569 1.121-1.121 1.121h-43.422c-.549 0-1.121-.464-1.121-1.121v-161.955h45.664zm-17.551 54.944c-1.526 5.315-9.037 5.315-10.563 0l-11.15-38.823h32.864zm25.199-235.193c0 1.55-1.08 2.845-2.524 3.194-.06.014-.12.03-.181.041-.192.035-.388.06-.589.06h-54.371c-.202 0-.397-.025-.589-.06-.061-.011-.121-.026-.181-.041-1.444-.349-2.524-1.644-2.524-3.194v-149.017h60.959z"/></g></g></svg>