<svg id="Capa_1" enable-background="new 0 0 512 512" height="512" viewBox="0 0 512 512" width="512" xmlns="http://www.w3.org/2000/svg"><g><g><path d="m256 377c-51.33 0-106.585-19.426-159.789-56.176-39.795-27.488-64.373-54.741-65.4-55.888-4.555-5.087-4.555-12.784 0-17.871 1.027-1.147 25.605-28.4 65.4-55.888 53.204-36.751 108.459-56.177 159.789-56.177s106.585 19.426 159.789 56.176c39.795 27.488 64.373 54.741 65.4 55.888 4.555 5.087 4.555 12.784 0 17.871-1.027 1.147-25.605 28.4-65.4 55.888-53.204 36.752-108.458 56.177-159.789 56.177z" fill="#ebf6fa"/></g><path d="m415.79 191.177c-53.205-36.751-108.459-56.177-159.79-56.177 0 0 0 0-.001 0v242c51.331 0 106.585-19.426 159.79-56.176 39.795-27.488 64.373-54.741 65.4-55.888 4.555-5.087 4.555-12.784 0-17.871-1.027-1.147-25.605-28.401-65.399-55.888z" fill="#dbeeff"/><g><path d="m256 388c-72.785 0-132-59.215-132-132s59.215-132 132-132 132 59.215 132 132-59.215 132-132 132z" fill="#64e1dc"/></g><path d="m256 124v264c72.785 0 132-59.215 132-132s-59.215-132-132-132z" fill="#00c8c7"/><g><path d="m256.052 331.252c-1.192 0-2.387-.027-3.587-.083-18.673-.859-36.298-8.674-49.629-22.005s-21.146-30.956-22.005-49.629c-.956-20.784 6.411-40.495 20.745-55.502 14.339-15.014 33.667-23.283 54.424-23.283h.143c8.062.02 15.194 4.535 18.651 11.783 3.497 7.332 2.499 15.82-2.604 22.152-2.81 3.485-4.194 7.895-3.899 12.415.569 8.743 7.866 16.04 16.61 16.61 4.531.292 8.928-1.091 12.414-3.899 6.333-5.104 14.821-6.101 22.151-2.604 7.249 3.457 11.764 10.59 11.783 18.616v.177c0 20.757-8.269 40.085-23.283 54.425-14.141 13.505-32.459 20.826-51.914 20.827z" fill="#452920"/></g><path d="m319.467 237.206c-7.33-3.497-15.818-2.5-22.151 2.604-3.486 2.809-7.883 4.191-12.414 3.899-8.744-.57-16.041-7.867-16.61-16.61-.295-4.52 1.09-8.929 3.899-12.415 5.103-6.332 6.101-14.82 2.604-22.152-3.457-7.249-10.59-11.764-18.651-11.783h-.144s0 0-.001 0v150.5c.017 0 .035.001.052.001 19.455 0 37.773-7.321 51.915-20.827 15.015-14.34 23.283-33.668 23.283-54.425v-.178c-.018-8.023-4.533-15.157-11.782-18.614z" fill="#1c120f"/><g><path d="m256 391.5c-57.481 0-119.357-21.753-178.938-62.908-44.563-30.782-72.086-61.301-73.237-62.585-5.101-5.696-5.101-14.316 0-20.013 1.15-1.284 28.674-31.804 73.237-62.585 59.581-41.155 121.457-62.909 178.938-62.909s119.357 21.753 178.938 62.908c44.563 30.782 72.087 61.301 73.237 62.585 5.101 5.696 5.101 14.316 0 20.013-1.15 1.284-28.674 31.804-73.237 62.585-59.58 41.156-121.456 62.909-178.938 62.909zm-220.056-135.494c11.302 11.07 31.859 29.796 58.775 48.32 37.898 26.083 96.644 57.174 161.281 57.174 102.82 0 191.347-77.433 220.057-105.506-11.304-11.072-31.859-29.796-58.775-48.32-37.899-26.082-96.644-57.174-161.282-57.174-102.82 0-191.346 77.433-220.056 105.506z" fill="#ffb3cf"/></g><path d="m434.938 183.408c-59.58-41.154-121.456-62.908-178.938-62.908 0 0 0 0-.001 0v30c64.638 0 123.383 31.091 161.281 57.174 26.916 18.524 47.472 37.248 58.775 48.32-28.708 28.073-117.234 105.506-220.055 105.506 0 0 0 0-.001 0v30c57.482 0 119.358-21.753 178.938-62.908 44.563-30.782 72.087-61.301 73.237-62.585 5.101-5.696 5.101-14.316 0-20.013-1.149-1.284-28.673-31.804-73.236-62.586z" fill="#ff8fb8"/></g></svg>