<?xml version="1.0"?>
<svg xmlns="http://www.w3.org/2000/svg" xmlns:xlink="http://www.w3.org/1999/xlink" xmlns:svgjs="http://svgjs.com/svgjs" version="1.1" width="512" height="512" x="0" y="0" viewBox="0 0 512.001 512.001" style="enable-background:new 0 0 512 512" xml:space="preserve" class=""><g>
<path xmlns="http://www.w3.org/2000/svg" style="" d="M214.71,306.106v197.626c0,6.139,6.46,10.132,11.951,7.386l61.5-30.75  c5.595-2.798,9.13-8.517,9.13-14.772v-159.49c0-5.702,1.967-11.229,5.568-15.649L473.4,81.157c3.602-4.42,5.568-9.947,5.568-15.649  V16.516C478.968,7.395,471.573,0,462.452,0H49.548c-9.122,0-16.516,7.395-16.516,16.516v48.991c0,5.702,1.967,11.229,5.568,15.649  l170.541,209.3C212.743,294.877,214.71,300.404,214.71,306.106z" fill="#f55395" data-original="#ffe17d" class=""/>
<path xmlns="http://www.w3.org/2000/svg" style="" d="M404.355,66.065H198.194c-4.561,0-8.258-3.697-8.258-8.258V0H49.548  c-9.122,0-16.516,7.395-16.516,16.516v48.991c0,5.702,1.967,11.229,5.568,15.649l170.541,209.3c3.602,4.42,5.569,9.948,5.569,15.65  v197.625c0,6.139,6.46,10.132,11.951,7.386l17.105-8.552V305.548c0-4.561,3.697-8.258,8.258-8.258h11.74  c5.474,0,10.593-2.712,13.667-7.242L415.346,86.804C421.33,77.985,415.013,66.065,404.355,66.065z" fill="#f377aa" data-original="#ffd164" class=""/>
<path xmlns="http://www.w3.org/2000/svg" style="" d="M123.502,66.065H33.08c0.126,5.502,2.037,10.817,5.52,15.091l170.541,209.3  c1.681,2.064,2.968,4.383,3.903,6.835h6.065c5.821,0,9.814-5.86,7.686-11.278L146.561,81.78  C142.836,72.299,133.688,66.065,123.502,66.065z" fill="#f55395" data-original="#ffc350" class=""/>
<g xmlns="http://www.w3.org/2000/svg">
</g>
<g xmlns="http://www.w3.org/2000/svg">
</g>
<g xmlns="http://www.w3.org/2000/svg">
</g>
<g xmlns="http://www.w3.org/2000/svg">
</g>
<g xmlns="http://www.w3.org/2000/svg">
</g>
<g xmlns="http://www.w3.org/2000/svg">
</g>
<g xmlns="http://www.w3.org/2000/svg">
</g>
<g xmlns="http://www.w3.org/2000/svg">
</g>
<g xmlns="http://www.w3.org/2000/svg">
</g>
<g xmlns="http://www.w3.org/2000/svg">
</g>
<g xmlns="http://www.w3.org/2000/svg">
</g>
<g xmlns="http://www.w3.org/2000/svg">
</g>
<g xmlns="http://www.w3.org/2000/svg">
</g>
<g xmlns="http://www.w3.org/2000/svg">
</g>
<g xmlns="http://www.w3.org/2000/svg">
</g>
</g></svg>
