<?xml version="1.0" encoding="utf-8"?>
<!-- Generator: Adobe Illustrator 23.0.3, SVG Export Plug-In . SVG Version: 6.00 Build 0)  -->
<svg version="1.1" id="Layer_1" xmlns="http://www.w3.org/2000/svg" xmlns:xlink="http://www.w3.org/1999/xlink" x="0px" y="0px"
	 viewBox="0 0 50 50" style="enable-background:new 0 0 50 50;" xml:space="preserve">
<style type="text/css">
	.st0{fill:#FDC324;}
	.st1{fill:#F90B22;}
	.st2{fill:#00BD49;}
	.st3{fill:#0390BE;}
	.st4{fill:#FF0425;}
	.st5{fill:#682CC6;}
	.st6{fill:#CC33AF;}
	.st7{fill:url(#SVGID_1_);}
	.st8{fill:url(#SVGID_2_);}
	.st9{fill:url(#SVGID_3_);}
	.st10{fill:url(#SVGID_4_);}
	.st11{fill:url(#SVGID_5_);}
	.st12{fill:url(#SVGID_6_);}
	.st13{fill:url(#SVGID_7_);}
	.st14{fill:url(#SVGID_8_);}
	.st15{fill:url(#SVGID_9_);}
	.st16{fill:url(#SVGID_10_);}
	.st17{fill:url(#SVGID_11_);}
	.st18{fill:url(#SVGID_12_);}
	.st19{fill:url(#SVGID_13_);}
	.st20{fill:url(#SVGID_14_);}
	.st21{fill:#009A34;}
	.st22{fill:url(#SVGID_15_);}
	.st23{fill:url(#SVGID_16_);}
</style>
<g>
	<g>
		<path class="st4" d="M0.9,12.8c0-2.1,0-4.3,0-6.4c0-3,2.1-5.1,5.1-5.1c4.3,0,8.7,0,13,0c1,0,1.2,0.3,1.2,1.3
			c0.1,3.6,0.1,3.6-3.4,3.6c-3.2,0-6.4,0.1-9.6,0C6,6.1,5.7,6.4,5.7,7.6c0.1,3.8,0,7.6,0.1,11.5c0,1.2-0.3,1.6-1.5,1.6
			c-3.3,0-3.3,0-3.3-3.3C0.9,15.8,0.9,14.3,0.9,12.8z"/>
		<path class="st4" d="M37.8,1.3c2.1,0,4.1,0,6.2,0c3,0,5.1,2.1,5.1,5.1c0,4.3,0,8.7,0,13c0,1-0.3,1.2-1.2,1.3
			c-3.6,0.1-3.6,0.1-3.6-3.6c0-3-0.1-6,0-9c0-1.4-0.2-1.9-1.8-1.9c-3.7,0.1-7.4,0-11.1,0.1c-1.2,0-1.6-0.2-1.6-1.5
			c0-3.4,0-3.4,3.3-3.4C34.7,1.3,36.2,1.3,37.8,1.3z"/>
		<path class="st4" d="M12.2,49.6c-2.1,0-4.1,0-6.2,0c-3,0-5.1-2-5.1-5c0-4.3,0-8.7,0-13c0-1.2,0.4-1.3,1.4-1.3c3.5,0,3.5,0,3.5,3.4
			c0,3.1,0.1,6.3,0,9.4c-0.1,1.5,0.4,1.7,1.8,1.7c3.7-0.1,7.4,0,11.1-0.1c1.1,0,1.6,0.2,1.6,1.5c0,3.4,0,3.4-3.4,3.4
			C15.2,49.6,13.7,49.6,12.2,49.6z"/>
		<path class="st4" d="M49.1,38.3c0,2.1,0,4.3,0,6.4c-0.1,2.8-2.1,4.9-4.9,4.9c-4.4,0.1-8.8,0-13.2,0c-1,0-1.2-0.4-1.2-1.3
			c-0.1-3.6-0.1-3.6,3.4-3.6c3.3,0,6.5,0,9.8,0c1,0,1.3-0.3,1.3-1.3c-0.1-3.9,0-7.8-0.1-11.7c0-1.3,0.3-1.6,1.6-1.5
			c3.3,0,3.3,0,3.3,3.3C49.1,35.1,49.1,36.7,49.1,38.3z"/>
		<path class="st4" d="M37.1,24c0-0.4,0.1-1-0.6-0.9c-2.1,0.4-1.7-1-1.8-2.3c-0.3-5.3-3.7-9.3-8.5-9.7c-6.3-0.6-10.7,3.6-10.9,10.3
			c0,1.1-0.1,1.9-1.5,1.6c-1-0.2-0.9,0.5-0.9,1.1c0,4.8,0,9.7,0,14.5c0,1,0.3,1.2,1.3,1.2c3.6-0.1,7.2,0,10.7,0c3.6,0,7.3,0,10.9,0
			c0.6,0,1.2,0.2,1.2-0.9C37,34,37.1,29,37.1,24z M25,35c-2,0-3.6-1.6-3.5-3.6c0-2,1.6-3.6,3.6-3.5c2,0,3.6,1.6,3.5,3.6
			C28.6,33.5,26.9,35.1,25,35z M29.9,22.5c-0.2,0.7-0.7,0.6-1.2,0.6c-1.3,0-2.5,0-3.8,0c-0.8,0-1.5,0-2.3,0c-2.8,0-2.9-0.2-2.5-3
			c0.5-2.9,3.1-4.7,5.9-4.1C28.7,16.6,30.6,19.9,29.9,22.5z"/>
	</g>
</g>
</svg>
