<svg id="Layer_5" enable-background="new 0 0 64 64" height="512" viewBox="0 0 64 64" width="512" xmlns="http://www.w3.org/2000/svg"><g><g><g><path d="m54 26.96v29.04c0 1.1-.9 2-2 2h-20c0 1.1-.45 2.1-1.17 2.83-.73.72-1.73 1.17-2.83 1.17s-2.1-.45-2.83-1.17c-.72-.73-1.17-1.73-1.17-2.83h-20c-1.1 0-2-.9-2-2v-34h4v32h22 22v-20-4h1l.65-2.57c.64-.2 1.25-.47 1.84-.77z" fill="#ff826e"/></g><g><path d="m45 30-.65-2.57c-.64-.2-1.25-.47-1.84-.77l-2.29 1.36-4.24-4.24 1.36-2.29c-.3-.59-.57-1.2-.77-1.84l-2.57-.65v-3h-2c-2.21 0-4 1.79-4 4 0-2.21-1.79-4-4-4h-4c0 1.1-.9 2-2 2h-2v2.59c0 .78-.63 1.41-1.41 1.41-.38 0-.74-.15-1-.41l-3.59-3.59h-4v4 32h22 22v-20-4z" fill="#e6e9ed"/></g><g><path d="m32 38h14v8h-14z" fill="#4fc1e9"/></g><g><path d="m2 16v-8c0-1.1.9-2 2-2h14c1.1 0 2 .9 2 2v8c0 1.1-.9 2-2 2h-2v2.59c0 .78-.63 1.41-1.41 1.41-.38 0-.74-.15-1-.41l-3.59-3.59h-4-2c-1.1 0-2-.9-2-2z" fill="#ffeaa7"/></g><g><path d="m24 43v3h-14v-3c0-3.87 3.13-7 7-7 1.94 0 3.68.78 4.95 2.05s2.05 3.01 2.05 4.95z" fill="#b4dd7f"/></g><g><circle cx="17" cy="32" fill="#f0d0b4" r="4"/></g><g><path d="m34 16v-3l2.57-.65c.2-.64.47-1.25.77-1.84l-1.36-2.29 4.24-4.24 2.29 1.36c.59-.3 1.2-.57 1.84-.77l.65-2.57h6l.65 2.57c.64.2 1.25.47 1.84.77l2.29-1.36 4.24 4.24-1.36 2.29c.3.59.57 1.2.77 1.84l2.57.65v6l-2.57.65c-.2.64-.47 1.25-.77 1.84l1.36 2.29-4.24 4.24-1.78-1.06-.51-.3c-.59.3-1.2.57-1.84.77l-.65 2.57h-1-5l-.65-2.57c-.64-.2-1.25-.47-1.84-.77l-2.29 1.36-4.24-4.24 1.36-2.29c-.3-.59-.57-1.2-.77-1.84l-2.57-.65zm22 0c0-4.42-3.58-8-8-8s-8 3.58-8 8 3.58 8 8 8 8-3.58 8-8z" fill="#ffc729"/></g><g><path d="m48 8c4.42 0 8 3.58 8 8s-3.58 8-8 8-8-3.58-8-8 3.58-8 8-8zm4 8c0-2.21-1.79-4-4-4s-4 1.79-4 4 1.79 4 4 4 4-1.79 4-4z" fill="#fcd770"/></g></g><g><path d="m63 19.777v-7.555l-2.802-.713c-.119-.318-.252-.639-.4-.956l1.48-2.489-5.342-5.342-2.489 1.479c-.317-.147-.637-.281-.956-.4l-.714-2.801h-7.555l-.712 2.802c-.319.119-.639.253-.956.4l-2.489-1.479-5.342 5.342 1.48 2.489c-.147.317-.281.638-.4.956l-2.803.713v2.777h-1c-1.641 0-3.088.806-4 2.031-.912-1.225-2.359-2.031-4-2.031h-3v-7c0-1.654-1.346-3-3-3h-14c-1.654 0-3 1.346-3 3v8c0 1.654 1.346 3 3 3h1v2h-4v35c0 1.654 1.346 3 3 3h19.101c.464 2.279 2.485 4 4.899 4s4.435-1.721 4.899-4h19.101c1.654 0 3-1.346 3-3v-27.279l.936.556 5.342-5.342-1.48-2.489c.147-.317.281-.638.4-.956zm-31-2.777h1v2.777l2.802.713c.119.318.252.639.4.956l-1.48 2.489 5.342 5.342 2.489-1.479c.317.147.637.281.956.4l.714 2.802h4.777v22h-20v-33c0-1.654 1.346-3 3-3zm-29-1v-8c0-.552.449-1 1-1h14c.551 0 1 .448 1 1v8c0 .552-.449 1-1 1h-3v3.586c0 .337-.468.531-.707.293l-3.879-3.879h-6.414c-.551 0-1-.448-1-1zm6.586 3 3.293 3.294c.45.448 1.072.706 1.707.706 1.331 0 2.414-1.083 2.414-2.414v-1.586h1c1.302 0 2.402-.839 2.816-2h3.184c1.654 0 3 1.346 3 3v33h-20v-34zm42.414 38h-21v1c0 1.654-1.346 3-3 3s-3-1.346-3-3v-1h-21c-.551 0-1-.448-1-1v-33h2v32h22 2 22v-24h.777l.713-2.802c.17-.064.34-.142.51-.214v28.016c0 .552-.449 1-1 1zm6.764-33.379-3.143 3.143-2.096-1.246-.493.256c-.558.288-1.124.525-1.683.704l-.528.168-.598 2.354h-4.445l-.599-2.354-.528-.168c-.559-.179-1.125-.416-1.683-.704l-.493-.256-2.096 1.246-3.143-3.143 1.246-2.095-.254-.492c-.289-.56-.525-1.126-.704-1.686l-.169-.528-2.355-.597v-4.445l2.354-.598.169-.528c.179-.56.415-1.126.704-1.686l.254-.492-1.246-2.095 3.143-3.143 2.096 1.246.493-.256c.558-.288 1.124-.525 1.683-.704l.528-.168.599-2.354h4.445l.599 2.354.528.168c.559.179 1.125.416 1.683.704l.493.256 2.096-1.246 3.143 3.143-1.246 2.095.254.492c.289.56.525 1.126.704 1.686l.169.528 2.355.597v4.445l-2.354.598-.169.528c-.179.56-.415 1.126-.704 1.686l-.254.492z"/><path d="m48 7c-4.962 0-9 4.037-9 9s4.038 9 9 9 9-4.037 9-9-4.038-9-9-9zm0 16c-3.86 0-7-3.141-7-7s3.14-7 7-7 7 3.141 7 7-3.14 7-7 7z"/><path d="m48 11c-2.757 0-5 2.243-5 5s2.243 5 5 5 5-2.243 5-5-2.243-5-5-5zm0 8c-1.654 0-3-1.346-3-3s1.346-3 3-3 3 1.346 3 3-1.346 3-3 3z"/><path d="m25 43c0-3.232-1.93-6.016-4.695-7.277 1.031-.917 1.695-2.238 1.695-3.723 0-2.757-2.243-5-5-5s-5 2.243-5 5c0 1.485.664 2.806 1.695 3.723-2.765 1.261-4.695 4.045-4.695 7.277v4h16zm-11-11c0-1.654 1.346-3 3-3s3 1.346 3 3-1.346 3-3 3-3-1.346-3-3zm9 13h-12v-2c0-3.309 2.691-6 6-6s6 2.691 6 6z"/><path d="m5 9h12v2h-12z"/><path d="m5 13h8v2h-8z"/><path d="m15 13h2v2h-2z"/><path d="m47 37h-16v10h16zm-2 8h-12v-6h12z"/><path d="m31 33h2v2h-2z"/><path d="m35 33h12v2h-12z"/><path d="m31 29h6v2h-6z"/><path d="m21 19h4v2h-4z"/><path d="m19 23h6v2h-6z"/><path d="m45 49h2v2h-2z"/><path d="m31 49h12v2h-12z"/><path d="m23 49h2v2h-2z"/><path d="m9 49h12v2h-12z"/></g></g></svg>