<?xml version="1.0"?>
<svg xmlns="http://www.w3.org/2000/svg" xmlns:xlink="http://www.w3.org/1999/xlink" xmlns:svgjs="http://svgjs.com/svgjs" version="1.1" width="512" height="512" x="0" y="0" viewBox="0 0 391.528 391.528" style="enable-background:new 0 0 512 512" xml:space="preserve" class=""><g>
<path xmlns="http://www.w3.org/2000/svg" style="" d="M336,154.94v88l55.528-21.104L314.584,28.588L0,154.94" fill="#356699" data-original="#6f9935"/>
<path xmlns="http://www.w3.org/2000/svg" style="" d="M352,236.86v-97.92H39.84L16,148.516v6.424h320v88L352,236.86z" fill="#32308b" data-original="#658b30" class=""/>
<path xmlns="http://www.w3.org/2000/svg" style="" d="M0,154.94h336v208H0V154.94z" fill="#1a50e9" data-original="#79a73a" class=""/>
<path xmlns="http://www.w3.org/2000/svg" style="" d="M32,224.62c18.102-5.416,32.264-19.578,37.68-37.68h196.64c5.415,18.103,19.577,32.265,37.68,37.68  v68.64c-18.103,5.415-32.265,19.577-37.68,37.68H72h-2.328c-5.414-18.1-19.573-32.262-37.672-37.68L32,224.62z" fill="#7dafda" data-original="#aac16b" class=""/>
<circle xmlns="http://www.w3.org/2000/svg" style="" cx="168" cy="258.94" r="40" fill="#1a50e9" data-original="#79a73a" class=""/>
<path xmlns="http://www.w3.org/2000/svg" style="" d="M330.456,154.94l-18.968-48.8l-0.864-2.152c-18.817,1.669-37.212-6.241-48.944-21.048l-2.144,0.864  L88,154.94H330.456z" fill="#7dafda" data-original="#aac16b" class=""/>
<path xmlns="http://www.w3.org/2000/svg" style="" d="M126.584,138.94L88,154.94h242.456l-6.216-16H126.584z" fill="#1713d8" data-original="#89b140" class=""/>
<g xmlns="http://www.w3.org/2000/svg">
	<circle style="" cx="80" cy="258.94" r="8" fill="#1a50e9" data-original="#79a73a" class=""/>
	<circle style="" cx="256" cy="258.94" r="8" fill="#1a50e9" data-original="#79a73a" class=""/>
</g>
<g xmlns="http://www.w3.org/2000/svg">
</g>
<g xmlns="http://www.w3.org/2000/svg">
</g>
<g xmlns="http://www.w3.org/2000/svg">
</g>
<g xmlns="http://www.w3.org/2000/svg">
</g>
<g xmlns="http://www.w3.org/2000/svg">
</g>
<g xmlns="http://www.w3.org/2000/svg">
</g>
<g xmlns="http://www.w3.org/2000/svg">
</g>
<g xmlns="http://www.w3.org/2000/svg">
</g>
<g xmlns="http://www.w3.org/2000/svg">
</g>
<g xmlns="http://www.w3.org/2000/svg">
</g>
<g xmlns="http://www.w3.org/2000/svg">
</g>
<g xmlns="http://www.w3.org/2000/svg">
</g>
<g xmlns="http://www.w3.org/2000/svg">
</g>
<g xmlns="http://www.w3.org/2000/svg">
</g>
<g xmlns="http://www.w3.org/2000/svg">
</g>
</g></svg>
