<?xml version="1.0" encoding="utf-8"?>
<!-- Generator: Adobe Illustrator 23.0.3, SVG Export Plug-In . SVG Version: 6.00 Build 0)  -->
<svg version="1.1" id="Capa_1" xmlns="http://www.w3.org/2000/svg" xmlns:xlink="http://www.w3.org/1999/xlink" x="0px" y="0px"
	 viewBox="0 0 511.6 511.6" style="enable-background:new 0 0 511.6 511.6;" xml:space="preserve">
<style type="text/css">
	.st0{fill:url(#SVGID_1_);}
</style>
<g>
	<linearGradient id="SVGID_1_" gradientUnits="userSpaceOnUse" x1="0" y1="255.8135" x2="511.627" y2="255.8135">
		<stop  offset="0" style="stop-color:#1245C6"/>
		<stop  offset="1" style="stop-color:#9909B7"/>
	</linearGradient>
	<path class="st0" d="M506.2,243l-73.1-73.1c-3.6-3.6-7.9-5.4-12.8-5.4c-4.9,0-9.2,1.8-12.8,5.4c-3.6,3.6-5.4,7.9-5.4,12.9v36.5
		H292.4V109.6h36.5c4.9,0,9.2-1.8,12.8-5.4c3.6-3.6,5.4-7.9,5.4-12.8c0-5-1.8-9.2-5.4-12.9L268.7,5.4C265,1.8,260.8,0,255.8,0
		c-5,0-9.2,1.8-12.9,5.4l-73.1,73.1c-3.6,3.6-5.4,7.9-5.4,12.9c0,4.9,1.8,9.2,5.4,12.8c3.6,3.6,7.9,5.4,12.9,5.4h36.5v109.6H109.6
		v-36.5c0-5-1.8-9.2-5.4-12.9c-3.6-3.6-7.9-5.4-12.8-5.4c-4.9,0-9.2,1.8-12.8,5.4L5.4,243c-3.6,3.6-5.4,7.9-5.4,12.8
		s1.8,9.2,5.4,12.8l73.1,73.1c3.6,3.6,7.9,5.4,12.8,5.4c5,0,9.2-1.8,12.8-5.4c3.6-3.6,5.4-7.9,5.4-12.8v-36.5h109.6V402h-36.5
		c-5,0-9.2,1.8-12.9,5.4c-3.6,3.6-5.4,7.9-5.4,12.8s1.8,9.2,5.4,12.9l73.1,73.1c3.6,3.6,7.9,5.4,12.9,5.4c4.9,0,9.2-1.8,12.8-5.4
		l73.1-73.1c3.6-3.6,5.4-7.9,5.4-12.9s-1.8-9.2-5.4-12.8c-3.6-3.6-7.9-5.4-12.8-5.4h-36.5V292.4H402v36.6c0,4.9,1.8,9.2,5.4,12.8
		c3.6,3.6,7.9,5.4,12.9,5.4c4.9,0,9.2-1.8,12.8-5.4l73.1-73.1c3.6-3.6,5.4-7.9,5.4-12.9S509.8,246.6,506.2,243z"/>
</g>
</svg>
