<?xml version="1.0"?>
<svg xmlns="http://www.w3.org/2000/svg" xmlns:xlink="http://www.w3.org/1999/xlink" xmlns:svgjs="http://svgjs.com/svgjs" version="1.1" width="512" height="512" x="0" y="0" viewBox="0 0 511.999 511.999" style="enable-background:new 0 0 512 512" xml:space="preserve" class=""><g>
<path xmlns="http://www.w3.org/2000/svg" style="" d="M454.516,236.265L82.152,3.538c-7.176-4.485-16.218-4.721-23.617-0.621  c-7.399,4.099-11.99,11.894-11.99,20.354v232.727v232.727c0,8.46,4.591,16.254,11.992,20.356c3.516,1.949,7.401,2.917,11.281,2.917  c4.287,0,8.567-1.184,12.335-3.537l372.364-232.726c6.805-4.253,10.938-11.711,10.938-19.735c0,0,0,0,0-0.002  C465.453,247.976,461.319,240.518,454.516,236.265z" fill="#126b94" data-original="#7bd9bf" class=""/>
<path xmlns="http://www.w3.org/2000/svg" style="" d="M58.537,509.082c3.516,1.949,7.401,2.917,11.281,2.917c4.287,0,8.567-1.184,12.335-3.537  l372.364-232.726c6.805-4.253,10.938-11.711,10.938-19.735v-0.002H46.545v232.727C46.545,497.187,51.136,504.98,58.537,509.082z" fill="#00608c" data-original="#66b4ba" class=""/>
<g xmlns="http://www.w3.org/2000/svg">
</g>
<g xmlns="http://www.w3.org/2000/svg">
</g>
<g xmlns="http://www.w3.org/2000/svg">
</g>
<g xmlns="http://www.w3.org/2000/svg">
</g>
<g xmlns="http://www.w3.org/2000/svg">
</g>
<g xmlns="http://www.w3.org/2000/svg">
</g>
<g xmlns="http://www.w3.org/2000/svg">
</g>
<g xmlns="http://www.w3.org/2000/svg">
</g>
<g xmlns="http://www.w3.org/2000/svg">
</g>
<g xmlns="http://www.w3.org/2000/svg">
</g>
<g xmlns="http://www.w3.org/2000/svg">
</g>
<g xmlns="http://www.w3.org/2000/svg">
</g>
<g xmlns="http://www.w3.org/2000/svg">
</g>
<g xmlns="http://www.w3.org/2000/svg">
</g>
<g xmlns="http://www.w3.org/2000/svg">
</g>
</g></svg>
