<svg id="Capa_1" enable-background="new 0 0 511.938 511.938" height="512" viewBox="0 0 511.938 511.938" width="512" xmlns="http://www.w3.org/2000/svg"><g><path d="m119.969 421.875c-8.284 0-15-6.716-15-15v-70c0-8.284 6.716-15 15-15s15 6.716 15 15v70c0 8.284-6.716 15-15 15z" fill="#4e6ba6"/><path d="m391.969 421.875c-8.284 0-15-6.716-15-15v-70c0-8.284 6.716-15 15-15s15 6.716 15 15v70c0 8.284-6.716 15-15 15z" fill="#28487a"/><path d="m391.969 161.875h-121v-56.875c0-8.284-6.716-15-15-15s-15 6.716-15 15v56.875h-121c-8.284 0-15 6.716-15 15v70c0 8.284 6.716 15 15 15s15-6.716 15-15v-55h242v55c0 8.284 6.716 15 15 15s15-6.716 15-15v-70c0-8.284-6.716-15-15-15z" fill="#4e6ba6"/><path d="m391.969 161.875h-121v-56.875c0-8.284-6.716-15-15-15v101.875h121v55c0 8.284 6.716 15 15 15s15-6.716 15-15v-70c0-8.284-6.716-15-15-15z" fill="#28487a"/><path d="m194.969 391.938h-150c-8.284 0-15 6.716-15 15v90c0 8.284 6.716 15 15 15h150c8.284 0 15-6.716 15-15v-90c0-8.285-6.716-15-15-15z" fill="#00dd80"/><path d="m194.969 391.938h-75v120h75c8.284 0 15-6.716 15-15v-90c0-8.285-6.716-15-15-15z" fill="#00aa95"/><path d="m466.969 391.938h-150c-8.284 0-15 6.716-15 15v90c0 8.284 6.716 15 15 15h150c8.284 0 15-6.716 15-15v-90c0-8.285-6.716-15-15-15z" fill="#00dd80"/><path d="m466.969 391.938h-75v120h75c8.284 0 15-6.716 15-15v-90c0-8.285-6.716-15-15-15z" fill="#00aa95"/><path d="m180.969 120h150c8.284 0 15-6.716 15-15v-90c0-8.284-6.716-15-15-15h-150c-8.284 0-15 6.716-15 15v90c0 8.284 6.716 15 15 15z" fill="#f37"/><path d="m330.969 0h-75v120h75c8.284 0 15-6.716 15-15v-90c0-8.284-6.716-15-15-15z" fill="#cc295f"/><path d="m194.969 231.875h-150c-8.284 0-15 6.716-15 15v90c0 8.284 6.716 15 15 15h150c8.284 0 15-6.716 15-15v-90c0-8.284-6.716-15-15-15z" fill="#ffe470"/><path d="m194.969 231.875h-75v120h75c8.284 0 15-6.716 15-15v-90c0-8.284-6.716-15-15-15z" fill="#fabe2c"/><path d="m466.969 231.875h-150c-8.284 0-15 6.716-15 15v90c0 8.284 6.716 15 15 15h150c8.284 0 15-6.716 15-15v-90c0-8.284-6.716-15-15-15z" fill="#ffe470"/><path d="m466.969 231.875h-75v120h75c8.284 0 15-6.716 15-15v-90c0-8.284-6.716-15-15-15z" fill="#fabe2c"/></g></svg>