<?xml version="1.0"?>
<svg xmlns="http://www.w3.org/2000/svg" xmlns:xlink="http://www.w3.org/1999/xlink" xmlns:svgjs="http://svgjs.com/svgjs" version="1.1" width="512" height="512" x="0" y="0" viewBox="0 0 512.134 512.134" style="enable-background:new 0 0 512 512" xml:space="preserve" class=""><g transform="matrix(6.123233995736766e-17,1,-1,6.123233995736766e-17,512.134349822998,-0.000377655029296875)">
<rect xmlns="http://www.w3.org/2000/svg" x="333.082" y="340.365" transform="matrix(-0.7093 0.7049 -0.7049 -0.7093 883.2926 368.7331)" style="" width="65.066" height="52.266" fill="#62b6ff" data-original="#334a5e" class=""/>
<path xmlns="http://www.w3.org/2000/svg" style="" d="M359.334,61.734c-82.133-82.133-214.4-82.133-296.533-1.067s-82.133,214.4-1.067,296.533  s214.4,82.133,296.533,1.067S440.401,143.867,359.334,61.734z" fill="#59a0d4" data-original="#40596b" class=""/>
<path xmlns="http://www.w3.org/2000/svg" style="" d="M93.734,325.201c-64-64-64-168.533,1.067-232.533c64-64,168.533-64,232.533,1.067  c64,64,64,168.533-1.067,232.533C262.267,390.267,157.734,390.267,93.734,325.201z" fill="#f2f2f2" data-original="#f2f2f2" class=""/>
<path xmlns="http://www.w3.org/2000/svg" style="" d="M309.201,309.201c-54.4,53.333-144,53.333-197.333-1.067c-54.4-54.4-54.4-142.933,1.067-197.333  s141.867-54.4,196.267,0C363.601,166.267,363.601,254.801,309.201,309.201z" fill="#54c0eb" data-original="#54c0eb" class=""/>
<path xmlns="http://www.w3.org/2000/svg" style="" d="M275.067,275.067c-35.2,35.2-92.8,35.2-129.067,0c-35.2-35.2-35.2-92.8,0-129.067  c35.2-35.2,92.8-35.2,129.067,0C311.334,182.267,311.334,239.867,275.067,275.067z" fill="#59a0d4" data-original="#40596b" class=""/>
<path xmlns="http://www.w3.org/2000/svg" style="" d="M492.667,405.201l-66.133-66.133c-4.267-4.267-10.667-4.267-14.933,0l-73.6,73.6  c-4.267,4.267-4.267,10.667,0,14.933l66.133,66.133c24.533,24.533,64,24.533,88.533,0  C517.201,469.201,517.201,429.734,492.667,405.201z" fill="#61a1cf" data-original="#ff7058" class=""/>
<g xmlns="http://www.w3.org/2000/svg">
	<circle style="" cx="168.401" cy="149.201" r="28.8" fill="#ffffff" data-original="#ffffff" class=""/>
	<circle style="" cx="206.801" cy="186.534" r="17.067" fill="#ffffff" data-original="#ffffff" class=""/>
</g>
<g xmlns="http://www.w3.org/2000/svg">
</g>
<g xmlns="http://www.w3.org/2000/svg">
</g>
<g xmlns="http://www.w3.org/2000/svg">
</g>
<g xmlns="http://www.w3.org/2000/svg">
</g>
<g xmlns="http://www.w3.org/2000/svg">
</g>
<g xmlns="http://www.w3.org/2000/svg">
</g>
<g xmlns="http://www.w3.org/2000/svg">
</g>
<g xmlns="http://www.w3.org/2000/svg">
</g>
<g xmlns="http://www.w3.org/2000/svg">
</g>
<g xmlns="http://www.w3.org/2000/svg">
</g>
<g xmlns="http://www.w3.org/2000/svg">
</g>
<g xmlns="http://www.w3.org/2000/svg">
</g>
<g xmlns="http://www.w3.org/2000/svg">
</g>
<g xmlns="http://www.w3.org/2000/svg">
</g>
<g xmlns="http://www.w3.org/2000/svg">
</g>
</g></svg>
