<svg id="svg" version="1.1" xmlns="http://www.w3.org/2000/svg" xmlns:xlink="http://www.w3.org/1999/xlink" width="400" height="111.11111111111111" viewBox="0, 0, 400,111.11111111111111"><g id="svgg"><path id="path0" d="M61.583 22.328 C 53.364 27.568,53.990 26.989,54.953 28.466 C 55.294 28.989,55.650 29.543,55.745 29.698 C 55.839 29.853,56.348 30.667,56.875 31.507 C 57.402 32.347,57.833 33.088,57.833 33.154 C 57.833 33.220,58.246 33.867,58.750 34.591 C 60.151 36.603,60.152 36.599,56.877 38.643 C 54.999 39.815,54.620 39.733,53.847 37.986 C 53.662 37.568,53.280 36.935,52.997 36.580 C 52.715 36.225,52.211 35.480,51.877 34.926 C 51.543 34.371,51.228 33.879,51.177 33.833 C 51.052 33.722,50.692 33.145,50.553 32.833 C 50.491 32.696,50.396 32.546,50.340 32.500 C 50.284 32.454,49.990 32.023,49.685 31.542 C 49.074 30.576,48.760 30.471,48.035 30.990 C 47.787 31.167,46.533 31.974,45.250 32.782 C 41.220 35.320,39.349 36.576,39.257 36.803 C 39.208 36.924,39.605 37.711,40.138 38.553 C 40.671 39.395,41.482 40.683,41.940 41.417 C 43.333 43.645,43.694 44.204,45.185 46.435 C 45.975 47.617,47.169 49.483,47.838 50.583 C 48.508 51.683,49.104 52.621,49.163 52.667 C 49.222 52.712,49.638 53.350,50.087 54.083 C 50.537 54.817,50.948 55.454,51.001 55.500 C 51.054 55.546,51.319 55.939,51.591 56.375 C 52.081 57.163,52.478 57.350,52.882 56.985 C 52.993 56.884,53.833 56.327,54.750 55.747 C 56.576 54.590,62.384 50.943,62.917 50.619 C 63.100 50.508,63.288 50.377,63.333 50.328 C 63.379 50.279,63.829 49.981,64.333 49.667 C 64.837 49.352,65.287 49.050,65.333 48.995 C 65.379 48.941,66.302 48.338,67.384 47.656 C 68.466 46.975,70.378 45.759,71.634 44.956 C 72.889 44.152,74.048 43.450,74.208 43.394 C 74.369 43.339,74.500 43.237,74.500 43.167 C 74.500 43.096,74.631 42.995,74.792 42.941 C 75.091 42.841,75.684 42.489,75.833 42.325 C 75.879 42.274,76.190 42.066,76.525 41.863 C 77.354 41.360,77.404 41.113,76.844 40.290 C 76.579 39.901,75.784 38.683,75.075 37.583 C 74.367 36.483,73.470 35.096,73.081 34.500 C 70.999 31.310,69.295 28.594,69.126 28.198 C 69.021 27.952,68.822 27.615,68.684 27.450 C 68.546 27.285,68.449 26.908,68.469 26.613 C 68.498 26.183,68.190 25.598,66.919 23.671 C 66.047 22.348,65.333 21.217,65.333 21.158 C 65.333 20.997,64.746 20.499,64.570 20.511 C 64.486 20.516,63.142 21.334,61.583 22.328 M18.262 27.314 C 18.205 27.406,17.823 27.648,17.413 27.853 C 17.002 28.058,16.667 28.287,16.667 28.363 C 16.667 28.438,16.604 28.500,16.528 28.500 C 16.452 28.500,15.456 29.119,14.314 29.875 C 13.173 30.631,11.550 31.662,10.707 32.167 C 8.797 33.310,8.834 33.123,10.123 35.061 C 11.478 37.098,11.335 37.063,13.284 35.836 C 14.182 35.271,15.062 34.721,15.240 34.613 C 15.656 34.360,17.481 33.181,19.542 31.832 C 21.492 30.556,21.488 30.575,20.188 28.667 C 19.243 27.280,18.574 26.810,18.262 27.314 M132.000 34.167 C 131.771 34.240,131.302 34.308,130.958 34.317 C 130.615 34.326,130.333 34.391,130.333 34.462 C 130.333 34.533,130.070 34.733,129.747 34.907 C 129.422 35.082,128.921 35.599,128.622 36.069 L 128.083 36.917 128.083 48.083 C 128.083 59.786,128.138 60.667,128.865 60.667 C 128.939 60.667,129.000 60.779,129.000 60.917 C 129.000 61.054,129.112 61.167,129.250 61.167 C 129.387 61.167,129.500 61.225,129.500 61.295 C 129.500 62.299,136.261 62.941,139.000 62.197 C 140.808 61.706,142.167 60.614,142.167 59.651 C 142.167 59.487,142.242 59.307,142.333 59.250 C 142.439 59.184,142.500 56.969,142.500 53.153 L 142.500 47.160 139.208 47.205 L 135.917 47.250 135.868 48.917 C 135.798 51.320,135.804 51.333,136.970 51.333 C 138.340 51.333,138.334 51.321,138.328 54.408 C 138.322 57.398,138.265 57.570,137.155 57.958 C 135.789 58.436,133.244 58.132,132.631 57.417 C 132.368 57.111,132.344 56.353,132.340 48.250 L 132.335 39.417 132.735 38.917 L 133.135 38.417 135.320 38.417 L 137.504 38.417 137.913 38.917 C 138.289 39.377,138.322 39.559,138.327 41.208 L 138.333 43.000 140.417 43.000 L 142.500 43.000 142.500 40.093 C 142.500 38.494,142.433 37.145,142.352 37.095 C 142.270 37.044,142.155 36.810,142.096 36.574 C 141.831 35.517,140.516 34.544,138.917 34.222 C 137.807 33.998,132.654 33.957,132.000 34.167 M147.535 34.198 C 147.224 34.509,147.255 61.799,147.567 62.210 C 147.774 62.483,148.255 62.501,154.436 62.460 L 161.083 62.417 161.130 60.292 L 161.177 58.167 156.705 58.167 C 153.449 58.167,152.179 58.112,152.033 57.967 C 151.890 57.823,151.833 56.738,151.833 54.137 L 151.833 50.507 155.375 50.462 L 158.917 50.417 158.917 48.250 L 158.917 46.083 155.417 46.000 L 151.917 45.917 151.872 42.208 L 151.827 38.500 156.288 38.497 C 158.742 38.496,160.846 38.434,160.964 38.359 C 161.123 38.258,161.165 37.698,161.130 36.154 L 161.083 34.083 154.410 34.040 C 149.359 34.007,147.688 34.045,147.535 34.198 M169.583 34.223 C 169.033 34.319,168.484 34.496,168.363 34.615 C 168.242 34.735,168.067 34.833,167.975 34.833 C 167.719 34.833,166.893 35.716,166.761 36.131 C 166.697 36.334,166.582 36.500,166.506 36.500 C 166.234 36.500,166.130 37.991,166.061 42.833 L 165.992 47.750 166.390 48.208 C 166.609 48.460,166.932 48.667,167.107 48.667 C 167.282 48.667,167.574 48.769,167.755 48.894 C 167.935 49.019,168.308 49.160,168.583 49.208 C 169.040 49.288,169.706 49.501,170.583 49.849 C 170.767 49.921,171.160 50.028,171.458 50.087 C 171.756 50.145,172.000 50.254,172.000 50.328 C 172.000 50.403,172.244 50.500,172.542 50.544 C 173.117 50.630,173.806 50.863,174.958 51.362 L 175.667 51.668 175.667 54.079 C 175.667 57.530,175.265 58.167,173.088 58.167 C 170.948 58.167,170.513 57.685,170.506 55.311 C 170.500 53.616,170.484 53.534,170.125 53.438 C 169.633 53.306,166.859 53.309,166.363 53.441 L 165.977 53.545 166.057 55.981 C 166.208 60.561,166.660 61.340,169.681 62.227 C 171.519 62.766,177.347 62.447,177.639 61.792 C 177.669 61.723,177.782 61.664,177.889 61.661 C 178.260 61.649,178.985 60.912,179.408 60.116 L 179.833 59.316 179.833 53.866 L 179.833 48.416 179.125 48.041 C 178.735 47.835,178.262 47.666,178.074 47.666 C 177.885 47.666,177.585 47.557,177.407 47.422 C 177.229 47.287,176.882 47.175,176.635 47.172 C 176.388 47.169,176.146 47.102,176.097 47.022 C 176.048 46.942,175.706 46.829,175.337 46.770 C 174.968 46.711,174.667 46.589,174.667 46.498 C 174.667 46.407,174.482 46.333,174.256 46.333 C 174.030 46.333,173.598 46.227,173.297 46.097 C 172.996 45.967,172.300 45.731,171.750 45.571 C 170.448 45.195,170.505 45.356,170.503 42.071 C 170.499 38.472,170.523 38.433,172.797 38.429 C 175.372 38.424,175.667 38.731,175.667 41.422 L 175.667 43.000 177.750 43.000 L 179.833 43.000 179.833 40.099 C 179.833 34.941,178.771 34.010,172.917 34.037 C 171.633 34.043,170.133 34.127,169.583 34.223 M184.375 34.110 C 184.225 34.171,184.167 34.747,184.167 36.177 C 184.167 38.507,183.920 38.300,186.778 38.371 C 187.802 38.396,188.702 38.479,188.778 38.555 C 188.854 38.632,188.954 44.032,189.000 50.555 L 189.083 62.417 191.083 62.417 L 193.083 62.417 193.167 50.555 C 193.213 44.032,193.312 38.632,193.388 38.555 C 193.465 38.479,194.365 38.396,195.388 38.371 C 198.246 38.300,198.000 38.506,198.000 36.181 C 198.000 34.530,197.956 34.186,197.736 34.101 C 197.422 33.980,184.675 33.989,184.375 34.110 M202.200 34.200 C 201.892 34.508,201.923 61.801,202.232 62.208 C 202.506 62.569,205.953 62.647,206.300 62.300 C 206.590 62.010,206.590 34.490,206.300 34.200 C 206.168 34.068,205.467 34.000,204.250 34.000 C 203.033 34.000,202.332 34.068,202.200 34.200 M214.917 34.223 C 214.367 34.319,213.818 34.496,213.696 34.615 C 213.575 34.735,213.401 34.833,213.309 34.833 C 213.095 34.833,212.167 35.755,212.167 35.967 C 212.167 36.054,212.062 36.213,211.934 36.319 C 211.409 36.755,211.051 55.958,211.519 58.583 C 212.041 61.513,213.738 62.499,218.265 62.501 C 220.480 62.503,222.812 62.151,222.972 61.792 C 223.003 61.723,223.115 61.664,223.222 61.661 C 223.594 61.649,224.319 60.912,224.741 60.116 L 225.167 59.316 225.167 48.257 L 225.167 37.197 224.710 36.317 C 223.651 34.275,219.591 33.407,214.917 34.223 M230.208 34.249 C 229.893 34.608,229.916 61.792,230.232 62.208 C 230.506 62.569,233.953 62.647,234.300 62.300 C 234.450 62.150,234.500 60.222,234.500 54.647 C 234.500 50.548,234.546 47.075,234.601 46.930 C 234.767 46.498,235.132 46.631,235.250 47.165 C 235.310 47.439,235.428 47.706,235.513 47.758 C 235.597 47.810,235.669 48.017,235.672 48.218 C 235.675 48.419,235.787 48.729,235.922 48.907 C 236.057 49.085,236.167 49.441,236.167 49.699 C 236.167 49.956,236.242 50.167,236.333 50.167 C 236.425 50.167,236.500 50.287,236.500 50.433 C 236.500 50.580,236.600 50.936,236.723 51.225 C 237.067 52.037,237.358 52.875,237.456 53.333 C 237.505 53.563,237.599 53.825,237.664 53.917 C 237.730 54.008,237.917 54.496,238.080 55.000 C 238.242 55.504,238.478 56.116,238.604 56.359 C 238.730 56.602,238.833 56.954,238.833 57.141 C 238.833 57.328,238.908 57.527,239.000 57.583 C 239.092 57.640,239.167 57.813,239.168 57.968 C 239.168 58.123,239.281 58.465,239.418 58.727 C 239.555 58.990,239.669 59.327,239.672 59.477 C 239.675 59.627,239.787 59.896,239.922 60.074 C 240.057 60.251,240.167 60.566,240.167 60.772 C 240.167 60.978,240.242 61.193,240.333 61.250 C 240.425 61.307,240.500 61.487,240.500 61.651 C 240.500 62.345,241.009 62.515,242.936 62.464 L 244.750 62.417 244.796 48.583 C 244.821 40.975,244.801 34.581,244.751 34.375 C 244.645 33.936,241.116 33.784,240.700 34.200 C 240.550 34.350,240.500 36.316,240.500 42.023 C 240.500 46.505,240.437 49.686,240.346 49.742 C 240.119 49.883,239.593 49.044,239.255 48.000 C 239.092 47.496,238.855 46.884,238.729 46.641 C 238.603 46.398,238.500 46.046,238.500 45.859 C 238.500 45.672,238.425 45.473,238.333 45.417 C 238.242 45.360,238.166 45.187,238.166 45.032 C 238.165 44.877,238.053 44.535,237.916 44.273 C 237.779 44.010,237.667 43.668,237.667 43.513 C 237.667 43.357,237.557 43.085,237.422 42.907 C 237.287 42.729,237.175 42.419,237.172 42.218 C 237.169 42.017,237.092 41.807,237.000 41.750 C 236.908 41.693,236.833 41.520,236.832 41.365 C 236.832 41.210,236.719 40.869,236.582 40.606 C 236.445 40.343,236.331 39.968,236.328 39.773 C 236.325 39.577,236.213 39.271,236.078 39.093 C 235.943 38.915,235.833 38.633,235.833 38.466 C 235.833 38.299,235.767 38.032,235.687 37.873 C 235.319 37.146,235.000 36.297,234.995 36.036 C 234.992 35.879,234.879 35.604,234.745 35.426 C 234.610 35.249,234.500 34.957,234.500 34.778 C 234.500 34.029,230.804 33.573,230.208 34.249 M263.083 34.234 C 259.911 34.825,259.583 35.618,259.583 42.701 C 259.583 48.588,259.591 48.639,260.500 48.662 C 260.637 48.666,260.965 48.781,261.227 48.918 C 261.490 49.055,261.838 49.167,262.000 49.167 C 262.162 49.167,262.510 49.279,262.773 49.416 C 263.035 49.553,263.414 49.665,263.615 49.666 C 263.816 49.666,264.027 49.742,264.083 49.833 C 264.140 49.925,264.302 50.000,264.443 50.000 C 264.584 50.000,264.936 50.106,265.225 50.235 C 265.514 50.364,265.938 50.506,266.167 50.551 C 266.597 50.636,267.294 50.876,268.375 51.312 L 269.000 51.564 268.994 54.324 C 268.987 57.806,268.744 58.167,266.400 58.167 C 264.413 58.167,263.935 57.634,263.859 55.338 C 263.790 53.242,263.898 53.339,261.631 53.336 C 259.958 53.333,259.833 53.357,259.648 53.702 C 259.358 54.244,259.581 59.261,259.919 59.776 C 260.055 59.985,260.167 60.230,260.167 60.322 C 260.167 62.474,268.430 63.330,271.625 61.509 C 272.015 61.287,272.333 61.007,272.333 60.886 C 272.333 60.765,272.403 60.667,272.489 60.667 C 272.574 60.667,272.697 60.498,272.761 60.292 C 272.826 60.085,272.962 59.863,273.064 59.798 C 273.270 59.666,273.447 49.741,273.261 48.750 C 273.177 48.302,273.058 48.169,272.663 48.083 C 272.392 48.023,272.128 47.905,272.075 47.821 C 272.023 47.736,271.837 47.667,271.662 47.667 C 271.488 47.667,271.098 47.560,270.797 47.430 C 270.496 47.300,269.800 47.066,269.250 46.909 C 268.700 46.752,268.179 46.558,268.092 46.479 C 268.005 46.399,267.738 46.333,267.499 46.333 C 267.259 46.333,266.918 46.223,266.740 46.089 C 266.562 45.954,266.215 45.842,265.968 45.839 C 265.721 45.836,265.479 45.767,265.428 45.686 C 265.378 45.604,265.075 45.489,264.754 45.428 C 263.916 45.271,263.833 44.976,263.833 42.156 C 263.833 38.909,263.971 38.603,265.516 38.428 C 268.438 38.098,269.000 38.543,269.000 41.189 L 269.000 43.000 271.187 43.000 L 273.374 43.000 273.297 39.958 C 273.232 37.369,273.173 36.831,272.902 36.340 C 272.531 35.670,271.767 34.833,271.525 34.833 C 271.433 34.833,271.258 34.738,271.137 34.621 C 270.554 34.057,265.368 33.809,263.083 34.234 M281.917 34.229 C 280.449 34.505,278.833 35.632,278.833 36.380 C 278.833 36.503,278.723 36.749,278.589 36.926 C 278.152 37.504,278.220 58.701,278.662 59.700 C 279.603 61.828,281.168 62.491,285.250 62.491 C 289.698 62.491,291.301 61.631,292.026 58.855 C 292.448 57.237,292.481 39.329,292.065 37.761 C 291.422 35.339,290.712 34.634,288.500 34.226 C 287.147 33.977,283.249 33.978,281.917 34.229 M296.533 34.200 C 296.259 34.474,296.259 37.859,296.533 38.133 C 296.665 38.265,297.371 38.333,298.603 38.333 C 299.631 38.333,300.591 38.379,300.736 38.434 C 300.973 38.525,301.000 39.730,301.000 50.345 C 301.000 64.073,300.692 62.500,303.380 62.500 C 305.936 62.500,305.667 63.947,305.667 50.198 L 305.667 38.506 306.042 38.419 C 306.248 38.371,307.242 38.314,308.250 38.291 L 310.083 38.250 310.132 36.500 C 310.159 35.537,310.138 34.581,310.087 34.375 L 309.994 34.000 303.363 34.000 C 298.429 34.000,296.682 34.051,296.533 34.200 M317.917 34.235 C 316.443 34.511,314.833 35.631,314.833 36.380 C 314.833 36.503,314.723 36.749,314.589 36.926 C 314.182 37.464,314.216 58.704,314.625 59.609 C 315.630 61.833,317.131 62.488,321.239 62.496 C 326.892 62.506,328.398 61.081,328.296 55.815 L 328.250 53.417 326.167 53.417 L 324.083 53.417 323.993 55.167 C 323.859 57.769,323.511 58.158,321.312 58.164 C 318.611 58.171,318.665 58.378,318.675 48.105 C 318.684 38.199,318.605 38.670,320.293 38.444 C 323.248 38.047,323.978 38.607,323.992 41.280 C 324.003 43.299,324.040 43.335,326.137 43.328 C 328.440 43.320,328.365 43.423,328.285 40.392 C 328.144 35.057,326.971 34.009,321.167 34.037 C 319.929 34.043,318.467 34.132,317.917 34.235 M333.292 34.232 C 332.829 34.584,332.841 61.805,333.305 62.224 C 333.749 62.626,336.854 62.626,337.188 62.225 C 337.364 62.014,337.436 60.950,337.500 57.635 C 337.550 55.045,337.650 53.273,337.750 53.202 C 337.842 53.137,338.090 52.729,338.302 52.295 C 338.513 51.862,338.752 51.467,338.833 51.417 C 339.010 51.307,339.667 51.978,339.667 52.268 C 339.667 52.381,339.773 52.685,339.902 52.945 C 340.600 54.344,341.000 55.284,341.000 55.524 C 341.000 55.672,341.112 55.886,341.250 56.000 C 341.387 56.114,341.500 56.299,341.500 56.411 C 341.500 56.603,341.827 57.390,342.177 58.039 C 342.263 58.199,342.333 58.480,342.333 58.664 C 342.333 58.849,342.403 59.000,342.489 59.000 C 342.574 59.000,342.693 59.169,342.752 59.375 C 342.879 59.817,343.283 60.796,343.508 61.206 C 343.595 61.365,343.667 61.578,343.667 61.679 C 343.667 62.270,344.392 62.489,346.367 62.494 C 348.795 62.501,348.928 62.389,348.140 61.000 C 348.062 60.862,347.953 60.637,347.898 60.500 C 347.617 59.800,346.827 58.016,346.051 56.333 C 345.819 55.829,345.531 55.192,345.411 54.917 C 344.895 53.733,344.277 52.384,344.064 51.974 C 343.937 51.731,343.833 51.412,343.833 51.266 C 343.833 51.120,343.758 51.000,343.667 51.000 C 343.575 51.000,343.500 50.880,343.500 50.734 C 343.500 50.588,343.387 50.250,343.250 49.984 C 343.113 49.718,342.887 49.282,342.750 49.016 C 342.613 48.750,342.500 48.412,342.500 48.266 C 342.500 48.120,342.434 48.000,342.353 48.000 C 341.922 48.000,342.109 46.772,342.683 45.833 C 342.767 45.696,342.880 45.471,342.934 45.333 C 343.190 44.683,343.596 43.911,343.708 43.861 C 343.777 43.831,343.833 43.720,343.833 43.616 C 343.833 43.433,344.173 42.720,347.004 36.954 C 348.529 33.849,348.585 34.000,345.917 34.000 C 343.646 34.000,343.712 33.953,342.504 36.456 C 341.939 37.626,341.407 38.696,341.321 38.833 C 341.235 38.971,341.118 39.196,341.062 39.333 C 340.682 40.255,339.916 41.759,339.803 41.806 C 339.728 41.836,339.667 41.950,339.667 42.059 C 339.667 42.167,339.367 42.853,339.000 43.583 C 338.633 44.313,338.333 44.998,338.333 45.104 C 338.333 45.334,337.868 45.541,337.652 45.407 C 337.566 45.354,337.500 43.022,337.500 40.027 C 337.500 33.535,337.670 33.998,335.282 34.005 C 334.134 34.009,333.489 34.082,333.292 34.232 M220.044 38.375 C 221.077 38.952,221.000 38.154,221.000 48.264 L 221.000 57.477 220.458 57.864 C 219.988 58.199,219.718 58.250,218.417 58.250 C 217.115 58.250,216.845 58.199,216.375 57.864 L 215.833 57.477 215.836 48.280 C 215.837 43.222,215.894 39.001,215.961 38.901 C 216.397 38.250,219.180 37.892,220.044 38.375 M287.124 38.420 C 288.168 38.941,288.167 38.929,288.167 48.149 C 288.167 55.569,288.136 56.569,287.889 57.138 C 287.200 58.728,283.566 58.811,282.748 57.256 C 282.302 56.410,282.447 39.362,282.904 38.906 C 283.667 38.143,286.024 37.872,287.124 38.420 M127.278 79.444 C 127.217 79.506,127.167 81.006,127.167 82.778 L 127.167 86.000 128.907 86.000 C 129.864 86.000,130.690 85.931,130.742 85.846 C 130.794 85.762,131.043 85.647,131.294 85.592 C 132.409 85.346,132.616 83.961,131.667 83.103 C 130.885 82.397,130.863 82.295,131.417 81.932 C 131.891 81.621,132.019 80.329,131.616 79.926 C 131.171 79.481,127.634 79.089,127.278 79.444 M135.333 82.667 L 135.333 86.000 137.583 86.000 C 139.710 86.000,139.833 85.982,139.833 85.672 C 139.833 85.368,139.696 85.341,137.964 85.297 L 136.095 85.250 135.944 84.720 C 135.860 84.429,135.842 83.922,135.903 83.595 L 136.015 83.000 137.674 83.000 C 139.222 83.000,139.333 82.978,139.333 82.667 C 139.333 82.358,139.222 82.333,137.845 82.333 C 136.111 82.333,135.833 82.171,135.833 81.155 C 135.833 80.041,136.199 79.833,138.167 79.833 C 139.537 79.833,139.833 79.789,139.833 79.583 C 139.833 79.373,139.472 79.333,137.583 79.333 L 135.333 79.333 135.333 82.667 M144.083 79.534 C 142.127 80.218,142.453 82.110,144.639 82.766 C 146.416 83.299,146.945 84.104,146.059 84.925 C 145.488 85.454,144.679 85.452,143.589 84.918 C 142.972 84.615,142.729 84.564,142.634 84.715 C 142.422 85.047,142.472 85.116,143.125 85.406 C 143.469 85.558,143.880 85.754,144.039 85.841 C 144.424 86.052,146.000 86.046,146.000 85.833 C 146.000 85.742,146.116 85.667,146.258 85.667 C 147.120 85.667,147.722 83.720,147.042 83.134 C 146.667 82.811,145.682 82.333,145.390 82.333 C 144.554 82.333,143.661 81.440,143.795 80.738 C 143.871 80.339,145.007 79.715,145.313 79.904 C 146.038 80.352,147.000 80.462,147.000 80.096 C 147.000 79.499,145.184 79.150,144.083 79.534 M149.833 79.583 C 149.653 79.800,149.748 79.833,150.557 79.833 C 151.808 79.833,151.833 79.900,151.833 83.239 L 151.833 86.000 152.250 86.000 L 152.667 86.000 152.667 83.117 C 152.667 79.816,152.660 79.833,153.970 79.833 C 154.755 79.833,154.847 79.800,154.667 79.583 C 154.501 79.384,154.010 79.333,152.250 79.333 C 150.490 79.333,149.999 79.384,149.833 79.583 M162.220 79.566 C 160.732 80.108,160.686 82.500,162.164 82.500 C 162.338 82.500,162.522 82.567,162.572 82.648 C 162.622 82.730,162.870 82.846,163.123 82.908 C 164.758 83.302,165.255 84.228,164.268 85.038 C 163.884 85.352,162.587 85.443,162.417 85.167 C 162.360 85.075,162.173 85.000,162.002 85.000 C 161.831 85.000,161.571 84.880,161.424 84.733 C 161.211 84.520,161.108 84.508,160.912 84.671 C 160.543 84.977,160.607 85.102,161.292 85.406 C 161.635 85.558,162.047 85.754,162.206 85.841 C 163.457 86.527,165.649 85.457,165.661 84.154 C 165.668 83.383,164.460 82.333,163.565 82.333 C 163.108 82.333,162.159 81.734,162.067 81.388 C 161.757 80.226,162.719 79.652,164.160 80.138 C 165.151 80.473,165.153 80.473,165.258 80.141 C 165.384 79.743,165.438 79.784,164.456 79.535 C 163.514 79.296,162.939 79.304,162.220 79.566 M170.577 79.558 C 168.201 80.236,167.378 82.997,169.000 84.849 C 169.729 85.682,172.241 86.387,172.572 85.852 C 172.622 85.770,172.853 85.656,173.084 85.598 C 174.556 85.229,175.766 82.010,174.750 81.167 C 174.612 81.053,174.498 80.875,174.496 80.771 C 174.491 80.460,173.303 79.731,172.468 79.526 C 171.557 79.302,171.470 79.303,170.577 79.558 M178.208 79.453 C 178.051 79.509,178.000 80.326,178.000 82.764 L 178.000 86.000 179.833 86.000 C 181.556 86.000,181.667 85.980,181.667 85.667 C 181.667 85.361,181.556 85.333,180.339 85.333 C 178.640 85.333,178.667 85.384,178.667 82.104 C 178.667 79.560,178.622 79.304,178.208 79.453 M184.601 79.597 C 184.380 80.174,184.495 84.022,184.750 84.559 C 185.476 86.089,188.064 86.447,189.329 85.193 C 190.225 84.305,190.579 79.333,189.747 79.333 C 189.542 79.333,189.500 79.690,189.500 81.433 C 189.500 84.437,188.973 85.340,187.224 85.328 C 185.559 85.317,185.169 84.615,185.168 81.625 C 185.167 79.398,184.961 78.660,184.601 79.597 M192.667 79.579 C 192.667 79.775,192.869 79.833,193.550 79.833 C 194.838 79.833,194.833 79.822,194.833 83.117 C 194.833 85.889,194.846 86.000,195.167 86.000 C 195.487 86.000,195.500 85.889,195.500 83.176 C 195.500 79.946,195.550 79.833,196.968 79.833 C 197.475 79.833,197.674 79.770,197.625 79.625 C 197.512 79.284,192.667 79.239,192.667 79.579 M200.601 79.597 C 200.295 80.396,200.498 86.000,200.833 86.000 C 201.156 86.000,201.167 85.889,201.167 82.667 C 201.167 79.411,201.006 78.541,200.601 79.597 M206.679 79.550 C 205.836 79.752,204.500 80.936,204.500 81.480 C 204.500 81.664,204.425 81.860,204.333 81.917 C 204.242 81.973,204.167 82.311,204.167 82.667 C 204.167 83.023,204.242 83.360,204.333 83.417 C 204.425 83.473,204.500 83.633,204.500 83.771 C 204.500 84.235,205.332 85.118,206.185 85.561 C 209.498 87.280,212.833 83.101,210.260 80.454 C 209.299 79.465,208.196 79.187,206.679 79.550 M214.208 79.458 C 213.799 79.596,213.921 86.000,214.333 86.000 C 214.651 86.000,214.667 85.889,214.667 83.686 C 214.667 80.993,214.886 80.622,215.776 81.809 C 216.027 82.143,216.278 82.454,216.333 82.500 C 216.389 82.546,216.605 82.865,216.814 83.208 C 217.023 83.552,217.263 83.833,217.347 83.833 C 217.431 83.833,217.500 83.912,217.500 84.007 C 217.500 84.103,217.688 84.383,217.917 84.631 C 218.146 84.878,218.333 85.137,218.333 85.207 C 218.333 85.464,219.011 86.000,219.337 86.000 C 219.665 86.000,219.673 85.915,219.629 82.792 C 219.585 79.710,219.570 79.583,219.250 79.583 C 218.936 79.583,218.914 79.710,218.870 81.792 C 218.812 84.562,218.692 84.611,217.172 82.490 C 216.580 81.663,215.974 80.856,215.826 80.697 C 215.678 80.538,215.428 80.212,215.271 79.971 C 214.978 79.525,214.580 79.333,214.208 79.458 M227.278 79.444 C 226.952 79.770,227.163 86.000,227.500 86.000 C 227.803 86.000,227.833 85.889,227.833 84.764 C 227.833 82.950,227.786 83.000,229.530 83.000 C 230.863 83.000,231.018 82.969,230.969 82.708 C 230.922 82.464,230.670 82.403,229.415 82.333 L 227.917 82.250 227.866 81.278 C 227.795 79.911,227.898 79.833,229.770 79.833 C 231.215 79.833,231.712 79.681,231.070 79.434 C 230.711 79.297,227.417 79.306,227.278 79.444 M235.910 79.558 C 233.534 80.236,232.711 82.997,234.333 84.849 C 235.062 85.682,237.575 86.387,237.905 85.852 C 237.956 85.770,238.186 85.656,238.418 85.598 C 239.889 85.229,241.099 82.010,240.083 81.167 C 239.946 81.053,239.832 80.875,239.830 80.771 C 239.824 80.460,238.636 79.731,237.801 79.526 C 236.891 79.302,236.803 79.303,235.910 79.558 M243.542 79.444 C 243.133 79.609,243.254 86.000,243.667 86.000 C 243.954 86.000,244.000 85.889,244.000 85.199 C 244.000 83.996,244.214 83.805,245.491 83.866 L 246.557 83.917 246.970 84.667 C 247.197 85.079,247.447 85.442,247.525 85.472 C 247.603 85.503,247.667 85.634,247.667 85.764 C 247.667 85.908,247.838 86.000,248.104 86.000 C 248.526 86.000,248.532 85.988,248.269 85.625 C 248.119 85.419,247.927 85.089,247.842 84.891 C 247.757 84.694,247.608 84.483,247.510 84.423 C 247.165 84.210,247.340 83.602,247.875 83.155 C 248.612 82.540,248.684 80.590,247.991 80.023 C 247.364 79.511,244.348 79.118,243.542 79.444 M259.565 79.792 C 259.277 80.223,258.880 80.911,258.406 81.806 C 258.207 82.182,257.529 82.762,257.430 82.642 C 257.404 82.610,257.165 82.210,256.899 81.753 C 256.634 81.297,256.326 80.772,256.215 80.587 C 256.104 80.402,255.959 80.137,255.894 80.000 C 255.765 79.731,255.494 79.507,255.292 79.503 C 255.059 79.498,255.165 79.945,255.572 80.682 C 256.385 82.158,256.629 82.596,256.977 83.213 C 257.239 83.677,257.333 84.129,257.333 84.922 C 257.333 86.732,257.942 86.502,258.026 84.660 C 258.059 83.922,258.162 83.266,258.254 83.201 C 258.346 83.136,258.664 82.614,258.960 82.040 C 259.686 80.634,259.877 80.299,260.141 79.969 C 260.360 79.695,260.285 79.333,260.009 79.333 C 259.934 79.333,259.734 79.540,259.565 79.792 M265.000 79.548 C 264.474 79.671,264.026 79.944,263.500 80.465 L 262.750 81.206 262.750 82.574 C 262.750 86.435,267.745 87.302,269.331 83.717 C 270.082 82.018,268.947 80.003,266.968 79.523 C 266.081 79.308,266.028 79.309,265.000 79.548 M272.487 79.599 C 272.336 79.781,272.309 80.441,272.386 82.125 C 272.498 84.616,272.637 85.003,273.600 85.500 C 273.866 85.638,274.108 85.806,274.139 85.875 C 274.494 86.673,277.642 85.416,277.661 84.468 C 277.664 84.313,277.742 84.140,277.833 84.083 C 278.114 83.910,278.051 79.333,277.768 79.333 C 277.406 79.333,277.333 79.724,277.333 81.660 C 277.333 84.985,275.659 86.459,273.780 84.787 L 273.167 84.242 273.167 81.889 C 273.167 79.466,273.017 78.961,272.487 79.599 M281.500 82.667 C 281.500 85.889,281.511 86.000,281.833 86.000 C 282.132 86.000,282.167 85.889,282.167 84.917 L 282.167 83.833 283.265 83.833 C 284.332 83.833,284.972 84.161,284.994 84.719 C 285.008 85.041,285.900 86.000,286.186 86.000 C 286.493 86.000,286.624 85.749,286.375 85.639 C 286.154 85.541,285.333 84.183,285.333 83.915 C 285.333 83.772,285.596 83.393,285.917 83.072 C 286.441 82.548,286.500 82.397,286.500 81.576 C 286.500 79.925,285.452 79.333,282.528 79.333 L 281.500 79.333 281.500 82.667 M293.708 79.444 C 293.552 79.507,293.500 80.331,293.500 82.764 L 293.500 86.000 295.219 86.000 C 298.398 86.000,299.792 84.486,298.076 82.896 C 297.570 82.426,297.570 82.347,298.086 81.858 C 298.597 81.373,298.645 80.478,298.184 80.018 C 297.656 79.490,294.574 79.094,293.708 79.444 M301.934 79.597 C 301.713 80.174,301.828 84.022,302.083 84.559 C 302.809 86.089,305.398 86.447,306.662 85.193 C 307.558 84.305,307.913 79.333,307.080 79.333 C 306.875 79.333,306.833 79.690,306.833 81.433 C 306.833 84.437,306.306 85.340,304.558 85.328 C 302.892 85.317,302.503 84.615,302.501 81.625 C 302.500 79.398,302.294 78.660,301.934 79.597 M311.833 79.551 C 310.560 79.951,310.232 81.783,311.333 82.345 C 311.941 82.655,312.819 83.001,313.025 83.012 C 313.588 83.043,314.251 83.618,314.301 84.119 C 314.412 85.240,312.827 85.675,311.401 84.917 C 310.461 84.417,310.333 84.405,310.333 84.814 C 310.333 86.010,313.612 86.294,314.803 85.201 C 315.230 84.810,315.133 83.375,314.657 83.038 C 313.973 82.553,313.480 82.333,313.076 82.333 C 312.864 82.333,312.588 82.240,312.463 82.125 C 312.338 82.010,312.089 81.834,311.910 81.733 C 310.608 81.001,312.077 79.563,313.600 80.080 C 314.597 80.419,315.039 80.410,314.970 80.053 C 314.865 79.505,312.952 79.199,311.833 79.551 M318.448 79.441 C 318.117 79.772,318.328 86.000,318.670 86.000 C 318.998 86.000,319.006 85.915,318.962 82.722 C 318.919 79.636,318.829 79.060,318.448 79.441 M322.625 79.513 C 322.363 79.666,322.333 80.009,322.333 82.842 L 322.333 86.000 322.750 86.000 L 323.167 86.000 323.167 83.686 C 323.167 81.546,323.191 81.366,323.486 81.289 C 323.828 81.199,324.167 81.438,324.167 81.769 C 324.167 81.881,324.230 81.997,324.307 82.028 C 324.384 82.058,324.789 82.549,325.206 83.119 C 325.623 83.689,326.085 84.276,326.233 84.424 C 326.381 84.572,326.583 84.843,326.681 85.026 C 326.996 85.616,327.400 86.000,327.704 86.000 C 328.007 86.000,328.185 79.740,327.890 79.446 C 327.505 79.061,327.333 79.802,327.333 81.854 C 327.333 84.371,327.144 84.590,326.159 83.208 C 325.849 82.773,325.518 82.332,325.423 82.229 C 325.328 82.125,325.137 81.872,325.000 81.667 C 324.862 81.461,324.656 81.195,324.542 81.075 C 324.427 80.955,324.333 80.811,324.333 80.755 C 324.333 80.648,323.066 79.330,322.971 79.338 C 322.941 79.341,322.785 79.420,322.625 79.513 M331.778 79.444 C 331.717 79.506,331.667 81.006,331.667 82.778 L 331.667 86.000 334.000 86.000 C 336.210 86.000,336.333 85.983,336.333 85.672 C 336.333 85.367,336.196 85.341,334.375 85.297 L 332.417 85.250 332.417 84.167 L 332.417 83.083 333.583 83.043 C 336.445 82.943,336.859 82.374,334.125 82.297 L 332.417 82.250 332.366 81.255 C 332.297 79.925,332.438 79.833,334.552 79.833 C 336.005 79.833,336.182 79.803,336.000 79.583 C 335.784 79.323,332.023 79.199,331.778 79.444 M340.313 79.545 C 338.485 80.059,338.870 82.104,340.917 82.754 C 342.800 83.352,343.397 84.226,342.458 85.009 C 341.874 85.497,339.500 85.204,339.500 84.644 C 339.500 84.565,339.350 84.500,339.167 84.500 C 338.574 84.500,338.767 85.099,339.458 85.406 C 339.802 85.558,340.214 85.754,340.373 85.841 C 341.176 86.281,343.268 85.701,343.455 84.987 C 343.501 84.811,343.605 84.667,343.686 84.667 C 343.933 84.667,343.850 83.848,343.559 83.403 C 343.287 82.987,342.152 82.333,341.703 82.333 C 340.282 82.333,339.535 80.744,340.681 80.159 L 341.361 79.812 342.347 80.145 C 342.890 80.328,343.345 80.408,343.358 80.322 C 343.372 80.237,343.391 80.081,343.400 79.977 C 343.442 79.502,341.454 79.224,340.313 79.545 M347.833 79.551 C 346.560 79.951,346.232 81.783,347.333 82.345 C 347.941 82.655,348.819 83.001,349.025 83.012 C 349.588 83.043,350.251 83.618,350.301 84.119 C 350.412 85.240,348.827 85.675,347.401 84.917 C 346.461 84.417,346.333 84.405,346.333 84.814 C 346.333 86.010,349.612 86.294,350.803 85.201 C 351.230 84.810,351.133 83.375,350.657 83.038 C 349.973 82.553,349.480 82.333,349.076 82.333 C 348.864 82.333,348.588 82.240,348.463 82.125 C 348.338 82.010,348.089 81.834,347.910 81.733 C 346.608 81.001,348.077 79.563,349.600 80.080 C 350.597 80.419,351.039 80.410,350.970 80.053 C 350.865 79.505,348.952 79.199,347.833 79.551 M130.507 80.170 C 132.064 80.964,131.123 82.382,129.094 82.298 L 127.917 82.250 127.866 81.278 C 127.789 79.778,128.859 79.329,130.507 80.170 M172.528 80.159 C 173.822 80.743,174.333 81.430,174.333 82.586 C 174.333 85.481,170.426 86.402,169.171 83.803 C 168.098 81.582,170.325 79.165,172.528 80.159 M208.717 80.152 C 211.379 81.293,210.649 85.333,207.781 85.333 C 204.815 85.333,203.960 81.538,206.632 80.229 C 207.594 79.757,207.778 79.750,208.717 80.152 M237.861 80.159 C 239.155 80.743,239.667 81.430,239.667 82.586 C 239.667 85.481,235.760 86.402,234.504 83.803 C 233.431 81.582,235.658 79.165,237.861 80.159 M246.725 80.101 C 248.906 80.844,248.101 83.150,245.658 83.161 C 244.106 83.168,244.000 83.072,244.000 81.670 C 244.000 79.837,244.726 79.419,246.725 80.101 M266.922 80.096 C 269.123 81.016,269.397 83.810,267.402 84.987 C 264.846 86.495,261.910 82.901,264.048 80.881 C 265.113 79.874,265.886 79.663,266.922 80.096 M284.670 80.084 C 286.935 80.884,286.114 83.167,283.561 83.167 L 282.167 83.167 282.167 81.675 C 282.167 79.761,282.733 79.401,284.670 80.084 M296.886 80.020 C 298.487 80.838,297.951 82.195,295.983 82.306 C 294.550 82.387,294.333 82.236,294.333 81.158 C 294.333 79.927,295.601 79.362,296.886 80.020 M68.333 80.663 C 68.104 80.739,67.504 80.925,67.000 81.078 C 56.396 84.288,60.084 100.656,71.250 99.941 C 82.297 99.234,83.738 83.514,73.008 80.765 C 71.910 80.484,69.067 80.422,68.333 80.663 M130.485 82.979 C 132.483 83.538,131.428 85.390,129.163 85.300 L 127.917 85.250 127.866 84.182 C 127.831 83.440,127.882 83.072,128.033 82.976 C 128.287 82.815,129.905 82.817,130.485 82.979 M297.667 83.334 C 298.584 84.392,297.718 85.333,295.827 85.333 C 294.362 85.333,294.333 85.308,294.333 83.995 C 294.333 82.946,294.564 82.803,296.125 82.886 C 297.133 82.939,297.390 83.014,297.667 83.334 M71.846 86.357 C 75.287 87.388,75.242 93.017,71.785 93.884 C 71.491 93.958,71.075 94.062,70.861 94.115 C 70.013 94.324,68.178 93.532,67.525 92.676 C 66.524 91.361,66.229 89.939,66.751 88.939 C 66.888 88.677,67.001 88.377,67.003 88.273 C 67.005 88.074,67.710 87.245,68.207 86.856 C 69.013 86.224,70.653 85.999,71.846 86.357 " stroke="none" fill="#4c4d5c" fill-rule="evenodd"/><path id="path1" d="M68.417 15.670 C 66.996 15.813,64.705 16.128,64.250 16.243 C 64.067 16.289,63.242 16.483,62.417 16.673 C 61.592 16.864,60.692 17.090,60.417 17.177 C 58.276 17.855,57.520 18.129,55.756 18.865 C 49.149 21.623,42.993 26.183,38.724 31.483 C 36.767 33.912,36.820 33.700,37.778 35.219 C 38.887 36.976,38.290 37.140,43.750 33.583 C 44.942 32.807,46.592 31.752,47.417 31.239 C 50.867 29.094,53.883 27.179,55.513 26.099 C 56.468 25.466,57.737 24.634,58.333 24.249 C 58.929 23.865,60.279 22.992,61.333 22.309 C 65.065 19.894,64.610 19.929,65.958 21.949 C 68.094 25.150,68.744 26.338,68.538 26.667 C 68.385 26.912,68.412 27.055,68.674 27.388 C 68.854 27.617,70.623 30.341,72.607 33.443 C 74.590 36.545,76.516 39.552,76.887 40.125 C 77.637 41.283,77.804 41.344,78.658 40.766 C 82.497 38.171,85.584 36.377,86.448 36.239 C 88.187 35.961,89.083 36.665,91.178 39.959 C 91.951 41.175,93.033 42.868,93.583 43.722 C 94.133 44.577,95.703 47.032,97.071 49.180 C 98.439 51.327,100.249 54.133,101.093 55.417 C 106.036 62.934,106.277 63.544,105.001 65.306 C 104.630 65.817,101.861 67.852,101.265 68.050 C 101.170 68.082,101.195 68.514,101.327 69.136 C 101.741 71.086,101.194 72.823,99.874 73.753 C 99.311 74.149,95.969 76.324,92.917 78.281 C 92.275 78.693,91.225 79.369,90.583 79.783 C 89.942 80.198,88.029 81.409,86.333 82.474 C 79.553 86.734,80.088 86.168,80.483 88.667 C 81.777 96.841,73.133 102.770,65.610 98.867 C 60.416 96.174,58.912 88.989,62.508 84.056 C 63.508 82.685,63.611 83.198,61.755 80.333 C 60.894 79.004,59.790 77.292,59.303 76.528 C 58.816 75.765,58.229 74.849,58.000 74.492 C 57.771 74.136,56.351 71.911,54.844 69.547 C 53.338 67.184,51.490 64.313,50.739 63.167 C 49.218 60.848,46.504 56.631,44.573 53.583 C 43.875 52.483,42.718 50.683,42.000 49.583 C 40.709 47.606,39.339 45.462,36.674 41.250 C 34.655 38.060,34.505 37.878,34.203 38.268 C 33.864 38.708,32.000 42.607,32.000 42.878 C 32.000 43.000,31.933 43.171,31.851 43.258 C 30.626 44.564,28.968 53.675,28.971 59.083 C 28.974 64.523,30.627 73.603,31.851 74.908 C 31.933 74.995,32.000 75.163,32.000 75.281 C 32.000 75.399,32.363 76.265,32.806 77.206 C 38.027 88.295,47.047 96.418,58.500 100.348 C 60.898 101.171,62.641 101.626,64.750 101.978 C 65.300 102.070,66.313 102.244,67.000 102.364 C 69.243 102.757,342.101 102.681,346.083 102.286 C 350.737 101.825,353.524 101.251,357.583 99.918 C 359.928 99.149,363.268 97.585,365.545 96.191 C 366.165 95.811,366.713 95.500,366.763 95.500 C 366.947 95.500,370.633 92.596,372.193 91.221 C 373.957 89.667,377.333 86.079,377.333 85.758 C 377.333 85.695,377.427 85.538,377.542 85.411 C 378.029 84.868,378.167 84.672,378.167 84.525 C 378.167 84.439,378.279 84.326,378.417 84.273 C 378.554 84.220,378.667 84.097,378.667 83.998 C 378.667 83.899,378.854 83.617,379.083 83.369 C 379.526 82.892,379.606 82.667,379.333 82.667 C 379.242 82.667,379.167 82.779,379.167 82.917 C 379.167 83.054,379.054 83.167,378.917 83.167 C 378.779 83.167,378.667 83.247,378.667 83.345 C 378.667 83.443,378.573 83.628,378.458 83.756 C 378.017 84.248,377.833 84.489,377.833 84.576 C 377.833 84.626,377.702 84.806,377.542 84.977 C 377.381 85.148,376.688 85.914,376.000 86.679 C 374.542 88.302,373.645 89.220,372.833 89.919 C 370.484 91.944,369.800 92.506,369.467 92.685 C 369.257 92.796,368.598 93.240,368.001 93.671 C 367.405 94.102,366.467 94.701,365.917 95.003 C 365.367 95.305,364.654 95.711,364.333 95.905 C 363.702 96.286,362.731 96.762,361.417 97.332 C 360.958 97.531,360.456 97.761,360.301 97.843 C 360.015 97.993,358.213 98.650,356.833 99.107 C 355.989 99.386,353.305 100.102,352.167 100.352 C 348.627 101.128,356.698 101.087,216.299 101.036 C 104.243 100.995,85.694 100.955,85.771 100.754 C 85.821 100.626,86.089 100.470,86.367 100.409 C 89.188 99.790,95.880 96.179,99.468 93.341 C 124.256 73.736,120.700 35.175,92.750 20.483 C 90.451 19.275,85.642 17.333,84.947 17.333 C 84.821 17.333,84.545 17.183,84.333 17.000 L 83.949 16.667 212.099 16.627 C 282.582 16.605,340.925 16.588,341.750 16.589 C 350.087 16.600,359.514 18.993,365.250 22.553 C 368.612 24.640,372.553 27.678,374.500 29.682 C 376.168 31.399,377.832 33.282,377.837 33.457 C 377.844 33.750,379.000 34.908,379.000 34.623 C 379.000 34.464,378.925 34.333,378.833 34.333 C 378.742 34.333,378.665 34.240,378.662 34.125 C 378.659 34.010,378.434 33.698,378.162 33.431 C 377.890 33.163,377.667 32.883,377.667 32.807 C 377.667 32.652,377.513 32.457,376.004 30.684 C 371.771 25.715,364.046 20.192,359.187 18.660 C 358.947 18.584,358.113 18.283,357.333 17.991 C 354.635 16.978,352.312 16.440,348.167 15.869 C 346.132 15.588,71.168 15.392,68.417 15.670 M74.163 47.965 C 69.048 51.244,66.716 52.785,66.613 52.952 C 66.393 53.308,68.037 55.500,68.522 55.500 C 68.774 55.500,69.022 55.433,69.073 55.350 C 69.124 55.268,70.197 54.552,71.458 53.760 C 72.718 52.968,74.425 51.874,75.250 51.329 C 76.075 50.785,76.865 50.282,77.006 50.211 C 77.612 49.908,79.163 48.735,79.165 48.579 C 79.168 48.266,77.724 46.084,77.481 46.037 C 77.350 46.011,75.857 46.879,74.163 47.965 M75.599 55.208 C 75.568 55.323,75.463 55.792,75.366 56.250 C 75.270 56.708,75.147 57.285,75.095 57.531 C 74.977 58.080,75.203 58.249,75.670 57.964 C 76.087 57.709,76.079 57.701,77.943 60.626 C 79.685 63.362,79.618 63.307,80.549 62.761 C 81.792 62.033,81.829 62.202,79.700 58.858 L 78.282 56.632 78.560 56.161 C 78.888 55.606,78.858 55.581,77.479 55.255 C 76.177 54.949,75.674 54.936,75.599 55.208 " stroke="none" fill="#fba307" fill-rule="evenodd"/><path id="path3" d="M62.750 21.407 C 61.833 21.996,60.461 22.871,59.700 23.352 C 58.939 23.833,58.275 24.293,58.224 24.375 C 58.130 24.528,59.576 23.645,62.699 21.643 C 64.701 20.359,64.600 20.395,65.070 20.792 C 65.416 21.083,65.416 21.083,65.099 20.708 C 64.661 20.191,64.627 20.201,62.750 21.407 M65.361 21.292 C 65.512 21.630,67.028 23.833,67.111 23.833 C 67.205 23.833,67.101 23.661,66.031 22.042 C 65.530 21.284,65.186 20.899,65.361 21.292 M24.667 24.515 C 23.878 24.645,22.088 25.372,21.833 25.665 C 21.354 26.217,19.939 26.859,19.418 26.761 C 19.079 26.698,18.681 26.734,18.461 26.849 C 17.697 27.246,12.297 30.641,9.460 32.507 C 8.590 33.079,8.646 33.429,9.925 35.437 C 11.441 37.814,10.935 37.861,15.417 34.921 C 16.700 34.080,17.862 33.338,18.000 33.273 C 18.951 32.825,21.285 31.138,21.458 30.773 C 21.573 30.531,21.763 30.128,21.880 29.877 C 21.997 29.627,22.241 29.343,22.422 29.247 C 22.602 29.151,23.178 28.794,23.700 28.453 C 24.223 28.112,24.809 27.833,25.003 27.833 C 25.197 27.833,25.506 27.753,25.690 27.654 C 26.489 27.227,28.919 28.311,29.590 29.395 C 29.768 29.682,30.064 30.154,30.248 30.444 C 30.433 30.734,31.365 32.234,32.320 33.777 C 33.275 35.321,34.100 36.621,34.153 36.667 C 34.457 36.928,34.680 37.554,34.524 37.709 C 34.409 37.825,34.507 38.072,34.832 38.481 C 35.094 38.812,35.924 40.058,36.677 41.250 C 39.114 45.109,40.668 47.542,42.000 49.583 C 42.718 50.683,43.875 52.483,44.573 53.583 C 46.504 56.631,49.218 60.848,50.739 63.167 C 51.490 64.313,53.338 67.184,54.844 69.547 C 56.351 71.911,57.771 74.136,58.000 74.492 C 58.229 74.849,58.816 75.765,59.303 76.528 C 59.790 77.292,60.894 79.004,61.755 80.333 C 63.600 83.181,63.487 82.736,62.653 83.845 C 61.936 84.799,61.264 85.986,61.377 86.100 C 61.414 86.136,61.659 85.756,61.922 85.255 C 63.413 82.403,66.841 80.500,70.484 80.500 C 80.954 80.500,84.254 94.261,74.917 98.981 C 73.828 99.531,73.752 99.656,74.762 99.234 C 78.660 97.605,81.165 92.978,80.483 88.667 C 80.088 86.168,79.553 86.734,86.333 82.474 C 88.029 81.409,89.942 80.198,90.583 79.783 C 91.225 79.369,92.275 78.693,92.917 78.281 C 100.253 73.578,100.407 73.468,100.927 72.581 C 101.534 71.545,101.641 68.333,101.068 68.333 C 101.013 68.333,99.803 69.200,99.250 69.636 C 99.158 69.708,98.971 69.821,98.833 69.886 C 98.696 69.952,97.908 70.451,97.083 70.996 C 96.258 71.541,94.533 72.643,93.250 73.445 C 91.967 74.247,90.879 74.944,90.833 74.993 C 90.680 75.159,90.087 75.509,89.792 75.608 C 89.631 75.661,89.500 75.763,89.500 75.833 C 89.500 75.904,89.369 76.005,89.208 76.059 C 88.925 76.154,88.335 76.498,88.167 76.667 C 88.027 76.806,86.495 77.833,86.426 77.833 C 86.391 77.833,85.749 78.246,85.000 78.750 C 84.251 79.254,83.570 79.667,83.486 79.667 C 83.402 79.667,83.333 79.742,83.333 79.833 C 83.333 79.925,83.263 80.000,83.177 80.000 C 83.090 80.000,82.417 80.413,81.681 80.917 C 80.945 81.421,80.275 81.833,80.192 81.833 C 80.109 81.833,79.953 81.939,79.845 82.069 C 79.738 82.199,79.313 82.463,78.901 82.657 L 78.152 83.008 77.451 82.498 C 74.694 80.494,73.335 80.000,70.573 80.000 C 69.457 80.000,68.302 80.099,67.752 80.242 C 66.533 80.560,66.503 80.542,65.383 78.859 C 64.138 76.989,64.026 76.806,63.900 76.458 C 63.842 76.298,63.728 76.167,63.647 76.167 C 63.566 76.167,63.500 76.096,63.500 76.010 C 63.500 75.924,63.087 75.251,62.583 74.515 C 62.079 73.778,61.667 73.132,61.667 73.077 C 61.667 73.022,61.489 72.739,61.271 72.447 C 60.790 71.803,60.033 70.525,59.895 70.125 C 59.840 69.965,59.745 69.833,59.685 69.833 C 59.625 69.833,59.428 69.552,59.247 69.208 C 59.066 68.865,58.824 68.484,58.709 68.363 C 58.594 68.242,58.500 68.070,58.500 67.981 C 58.500 67.892,58.313 67.617,58.083 67.369 C 57.854 67.122,57.667 66.865,57.667 66.798 C 57.667 66.674,56.665 65.151,56.483 65.000 C 56.428 64.954,56.353 64.842,56.317 64.750 C 56.238 64.554,54.840 62.388,54.148 61.389 C 53.883 61.008,53.667 60.660,53.667 60.617 C 53.667 60.573,53.367 60.089,53.000 59.540 C 52.005 58.049,52.000 58.059,54.542 56.482 C 55.756 55.728,57.612 54.542,58.667 53.847 C 59.721 53.152,60.696 52.525,60.833 52.454 C 60.971 52.382,61.871 51.806,62.833 51.173 C 63.796 50.539,65.333 49.553,66.250 48.981 C 67.958 47.914,70.039 46.577,72.833 44.750 C 73.704 44.181,75.180 43.218,76.113 42.611 C 78.003 41.381,78.145 41.243,77.655 41.115 C 77.448 41.061,77.278 41.118,77.223 41.260 C 77.174 41.388,76.860 41.660,76.525 41.863 C 76.190 42.066,75.879 42.274,75.833 42.325 C 75.684 42.489,75.091 42.841,74.792 42.941 C 74.631 42.995,74.500 43.096,74.500 43.167 C 74.500 43.237,74.369 43.339,74.208 43.394 C 74.048 43.450,72.889 44.152,71.634 44.956 C 70.378 45.759,68.466 46.975,67.384 47.656 C 66.302 48.338,65.379 48.941,65.333 48.995 C 65.287 49.050,64.837 49.352,64.333 49.667 C 63.829 49.981,63.379 50.279,63.333 50.328 C 63.288 50.377,63.100 50.508,62.917 50.619 C 62.384 50.943,56.576 54.590,54.750 55.747 C 53.833 56.327,52.993 56.884,52.882 56.985 C 52.478 57.350,52.081 57.163,51.591 56.375 C 51.319 55.939,51.054 55.546,51.001 55.500 C 50.948 55.454,50.537 54.817,50.087 54.083 C 49.638 53.350,49.222 52.712,49.163 52.667 C 49.104 52.621,48.508 51.683,47.838 50.583 C 47.169 49.483,45.975 47.617,45.185 46.435 C 43.694 44.204,43.333 43.645,41.940 41.417 C 41.482 40.683,40.671 39.395,40.138 38.553 C 39.066 36.861,39.058 36.716,40.003 36.185 C 40.362 35.983,40.712 35.727,40.780 35.617 C 40.848 35.507,40.688 35.558,40.425 35.730 C 39.341 36.439,38.904 36.646,38.730 36.535 C 38.497 36.385,37.000 34.051,37.000 33.837 C 37.000 33.749,36.895 33.718,36.766 33.767 C 36.531 33.857,35.833 33.377,35.833 33.126 C 35.833 32.959,34.505 30.830,34.213 30.530 C 34.096 30.409,34.000 30.202,34.000 30.071 C 34.000 29.940,33.933 29.833,33.851 29.833 C 33.770 29.833,33.656 29.646,33.598 29.417 C 33.541 29.188,33.420 29.000,33.330 29.000 C 33.240 29.000,33.167 28.887,33.167 28.750 C 33.167 28.613,33.097 28.500,33.011 28.500 C 32.926 28.500,32.806 28.344,32.746 28.153 C 32.605 27.709,30.527 25.500,30.250 25.500 C 30.135 25.500,29.955 25.397,29.851 25.271 C 29.374 24.697,26.290 24.247,24.667 24.515 M55.228 26.240 C 53.543 27.353,53.556 27.328,54.148 28.198 C 55.194 29.737,57.586 33.446,57.889 34.000 C 58.065 34.321,58.256 34.621,58.314 34.667 C 58.610 34.900,59.347 36.223,59.280 36.399 C 59.196 36.618,55.459 39.000,55.200 39.000 C 55.115 39.000,54.655 38.381,54.179 37.625 C 53.188 36.051,51.269 33.181,51.009 32.882 C 50.912 32.771,50.833 32.647,50.833 32.605 C 50.833 32.563,50.568 32.129,50.245 31.640 C 49.921 31.150,49.613 30.583,49.561 30.379 C 49.470 30.025,49.445 30.020,48.969 30.266 C 48.272 30.627,44.333 33.185,44.333 33.277 C 44.333 33.319,44.427 33.296,44.542 33.227 C 45.240 32.804,47.656 31.253,48.035 30.986 C 48.762 30.472,49.075 30.577,49.685 31.542 C 49.990 32.023,50.279 32.454,50.328 32.500 C 50.451 32.616,50.813 33.200,50.947 33.500 C 51.009 33.637,51.107 33.787,51.165 33.833 C 51.223 33.879,51.543 34.371,51.877 34.926 C 52.211 35.480,52.715 36.225,52.997 36.580 C 53.280 36.935,53.662 37.568,53.847 37.986 C 54.620 39.733,54.999 39.815,56.877 38.643 C 60.152 36.599,60.151 36.603,58.750 34.591 C 58.246 33.867,57.833 33.220,57.833 33.154 C 57.833 33.088,57.402 32.347,56.875 31.507 C 56.348 30.667,55.839 29.853,55.745 29.698 C 55.650 29.543,55.294 28.989,54.953 28.466 C 54.127 27.200,54.148 27.113,55.500 26.239 C 56.142 25.823,56.667 25.450,56.667 25.409 C 56.667 25.291,56.661 25.294,55.228 26.240 M20.188 28.667 C 21.488 30.575,21.492 30.556,19.542 31.832 C 17.481 33.181,15.656 34.360,15.240 34.613 C 15.062 34.721,14.182 35.271,13.284 35.836 C 11.335 37.063,11.478 37.098,10.123 35.061 C 8.834 33.123,8.797 33.310,10.707 32.167 C 11.550 31.662,13.173 30.631,14.314 29.875 C 15.456 29.119,16.452 28.500,16.528 28.500 C 16.604 28.500,16.667 28.438,16.667 28.363 C 16.667 28.287,17.002 28.058,17.413 27.853 C 17.823 27.648,18.205 27.406,18.262 27.314 C 18.574 26.810,19.243 27.280,20.188 28.667 M69.188 28.375 C 69.297 28.581,70.060 29.800,70.883 31.083 C 71.706 32.367,72.875 34.191,73.481 35.137 C 74.674 36.998,75.545 38.165,74.624 36.667 C 71.877 32.200,68.410 26.912,69.188 28.375 M131.167 33.931 C 127.721 34.842,127.500 35.699,127.501 48.118 C 127.503 62.617,127.485 62.583,135.250 62.583 L 139.417 62.583 140.322 62.117 C 142.670 60.906,142.739 60.661,142.801 53.334 C 142.864 45.879,143.287 46.667,139.226 46.667 C 135.330 46.667,135.500 46.548,135.500 49.263 C 135.500 51.626,135.525 51.667,136.971 51.667 C 137.571 51.667,137.825 51.739,137.899 51.930 C 138.114 52.491,138.005 56.499,137.759 57.089 L 137.517 57.667 135.333 57.667 L 133.150 57.667 132.904 57.078 C 132.696 56.580,132.665 55.172,132.704 47.929 C 132.759 37.667,132.484 38.667,135.257 38.667 C 137.853 38.667,137.885 38.697,137.998 41.164 C 138.105 43.508,138.097 43.500,140.411 43.500 C 142.982 43.500,142.885 43.646,142.800 39.936 C 142.705 35.771,142.038 34.650,139.215 33.915 C 137.914 33.576,132.468 33.587,131.167 33.931 M147.331 34.003 C 146.876 34.457,146.879 62.216,147.333 62.504 C 147.480 62.596,150.384 62.663,154.366 62.664 L 161.148 62.667 161.407 62.296 C 161.716 61.855,161.772 59.185,161.490 58.375 C 161.248 57.682,161.174 57.672,156.288 57.669 L 151.993 57.667 152.038 54.208 L 152.083 50.750 155.491 50.705 C 159.746 50.648,159.500 50.798,159.500 48.261 C 159.500 45.501,159.756 45.667,155.487 45.667 L 151.993 45.667 152.038 42.208 L 152.083 38.750 156.662 38.667 L 161.240 38.583 161.459 38.167 C 161.757 37.598,161.676 34.328,161.355 33.942 C 160.963 33.471,147.805 33.528,147.331 34.003 M168.952 34.061 C 167.609 34.519,166.840 35.199,166.202 36.497 L 165.750 37.417 165.750 42.787 C 165.750 49.224,165.354 48.456,169.333 49.751 C 170.938 50.273,172.496 50.805,172.797 50.933 C 173.098 51.062,173.433 51.167,173.542 51.167 C 173.650 51.167,174.060 51.289,174.453 51.439 L 175.167 51.712 175.167 54.319 C 175.167 57.737,175.212 57.667,173.010 57.667 C 170.914 57.667,170.814 57.555,170.706 55.090 C 170.613 52.973,170.644 53.000,168.255 53.000 C 165.510 53.000,165.602 52.883,165.715 56.232 C 165.825 59.498,166.193 60.661,167.407 61.587 C 168.635 62.524,169.367 62.667,172.945 62.667 C 179.746 62.667,180.414 61.783,180.305 52.944 L 180.250 48.471 179.825 48.106 C 179.592 47.905,178.279 47.379,176.909 46.938 C 175.538 46.496,174.154 46.038,173.833 45.919 C 173.512 45.800,172.800 45.567,172.250 45.400 C 170.585 44.896,170.624 44.978,170.691 42.056 C 170.767 38.772,170.839 38.667,172.998 38.667 C 175.047 38.667,175.167 38.798,175.167 41.053 C 175.167 43.513,175.153 43.500,177.734 43.500 C 180.410 43.500,180.333 43.579,180.333 40.809 C 180.333 34.886,179.044 33.661,172.823 33.671 C 170.404 33.675,169.951 33.720,168.952 34.061 M184.095 33.929 C 183.756 34.268,183.712 37.941,184.042 38.382 C 184.213 38.611,184.616 38.668,186.333 38.705 L 188.417 38.750 188.500 50.548 C 188.572 60.792,188.616 62.366,188.833 62.504 C 189.327 62.815,193.279 62.705,193.441 62.375 C 193.519 62.215,193.621 56.833,193.667 50.417 L 193.750 38.750 195.833 38.705 C 197.551 38.668,197.953 38.611,198.125 38.382 C 198.455 37.941,198.410 34.268,198.071 33.929 C 197.675 33.532,184.492 33.532,184.095 33.929 M201.997 34.003 C 201.543 34.457,201.546 62.214,202.000 62.506 C 202.137 62.595,203.225 62.648,204.417 62.625 L 206.583 62.583 206.626 48.333 C 206.667 35.084,206.650 34.069,206.386 33.875 C 205.868 33.494,202.405 33.595,201.997 34.003 M214.417 33.971 C 213.098 34.330,211.712 35.654,211.333 36.917 C 210.906 38.340,210.966 58.217,211.401 59.576 C 212.192 62.044,213.588 62.667,218.333 62.667 C 223.481 62.667,224.834 61.917,225.487 58.700 C 225.729 57.509,225.732 39.098,225.491 37.739 C 225.097 35.522,224.134 34.478,221.989 33.941 C 220.484 33.564,215.845 33.582,214.417 33.971 M229.997 34.003 C 229.543 34.457,229.546 62.214,230.000 62.506 C 230.137 62.595,231.225 62.648,232.417 62.625 L 234.583 62.583 234.667 54.972 C 234.746 47.767,234.819 46.464,235.080 47.653 C 235.142 47.933,235.262 48.206,235.346 48.258 C 235.431 48.310,235.500 48.496,235.500 48.671 C 235.500 48.846,235.623 49.272,235.773 49.619 C 236.166 50.528,236.267 50.792,236.679 52.000 C 236.882 52.596,237.145 53.346,237.263 53.667 C 237.616 54.626,238.853 58.052,239.008 58.500 C 239.640 60.327,240.137 61.661,240.343 62.083 L 240.587 62.583 242.650 62.630 C 245.687 62.700,245.333 64.600,245.333 48.224 C 245.333 31.752,245.684 33.633,242.625 33.703 C 239.927 33.765,240.172 32.974,240.169 41.639 C 240.166 49.828,240.179 49.776,239.015 46.333 C 238.814 45.737,238.578 45.120,238.491 44.961 C 238.404 44.801,238.333 44.588,238.333 44.486 C 238.333 44.384,238.228 44.064,238.100 43.775 C 237.972 43.486,237.826 43.100,237.778 42.917 C 237.729 42.733,237.576 42.283,237.439 41.917 C 237.074 40.944,235.826 37.486,235.663 37.000 C 235.095 35.295,234.612 34.207,234.313 33.958 C 233.761 33.498,230.468 33.532,229.997 34.003 M263.417 33.735 C 263.325 33.767,262.912 33.892,262.500 34.013 C 259.610 34.860,259.167 36.064,259.167 43.069 C 259.167 49.166,258.683 48.399,263.527 49.984 C 265.575 50.655,267.400 51.265,267.583 51.341 C 267.767 51.417,268.085 51.526,268.292 51.584 C 268.777 51.720,268.875 56.280,268.412 57.175 L 268.158 57.667 266.500 57.667 C 264.372 57.667,264.275 57.559,264.197 55.091 C 264.129 52.964,264.171 52.998,261.676 53.005 C 259.040 53.013,259.165 52.867,259.174 55.935 C 259.191 61.676,260.404 62.737,266.833 62.637 C 270.992 62.572,271.619 62.366,272.852 60.667 C 273.645 59.574,273.716 59.063,273.791 53.942 C 273.872 48.337,273.654 47.500,272.111 47.500 C 271.964 47.500,271.598 47.396,271.297 47.270 C 270.996 47.143,270.337 46.912,269.833 46.756 C 269.329 46.599,268.767 46.410,268.583 46.335 C 268.400 46.260,267.462 45.955,266.500 45.657 C 264.052 44.898,264.167 45.062,264.167 42.332 C 264.167 38.866,264.296 38.667,266.547 38.667 C 268.461 38.667,268.555 38.777,268.666 41.159 C 268.779 43.562,268.710 43.500,271.261 43.500 C 273.890 43.500,273.833 43.561,273.833 40.721 C 273.833 36.712,272.986 34.918,270.689 34.064 C 269.982 33.802,264.006 33.531,263.417 33.735 M281.514 33.924 C 279.935 34.361,278.990 35.143,278.405 36.495 C 278.098 37.206,278.083 37.736,278.083 48.328 L 278.083 59.417 278.456 60.114 C 279.579 62.215,280.487 62.569,284.917 62.636 C 289.164 62.700,289.769 62.564,291.083 61.250 C 292.552 59.782,292.500 60.258,292.500 48.216 C 292.500 35.181,292.523 35.282,289.335 34.018 C 288.440 33.663,282.703 33.594,281.514 33.924 M296.276 33.971 C 296.053 34.218,296.000 34.644,296.000 36.196 C 296.000 38.702,295.935 38.641,298.674 38.703 L 300.750 38.750 300.833 50.667 L 300.917 62.583 303.144 62.630 C 304.643 62.661,305.446 62.614,305.602 62.485 C 305.795 62.324,305.833 60.355,305.833 50.480 L 305.833 38.667 307.991 38.667 C 310.705 38.667,310.667 38.703,310.667 36.161 C 310.667 33.432,311.362 33.667,303.269 33.667 C 296.973 33.667,296.534 33.686,296.276 33.971 M317.541 33.924 C 316.056 34.324,315.193 34.989,314.525 36.250 L 314.083 37.083 314.083 48.250 L 314.083 59.417 314.448 60.083 C 315.119 61.309,315.726 61.817,317.229 62.411 C 318.221 62.804,324.214 62.777,325.394 62.375 C 327.724 61.581,328.500 60.004,328.500 56.066 C 328.500 52.667,328.624 52.833,326.097 52.833 C 323.703 52.833,323.731 52.806,323.630 55.207 C 323.529 57.615,323.481 57.667,321.333 57.667 C 318.939 57.667,319.167 58.668,319.167 48.138 C 319.167 37.646,318.930 38.667,321.362 38.667 C 323.479 38.667,323.512 38.703,323.624 41.202 C 323.734 43.619,323.602 43.500,326.169 43.500 C 328.724 43.500,328.500 43.809,328.500 40.284 C 328.500 36.050,327.704 34.650,324.882 33.915 C 323.610 33.583,318.783 33.590,317.541 33.924 M333.095 33.929 C 332.750 34.274,332.690 62.123,333.033 62.467 C 333.167 62.600,333.909 62.667,335.274 62.667 C 338.020 62.667,337.833 63.012,337.833 57.934 L 337.833 53.943 338.348 52.887 C 338.913 51.726,339.052 51.706,339.490 52.727 C 339.653 53.106,339.951 53.792,340.152 54.250 C 340.354 54.708,340.589 55.252,340.676 55.458 C 340.762 55.665,340.904 56.002,340.991 56.208 C 341.457 57.318,341.872 58.297,342.032 58.667 C 342.132 58.896,342.309 59.308,342.427 59.583 C 343.832 62.879,343.579 62.687,346.440 62.630 L 348.750 62.583 348.801 62.145 C 348.829 61.904,348.614 61.191,348.324 60.561 C 348.034 59.932,347.663 59.117,347.500 58.750 C 347.337 58.383,347.017 57.671,346.788 57.167 C 346.559 56.663,346.203 55.875,345.998 55.417 C 345.792 54.958,345.371 54.034,345.062 53.363 C 344.753 52.692,344.500 52.115,344.500 52.081 C 344.500 52.047,344.200 51.373,343.833 50.583 C 343.467 49.793,343.167 49.114,343.167 49.073 C 343.167 49.032,342.982 48.615,342.756 48.146 L 342.344 47.294 342.922 46.061 C 343.711 44.375,347.045 37.542,347.847 35.967 C 348.936 33.827,348.798 33.667,345.870 33.667 C 344.217 33.667,343.828 33.716,343.550 33.958 C 343.263 34.208,341.342 37.996,338.777 43.368 C 338.395 44.167,338.027 44.823,337.958 44.827 C 337.890 44.830,337.833 42.485,337.833 39.615 C 337.833 33.186,338.042 33.667,335.255 33.667 C 333.752 33.667,333.303 33.721,333.095 33.929 M138.917 34.222 C 140.516 34.544,141.831 35.517,142.096 36.574 C 142.155 36.810,142.270 37.044,142.352 37.095 C 142.433 37.145,142.500 38.494,142.500 40.093 L 142.500 43.000 140.417 43.000 L 138.333 43.000 138.327 41.208 C 138.322 39.559,138.289 39.377,137.913 38.917 L 137.504 38.417 135.320 38.417 L 133.135 38.417 132.735 38.917 L 132.335 39.417 132.340 48.250 C 132.345 58.103,132.275 57.525,133.512 57.958 C 134.878 58.436,137.422 58.132,138.036 57.417 C 138.396 56.998,138.480 51.880,138.133 51.533 C 138.023 51.423,137.500 51.333,136.970 51.333 C 135.804 51.333,135.798 51.320,135.868 48.917 L 135.917 47.250 139.208 47.205 L 142.500 47.160 142.500 53.153 C 142.500 56.969,142.439 59.184,142.333 59.250 C 142.242 59.307,142.167 59.487,142.167 59.651 C 142.167 60.614,140.808 61.706,139.000 62.197 C 136.261 62.941,129.500 62.299,129.500 61.295 C 129.500 61.225,129.387 61.167,129.250 61.167 C 129.112 61.167,129.000 61.054,129.000 60.917 C 129.000 60.779,128.939 60.667,128.865 60.667 C 128.138 60.667,128.083 59.786,128.083 48.083 L 128.083 36.917 128.622 36.069 C 128.921 35.599,129.422 35.082,129.747 34.907 C 130.070 34.733,130.333 34.533,130.333 34.462 C 130.333 34.391,130.615 34.326,130.958 34.317 C 131.302 34.308,131.771 34.240,132.000 34.167 C 132.654 33.957,137.807 33.998,138.917 34.222 M161.130 36.154 C 161.165 37.698,161.123 38.258,160.964 38.359 C 160.846 38.434,158.742 38.496,156.288 38.497 L 151.827 38.500 151.872 42.208 L 151.917 45.917 155.417 46.000 L 158.917 46.083 158.917 48.250 L 158.917 50.417 155.375 50.462 L 151.833 50.507 151.833 54.137 C 151.833 56.738,151.890 57.823,152.033 57.967 C 152.179 58.112,153.449 58.167,156.705 58.167 L 161.177 58.167 161.130 60.292 L 161.083 62.417 154.436 62.460 C 148.255 62.501,147.774 62.483,147.567 62.210 C 147.255 61.799,147.224 34.509,147.535 34.198 C 147.688 34.045,149.359 34.007,154.410 34.040 L 161.083 34.083 161.130 36.154 M176.362 34.222 C 179.096 34.703,179.833 35.950,179.833 40.099 L 179.833 43.000 177.750 43.000 L 175.667 43.000 175.667 41.422 C 175.667 38.731,175.372 38.424,172.797 38.429 C 170.523 38.433,170.499 38.472,170.503 42.071 C 170.505 45.356,170.448 45.195,171.750 45.571 C 172.300 45.731,172.996 45.967,173.297 46.097 C 173.598 46.227,174.030 46.333,174.256 46.333 C 174.482 46.333,174.667 46.407,174.667 46.498 C 174.667 46.589,174.968 46.711,175.337 46.770 C 175.706 46.829,176.048 46.942,176.097 47.022 C 176.146 47.102,176.388 47.169,176.635 47.172 C 176.882 47.175,177.229 47.287,177.407 47.422 C 177.585 47.557,177.885 47.666,178.074 47.666 C 178.262 47.666,178.735 47.835,179.125 48.041 L 179.833 48.416 179.833 53.866 L 179.833 59.316 179.408 60.116 C 178.985 60.912,178.260 61.649,177.889 61.661 C 177.782 61.664,177.669 61.723,177.639 61.792 C 177.479 62.151,175.147 62.503,172.931 62.501 C 169.293 62.499,167.714 61.913,166.637 60.166 C 166.264 59.561,166.147 58.719,166.057 55.981 L 165.977 53.545 166.363 53.441 C 166.859 53.309,169.633 53.306,170.125 53.438 C 170.484 53.534,170.500 53.616,170.506 55.311 C 170.513 57.685,170.948 58.167,173.088 58.167 C 175.265 58.167,175.667 57.530,175.667 54.079 L 175.667 51.668 174.958 51.362 C 173.806 50.863,173.117 50.630,172.542 50.544 C 172.244 50.500,172.000 50.403,172.000 50.328 C 172.000 50.254,171.756 50.145,171.458 50.087 C 171.160 50.028,170.767 49.921,170.583 49.849 C 169.706 49.501,169.040 49.288,168.583 49.208 C 168.308 49.160,167.935 49.019,167.755 48.894 C 167.574 48.769,167.282 48.667,167.107 48.667 C 166.932 48.667,166.609 48.460,166.390 48.208 L 165.992 47.750 166.061 42.833 C 166.130 37.991,166.234 36.500,166.506 36.500 C 166.582 36.500,166.697 36.334,166.761 36.131 C 166.893 35.716,167.719 34.833,167.975 34.833 C 168.067 34.833,168.242 34.735,168.363 34.615 C 168.911 34.073,174.072 33.819,176.362 34.222 M197.736 34.101 C 197.956 34.186,198.000 34.530,198.000 36.181 C 198.000 38.506,198.246 38.300,195.388 38.371 C 194.365 38.396,193.465 38.479,193.388 38.555 C 193.312 38.632,193.213 44.032,193.167 50.555 L 193.083 62.417 191.083 62.417 L 189.083 62.417 189.000 50.555 C 188.954 44.032,188.854 38.632,188.778 38.555 C 188.702 38.479,187.802 38.396,186.778 38.371 C 183.920 38.300,184.167 38.507,184.167 36.177 C 184.167 34.747,184.225 34.171,184.375 34.110 C 184.675 33.989,197.422 33.980,197.736 34.101 M206.300 34.200 C 206.590 34.490,206.590 62.010,206.300 62.300 C 205.953 62.647,202.506 62.569,202.232 62.208 C 201.923 61.801,201.892 34.508,202.200 34.200 C 202.332 34.068,203.033 34.000,204.250 34.000 C 205.467 34.000,206.168 34.068,206.300 34.200 M221.695 34.222 C 223.146 34.477,224.099 35.139,224.710 36.317 L 225.167 37.197 225.167 48.257 L 225.167 59.316 224.741 60.116 C 224.319 60.912,223.594 61.649,223.222 61.661 C 223.115 61.664,223.003 61.723,222.972 61.792 C 222.812 62.151,220.480 62.503,218.265 62.501 C 213.738 62.499,212.041 61.513,211.519 58.583 C 211.051 55.958,211.409 36.755,211.934 36.319 C 212.062 36.213,212.167 36.054,212.167 35.967 C 212.167 35.755,213.095 34.833,213.309 34.833 C 213.401 34.833,213.575 34.735,213.696 34.615 C 214.244 34.073,219.405 33.819,221.695 34.222 M234.208 34.232 C 234.369 34.354,234.500 34.600,234.500 34.778 C 234.500 34.957,234.610 35.249,234.745 35.426 C 234.879 35.604,234.992 35.879,234.995 36.036 C 235.000 36.297,235.319 37.146,235.687 37.873 C 235.767 38.032,235.833 38.299,235.833 38.466 C 235.833 38.633,235.943 38.915,236.078 39.093 C 236.213 39.271,236.325 39.577,236.328 39.773 C 236.331 39.968,236.445 40.343,236.582 40.606 C 236.719 40.869,236.832 41.210,236.832 41.365 C 236.833 41.520,236.908 41.693,237.000 41.750 C 237.092 41.807,237.169 42.017,237.172 42.218 C 237.175 42.419,237.287 42.729,237.422 42.907 C 237.557 43.085,237.667 43.357,237.667 43.513 C 237.667 43.668,237.779 44.010,237.916 44.273 C 238.053 44.535,238.165 44.877,238.166 45.032 C 238.166 45.187,238.242 45.360,238.333 45.417 C 238.425 45.473,238.500 45.672,238.500 45.859 C 238.500 46.046,238.603 46.398,238.729 46.641 C 238.855 46.884,239.092 47.496,239.255 48.000 C 239.593 49.044,240.119 49.883,240.346 49.742 C 240.437 49.686,240.500 46.505,240.500 42.023 C 240.500 36.316,240.550 34.350,240.700 34.200 C 241.116 33.784,244.645 33.936,244.751 34.375 C 244.801 34.581,244.821 40.975,244.796 48.583 L 244.750 62.417 242.936 62.464 C 241.009 62.515,240.500 62.345,240.500 61.651 C 240.500 61.487,240.425 61.307,240.333 61.250 C 240.242 61.193,240.167 60.978,240.167 60.772 C 240.167 60.566,240.057 60.251,239.922 60.074 C 239.787 59.896,239.675 59.627,239.672 59.477 C 239.669 59.327,239.555 58.990,239.418 58.727 C 239.281 58.465,239.168 58.123,239.168 57.968 C 239.167 57.813,239.092 57.640,239.000 57.583 C 238.908 57.527,238.833 57.328,238.833 57.141 C 238.833 56.954,238.730 56.602,238.604 56.359 C 238.478 56.116,238.242 55.504,238.080 55.000 C 237.917 54.496,237.730 54.008,237.664 53.917 C 237.599 53.825,237.505 53.563,237.456 53.333 C 237.358 52.875,237.067 52.037,236.723 51.225 C 236.600 50.936,236.500 50.580,236.500 50.433 C 236.500 50.287,236.425 50.167,236.333 50.167 C 236.242 50.167,236.167 49.956,236.167 49.699 C 236.167 49.441,236.057 49.085,235.922 48.907 C 235.787 48.729,235.675 48.419,235.672 48.218 C 235.669 48.017,235.597 47.810,235.513 47.758 C 235.428 47.706,235.310 47.439,235.250 47.165 C 235.132 46.631,234.767 46.498,234.601 46.930 C 234.546 47.075,234.500 50.548,234.500 54.647 C 234.500 60.222,234.450 62.150,234.300 62.300 C 233.953 62.647,230.506 62.569,230.232 62.208 C 229.916 61.792,229.893 34.608,230.208 34.249 C 230.494 33.925,233.785 33.911,234.208 34.232 M269.705 34.204 C 270.372 34.316,271.016 34.504,271.137 34.621 C 271.258 34.738,271.433 34.833,271.525 34.833 C 271.767 34.833,272.531 35.670,272.902 36.340 C 273.173 36.831,273.232 37.369,273.297 39.958 L 273.374 43.000 271.187 43.000 L 269.000 43.000 269.000 41.189 C 269.000 38.543,268.438 38.098,265.516 38.428 C 263.971 38.603,263.833 38.909,263.833 42.156 C 263.833 44.976,263.916 45.271,264.754 45.428 C 265.075 45.489,265.378 45.604,265.428 45.686 C 265.479 45.767,265.721 45.836,265.968 45.839 C 266.215 45.842,266.562 45.954,266.740 46.089 C 266.918 46.223,267.259 46.333,267.499 46.333 C 267.738 46.333,268.005 46.399,268.092 46.479 C 268.179 46.558,268.700 46.752,269.250 46.909 C 269.800 47.066,270.496 47.300,270.797 47.430 C 271.098 47.560,271.488 47.667,271.662 47.667 C 271.837 47.667,272.023 47.736,272.075 47.821 C 272.128 47.905,272.392 48.023,272.663 48.083 C 273.058 48.169,273.177 48.302,273.261 48.750 C 273.447 49.741,273.270 59.666,273.064 59.798 C 272.962 59.863,272.826 60.085,272.761 60.292 C 272.697 60.498,272.574 60.667,272.489 60.667 C 272.403 60.667,272.333 60.765,272.333 60.886 C 272.333 62.065,266.099 62.994,263.167 62.251 C 261.632 61.863,260.167 60.920,260.167 60.322 C 260.167 60.230,260.055 59.985,259.919 59.776 C 259.581 59.261,259.358 54.244,259.648 53.702 C 259.833 53.357,259.958 53.333,261.631 53.336 C 263.898 53.339,263.790 53.242,263.859 55.338 C 263.935 57.634,264.413 58.167,266.400 58.167 C 268.744 58.167,268.987 57.806,268.994 54.324 L 269.000 51.564 268.375 51.312 C 267.294 50.876,266.597 50.636,266.167 50.551 C 265.938 50.506,265.514 50.364,265.225 50.235 C 264.936 50.106,264.584 50.000,264.443 50.000 C 264.302 50.000,264.140 49.925,264.083 49.833 C 264.027 49.742,263.816 49.666,263.615 49.666 C 263.414 49.665,263.035 49.553,262.773 49.416 C 262.510 49.279,262.162 49.167,262.000 49.167 C 261.838 49.167,261.490 49.055,261.227 48.918 C 260.965 48.781,260.637 48.666,260.500 48.662 C 259.591 48.639,259.583 48.588,259.583 42.701 C 259.583 36.246,259.723 35.705,261.667 34.647 C 262.750 34.057,267.332 33.804,269.705 34.204 M288.500 34.226 C 290.712 34.634,291.422 35.339,292.065 37.761 C 292.481 39.329,292.448 57.237,292.026 58.855 C 291.301 61.631,289.698 62.491,285.250 62.491 C 281.168 62.491,279.603 61.828,278.662 59.700 C 278.220 58.701,278.152 37.504,278.589 36.926 C 278.723 36.749,278.833 36.503,278.833 36.380 C 278.833 36.069,279.816 35.021,280.417 34.692 C 281.574 34.056,286.150 33.793,288.500 34.226 M310.087 34.375 C 310.138 34.581,310.159 35.537,310.132 36.500 L 310.083 38.250 308.250 38.291 C 307.242 38.314,306.248 38.371,306.042 38.419 L 305.667 38.506 305.667 50.198 C 305.667 63.947,305.936 62.500,303.380 62.500 C 300.692 62.500,301.000 64.073,301.000 50.345 C 301.000 39.730,300.973 38.525,300.736 38.434 C 300.591 38.379,299.631 38.333,298.603 38.333 C 296.269 38.333,296.333 38.395,296.333 36.167 C 296.333 33.780,295.621 34.000,303.363 34.000 L 309.994 34.000 310.087 34.375 M324.500 34.222 C 327.350 34.738,328.171 36.077,328.285 40.392 C 328.365 43.423,328.440 43.320,326.137 43.328 C 324.040 43.335,324.003 43.299,323.992 41.280 C 323.978 38.607,323.248 38.047,320.293 38.444 C 318.605 38.670,318.684 38.199,318.675 48.105 C 318.665 58.378,318.611 58.171,321.312 58.164 C 323.511 58.158,323.859 57.769,323.993 55.167 L 324.083 53.417 326.167 53.417 L 328.250 53.417 328.296 55.815 C 328.398 61.081,326.892 62.506,321.239 62.496 C 317.131 62.488,315.630 61.833,314.625 59.609 C 314.216 58.704,314.182 37.464,314.589 36.926 C 314.723 36.749,314.833 36.503,314.833 36.380 C 314.833 36.068,315.818 35.020,316.417 34.694 C 317.575 34.065,322.153 33.798,324.500 34.222 M337.241 34.370 C 337.462 34.687,337.500 35.512,337.500 40.027 C 337.500 43.022,337.566 45.354,337.652 45.407 C 337.868 45.541,338.333 45.334,338.333 45.104 C 338.333 44.998,338.633 44.313,339.000 43.583 C 339.367 42.853,339.667 42.167,339.667 42.059 C 339.667 41.950,339.728 41.836,339.803 41.806 C 339.916 41.759,340.682 40.255,341.062 39.333 C 341.118 39.196,341.235 38.971,341.321 38.833 C 341.407 38.696,341.939 37.626,342.504 36.456 C 343.712 33.953,343.646 34.000,345.917 34.000 C 348.585 34.000,348.529 33.849,347.004 36.954 C 344.173 42.720,343.833 43.433,343.833 43.616 C 343.833 43.720,343.777 43.831,343.708 43.861 C 343.596 43.911,343.190 44.683,342.934 45.333 C 342.880 45.471,342.767 45.696,342.683 45.833 C 342.109 46.772,341.922 48.000,342.353 48.000 C 342.434 48.000,342.500 48.120,342.500 48.266 C 342.500 48.412,342.613 48.750,342.750 49.016 C 342.887 49.282,343.113 49.718,343.250 49.984 C 343.387 50.250,343.500 50.588,343.500 50.734 C 343.500 50.880,343.575 51.000,343.667 51.000 C 343.758 51.000,343.833 51.120,343.833 51.266 C 343.833 51.412,343.937 51.731,344.064 51.974 C 344.277 52.384,344.895 53.733,345.411 54.917 C 345.531 55.192,345.819 55.829,346.051 56.333 C 346.827 58.016,347.617 59.800,347.898 60.500 C 347.953 60.637,348.062 60.862,348.140 61.000 C 348.928 62.389,348.795 62.501,346.367 62.494 C 344.392 62.489,343.667 62.270,343.667 61.679 C 343.667 61.578,343.595 61.365,343.508 61.206 C 343.283 60.796,342.879 59.817,342.752 59.375 C 342.693 59.169,342.574 59.000,342.489 59.000 C 342.403 59.000,342.333 58.849,342.333 58.664 C 342.333 58.480,342.263 58.199,342.177 58.039 C 341.827 57.390,341.500 56.603,341.500 56.411 C 341.500 56.299,341.387 56.114,341.250 56.000 C 341.112 55.886,341.000 55.672,341.000 55.524 C 341.000 55.284,340.600 54.344,339.902 52.945 C 339.773 52.685,339.667 52.381,339.667 52.268 C 339.667 51.978,339.010 51.307,338.833 51.417 C 338.752 51.467,338.513 51.862,338.302 52.295 C 338.090 52.729,337.842 53.137,337.750 53.202 C 337.650 53.273,337.550 55.045,337.500 57.635 C 337.436 60.950,337.364 62.014,337.188 62.225 C 336.854 62.626,333.749 62.626,333.305 62.224 C 332.841 61.805,332.829 34.584,333.292 34.232 C 333.843 33.814,336.926 33.922,337.241 34.370 M42.125 34.596 C 41.781 34.821,41.500 35.039,41.500 35.080 C 41.500 35.190,42.651 34.493,42.760 34.317 C 42.890 34.107,42.833 34.132,42.125 34.596 M75.605 38.375 C 76.254 39.457,77.185 40.833,77.268 40.833 C 77.372 40.833,77.275 40.672,76.198 39.042 C 75.698 38.286,75.248 37.780,75.605 38.375 M216.583 38.460 C 216.308 38.602,216.028 38.800,215.961 38.901 C 215.894 39.001,215.837 43.222,215.836 48.280 L 215.833 57.477 216.375 57.864 C 216.845 58.199,217.115 58.250,218.417 58.250 C 219.718 58.250,219.988 58.199,220.458 57.864 L 221.000 57.477 221.000 48.264 C 221.000 38.154,221.077 38.952,220.044 38.375 C 219.516 38.080,217.210 38.136,216.583 38.460 M283.570 38.392 C 282.521 38.977,282.588 38.357,282.532 47.988 C 282.471 58.627,282.355 58.143,285.000 58.297 C 288.213 58.484,288.167 58.632,288.167 48.149 C 288.167 38.929,288.168 38.941,287.124 38.420 C 286.516 38.117,284.098 38.098,283.570 38.392 M220.564 39.077 C 220.803 39.443,220.833 40.469,220.833 48.302 C 220.833 58.776,221.096 57.750,218.417 57.750 C 215.737 57.750,216.000 58.782,216.000 48.261 C 216.000 37.633,215.741 38.667,218.407 38.667 C 220.230 38.667,220.304 38.681,220.564 39.077 M287.454 39.167 C 287.764 39.775,287.683 57.217,287.368 57.533 C 287.121 57.779,284.813 57.929,283.900 57.758 C 282.835 57.558,282.833 57.547,282.833 48.280 C 282.833 40.112,282.891 39.145,283.402 38.791 C 283.920 38.432,287.236 38.740,287.454 39.167 M126.850 79.230 C 126.718 79.389,126.673 80.469,126.705 82.771 L 126.750 86.083 128.873 86.130 C 131.131 86.180,131.521 86.078,132.205 85.261 C 132.684 84.687,132.590 83.614,132.000 82.943 C 131.567 82.449,131.534 82.346,131.750 82.167 C 132.665 81.407,132.322 79.872,131.114 79.324 C 130.231 78.923,127.161 78.855,126.850 79.230 M135.074 79.213 C 135.029 79.330,135.013 80.924,135.038 82.755 L 135.083 86.083 137.583 86.083 L 140.083 86.083 140.083 85.583 L 140.083 85.083 138.339 85.035 C 136.464 84.984,136.338 84.924,136.338 84.083 C 136.338 83.262,136.481 83.184,138.089 83.132 C 139.577 83.084,139.584 83.081,139.636 82.631 C 139.698 82.089,139.497 82.021,137.667 81.959 L 136.417 81.917 136.417 81.167 L 136.417 80.417 138.122 80.369 C 139.976 80.318,140.280 80.155,139.986 79.375 C 139.815 78.924,135.243 78.773,135.074 79.213 M143.586 79.381 C 141.930 80.319,142.237 82.253,144.150 82.929 C 145.983 83.577,146.167 83.690,146.167 84.182 C 146.167 84.985,144.743 85.167,143.507 84.523 C 142.774 84.141,142.401 84.190,142.243 84.690 C 141.891 85.797,145.317 86.722,146.631 85.875 C 148.482 84.682,147.999 82.951,145.567 82.054 C 144.114 81.518,143.662 80.999,144.257 80.551 C 144.642 80.260,146.090 80.345,146.642 80.690 C 146.946 80.880,147.025 80.865,147.241 80.579 C 148.158 79.365,145.281 78.422,143.586 79.381 M149.398 79.238 C 149.119 79.964,149.382 80.247,150.417 80.333 L 151.417 80.417 151.500 83.250 L 151.583 86.083 152.250 86.083 L 152.917 86.083 152.962 83.208 L 153.008 80.333 154.001 80.333 C 155.039 80.333,155.390 79.989,155.107 79.250 C 154.967 78.888,149.537 78.876,149.398 79.238 M161.925 79.280 C 159.942 80.353,160.445 82.287,162.931 83.151 C 164.310 83.631,164.676 84.028,164.261 84.596 C 163.955 85.014,162.500 84.965,161.728 84.509 C 160.987 84.072,160.899 84.078,160.563 84.590 C 159.720 85.877,163.594 86.787,165.142 85.666 C 166.356 84.786,166.145 83.177,164.711 82.375 C 164.506 82.260,164.257 82.167,164.158 82.167 C 162.876 82.167,161.689 80.668,162.758 80.400 C 163.280 80.269,164.398 80.435,164.851 80.711 C 165.259 80.960,165.857 80.377,165.723 79.863 C 165.534 79.141,162.922 78.740,161.925 79.280 M170.245 79.301 C 168.871 79.879,168.079 80.824,167.911 82.089 C 167.316 86.579,173.985 87.903,175.253 83.546 C 176.069 80.744,173.000 78.143,170.245 79.301 M177.836 79.329 C 177.724 79.537,177.676 80.845,177.705 82.871 L 177.750 86.083 179.878 86.130 C 181.738 86.171,182.020 86.142,182.113 85.899 C 182.337 85.316,181.943 85.087,180.566 85.000 L 179.250 84.917 179.167 82.167 C 179.121 80.654,179.023 79.323,178.948 79.208 C 178.738 78.884,178.033 78.960,177.836 79.329 M184.357 79.149 C 183.948 79.408,184.154 84.346,184.599 84.946 C 185.935 86.750,189.168 86.614,190.084 84.716 C 190.557 83.737,190.370 79.100,189.856 79.028 C 189.179 78.932,189.088 79.222,189.000 81.754 C 188.906 84.467,188.781 84.755,187.618 84.943 C 185.971 85.211,185.500 84.455,185.500 81.542 C 185.500 79.093,185.255 78.580,184.357 79.149 M192.417 79.333 C 192.179 80.082,192.450 80.333,193.493 80.333 C 194.711 80.333,194.667 80.212,194.667 83.524 L 194.667 86.187 195.292 86.135 L 195.917 86.083 196.000 83.250 L 196.083 80.417 196.912 80.364 C 198.054 80.292,198.737 79.421,197.903 79.101 C 197.125 78.803,192.523 78.997,192.417 79.333 M200.350 79.230 C 200.218 79.389,200.173 80.469,200.205 82.771 L 200.250 86.083 200.833 86.083 L 201.417 86.083 201.462 82.771 C 201.509 79.351,201.450 79.000,200.833 79.000 C 200.672 79.000,200.455 79.103,200.350 79.230 M206.333 79.279 C 204.768 79.954,204.000 81.071,204.000 82.672 C 204.000 86.620,209.716 87.621,211.234 83.938 C 212.413 81.078,209.214 78.036,206.333 79.279 M213.836 79.329 C 213.724 79.537,213.676 80.845,213.705 82.871 L 213.750 86.083 214.417 86.083 L 215.083 86.083 215.130 83.958 C 215.156 82.790,215.231 81.838,215.297 81.843 C 215.419 81.853,216.003 82.588,217.712 84.885 C 218.645 86.140,218.702 86.184,219.298 86.135 L 219.917 86.083 219.962 82.629 L 220.007 79.175 219.587 79.069 C 218.719 78.851,218.667 78.977,218.667 81.300 C 218.667 83.972,218.670 83.970,217.387 82.228 C 216.804 81.438,216.160 80.585,215.956 80.333 C 215.751 80.081,215.442 79.678,215.268 79.438 C 214.879 78.897,214.099 78.838,213.836 79.329 M226.850 79.230 C 226.718 79.389,226.673 80.469,226.705 82.771 L 226.750 86.083 227.375 86.135 L 228.000 86.187 228.003 84.968 C 228.006 83.359,228.008 83.357,229.672 83.299 L 231.083 83.250 231.135 82.715 L 231.187 82.179 229.635 82.131 L 228.083 82.083 228.083 81.250 L 228.083 80.417 229.706 80.369 C 231.488 80.317,231.899 80.079,231.500 79.333 C 231.272 78.907,227.193 78.816,226.850 79.230 M235.578 79.301 C 234.204 79.879,233.412 80.824,233.245 82.089 C 232.649 86.579,239.319 87.903,240.587 83.546 C 241.402 80.744,238.333 78.143,235.578 79.301 M243.169 79.329 C 243.058 79.537,243.009 80.845,243.038 82.871 L 243.083 86.083 243.750 86.083 L 244.417 86.083 244.500 85.083 L 244.583 84.083 245.200 84.032 C 245.804 83.982,246.667 84.369,246.667 84.689 C 246.667 85.287,247.573 86.167,248.189 86.167 C 248.543 86.167,248.833 86.090,248.833 85.996 C 248.833 85.794,247.971 84.441,247.792 84.361 C 247.538 84.248,247.678 83.751,248.057 83.422 C 249.420 82.240,249.015 79.950,247.329 79.304 C 246.183 78.865,243.408 78.882,243.169 79.329 M254.708 79.137 C 254.515 79.260,255.125 80.704,255.879 81.910 C 256.789 83.366,256.882 83.614,256.981 84.824 L 257.083 86.083 257.667 86.083 L 258.250 86.083 258.299 84.950 C 258.334 84.149,258.462 83.612,258.735 83.117 C 258.947 82.732,259.370 81.967,259.675 81.417 C 260.920 79.171,260.947 79.009,260.067 79.003 C 259.641 78.999,259.334 79.339,258.828 80.375 C 258.615 80.810,258.241 81.406,257.996 81.699 L 257.552 82.231 257.068 81.411 C 256.801 80.959,256.493 80.439,256.382 80.253 C 256.271 80.068,256.125 79.804,256.059 79.667 C 255.786 79.104,255.152 78.855,254.708 79.137 M264.363 79.441 C 260.805 81.162,262.026 86.167,266.003 86.167 C 267.315 86.167,268.115 85.855,268.856 85.057 C 271.616 82.082,268.068 77.649,264.363 79.441 M272.208 79.107 C 271.834 79.264,271.927 83.635,272.324 84.562 C 273.220 86.653,276.867 86.803,277.949 84.793 C 278.589 83.605,278.461 78.998,277.788 79.003 C 276.977 79.008,276.920 79.171,276.870 81.619 C 276.812 84.466,276.559 85.000,275.267 85.000 C 273.724 85.000,273.436 84.479,273.333 81.500 L 273.250 79.083 272.833 79.051 C 272.604 79.034,272.323 79.059,272.208 79.107 M281.169 79.329 C 281.058 79.537,281.009 80.845,281.038 82.871 L 281.083 86.083 281.667 86.083 C 282.249 86.083,282.250 86.082,282.299 85.250 C 282.407 83.412,283.872 83.475,285.037 85.368 C 285.466 86.065,285.599 86.167,286.088 86.167 C 286.900 86.167,286.936 85.923,286.265 84.949 C 285.583 83.960,285.541 83.746,285.978 83.512 C 286.846 83.047,287.086 80.975,286.381 80.029 C 285.650 79.048,281.610 78.505,281.169 79.329 M293.444 79.111 C 293.383 79.172,293.333 80.785,293.333 82.694 L 293.333 86.167 295.458 86.166 C 298.811 86.165,300.180 84.789,298.586 83.024 C 298.012 82.389,298.008 82.377,298.332 82.084 C 299.152 81.343,298.865 80.014,297.750 79.383 C 297.086 79.007,293.759 78.797,293.444 79.111 M301.690 79.149 C 301.281 79.408,301.487 84.346,301.932 84.946 C 303.268 86.750,306.501 86.614,307.417 84.716 C 307.890 83.737,307.704 79.100,307.189 79.028 C 306.512 78.932,306.421 79.222,306.333 81.754 C 306.239 84.467,306.115 84.755,304.951 84.943 C 303.304 85.211,302.833 84.455,302.833 81.542 C 302.833 79.093,302.588 78.580,301.690 79.149 M311.417 79.379 C 309.536 80.433,310.353 83.167,312.549 83.167 C 312.990 83.167,313.816 83.683,313.925 84.026 C 314.206 84.912,312.526 85.189,311.168 84.481 C 310.212 83.983,309.515 84.690,310.292 85.371 C 312.594 87.389,316.936 85.371,315.157 83.109 C 314.820 82.681,314.581 82.548,312.917 81.866 C 311.947 81.468,311.665 81.135,311.939 80.708 C 312.169 80.349,313.592 80.314,314.225 80.654 C 314.827 80.975,315.167 80.783,315.167 80.121 C 315.167 79.093,312.772 78.619,311.417 79.379 M318.205 79.140 C 318.042 79.243,318.003 80.066,318.038 82.679 L 318.083 86.083 318.667 86.083 L 319.250 86.083 319.295 82.979 C 319.350 79.236,319.152 78.539,318.205 79.140 M322.241 79.213 C 322.196 79.330,322.180 80.924,322.205 82.755 L 322.250 86.083 322.875 86.135 L 323.500 86.187 323.503 84.135 C 323.506 81.535,323.585 81.410,324.452 82.626 C 325.159 83.616,325.291 83.790,326.427 85.227 C 327.036 85.998,327.169 86.083,327.760 86.083 L 328.417 86.083 328.462 82.771 C 328.510 79.246,328.462 79.000,327.725 79.000 C 327.144 79.000,327.001 79.551,326.995 81.803 C 326.990 83.575,326.967 83.720,326.738 83.417 C 326.600 83.233,326.358 82.933,326.202 82.750 C 326.045 82.566,325.510 81.854,325.012 81.166 C 323.492 79.067,322.552 78.404,322.241 79.213 M331.538 79.140 C 331.376 79.243,331.337 80.066,331.371 82.679 L 331.417 86.083 333.969 86.129 L 336.522 86.175 336.469 85.629 L 336.417 85.083 334.917 85.042 C 332.653 84.979,332.639 84.973,332.699 84.036 L 332.750 83.250 334.385 83.202 L 336.020 83.154 335.968 82.619 L 335.917 82.083 334.283 82.036 L 332.649 81.988 332.699 81.202 L 332.750 80.417 334.540 80.369 C 336.436 80.319,336.774 80.120,336.440 79.250 C 336.333 78.973,331.957 78.874,331.538 79.140 M339.952 79.348 C 338.104 80.323,338.646 82.431,340.916 83.090 C 342.551 83.566,343.098 84.426,342.007 84.806 C 341.457 84.998,340.142 84.785,339.621 84.420 C 339.102 84.057,338.848 84.105,338.659 84.604 C 338.208 85.788,341.562 86.779,342.964 85.875 C 344.791 84.698,344.337 82.967,341.969 82.081 C 340.412 81.498,340.066 81.124,340.595 80.595 C 340.935 80.255,341.814 80.262,342.687 80.611 C 343.348 80.875,343.392 80.874,343.607 80.579 C 344.473 79.395,341.660 78.447,339.952 79.348 M347.417 79.379 C 345.536 80.433,346.353 83.167,348.549 83.167 C 348.990 83.167,349.816 83.683,349.925 84.026 C 350.206 84.912,348.526 85.189,347.168 84.481 C 346.212 83.983,345.515 84.690,346.292 85.371 C 348.594 87.389,352.936 85.371,351.157 83.109 C 350.820 82.681,350.581 82.548,348.917 81.866 C 347.947 81.468,347.665 81.135,347.939 80.708 C 348.169 80.349,349.592 80.314,350.225 80.654 C 350.827 80.975,351.167 80.783,351.167 80.121 C 351.167 79.093,348.772 78.619,347.417 79.379 M130.525 79.521 C 131.914 79.819,132.446 81.257,131.417 81.932 C 130.863 82.295,130.885 82.397,131.667 83.103 C 132.616 83.961,132.409 85.346,131.294 85.592 C 131.043 85.647,130.794 85.762,130.742 85.846 C 130.690 85.931,129.864 86.000,128.907 86.000 L 127.167 86.000 127.167 82.778 C 127.167 81.006,127.217 79.506,127.278 79.444 C 127.456 79.266,129.571 79.316,130.525 79.521 M139.833 79.583 C 139.833 79.789,139.537 79.833,138.167 79.833 C 136.199 79.833,135.833 80.041,135.833 81.155 C 135.833 82.171,136.111 82.333,137.845 82.333 C 139.222 82.333,139.333 82.358,139.333 82.667 C 139.333 82.978,139.222 83.000,137.674 83.000 L 136.015 83.000 135.903 83.595 C 135.842 83.922,135.860 84.429,135.944 84.720 L 136.095 85.250 137.964 85.297 C 139.696 85.341,139.833 85.368,139.833 85.672 C 139.833 85.982,139.710 86.000,137.583 86.000 L 135.333 86.000 135.333 82.667 L 135.333 79.333 137.583 79.333 C 139.472 79.333,139.833 79.373,139.833 79.583 M146.154 79.529 C 146.860 79.692,147.000 79.786,147.000 80.096 C 147.000 80.462,146.038 80.352,145.313 79.904 C 145.007 79.715,143.871 80.339,143.795 80.738 C 143.661 81.440,144.554 82.333,145.390 82.333 C 145.682 82.333,146.667 82.811,147.042 83.134 C 147.722 83.720,147.120 85.667,146.258 85.667 C 146.116 85.667,146.000 85.742,146.000 85.833 C 146.000 86.046,144.424 86.052,144.039 85.841 C 143.880 85.754,143.469 85.558,143.125 85.406 C 142.472 85.116,142.422 85.047,142.634 84.715 C 142.729 84.564,142.972 84.615,143.589 84.918 C 144.679 85.452,145.488 85.454,146.059 84.925 C 146.945 84.104,146.416 83.299,144.639 82.766 C 141.345 81.777,142.763 78.746,146.154 79.529 M154.667 79.583 C 154.847 79.800,154.755 79.833,153.970 79.833 C 152.660 79.833,152.667 79.816,152.667 83.117 L 152.667 86.000 152.250 86.000 L 151.833 86.000 151.833 83.239 C 151.833 79.900,151.808 79.833,150.557 79.833 C 149.748 79.833,149.653 79.800,149.833 79.583 C 149.999 79.384,150.490 79.333,152.250 79.333 C 154.010 79.333,154.501 79.384,154.667 79.583 M164.456 79.535 C 165.438 79.784,165.384 79.743,165.258 80.141 C 165.153 80.473,165.151 80.473,164.160 80.138 C 162.719 79.652,161.757 80.226,162.067 81.388 C 162.159 81.734,163.108 82.333,163.565 82.333 C 164.460 82.333,165.668 83.383,165.661 84.154 C 165.649 85.457,163.457 86.527,162.206 85.841 C 162.047 85.754,161.635 85.558,161.292 85.406 C 160.607 85.102,160.543 84.977,160.912 84.671 C 161.108 84.508,161.211 84.520,161.424 84.733 C 161.571 84.880,161.831 85.000,162.002 85.000 C 162.173 85.000,162.360 85.075,162.417 85.167 C 162.587 85.443,163.884 85.352,164.268 85.038 C 165.255 84.228,164.758 83.302,163.123 82.908 C 162.870 82.846,162.622 82.730,162.572 82.648 C 162.522 82.567,162.338 82.500,162.164 82.500 C 161.697 82.500,161.000 81.668,161.000 81.111 C 161.000 79.792,162.597 79.063,164.456 79.535 M172.468 79.526 C 173.303 79.731,174.491 80.460,174.496 80.771 C 174.498 80.875,174.612 81.053,174.750 81.167 C 175.766 82.010,174.556 85.229,173.084 85.598 C 172.853 85.656,172.622 85.770,172.572 85.852 C 172.241 86.387,169.729 85.682,169.000 84.849 C 167.378 82.997,168.201 80.236,170.577 79.558 C 171.470 79.303,171.557 79.302,172.468 79.526 M178.667 82.104 C 178.667 85.384,178.640 85.333,180.339 85.333 C 181.556 85.333,181.667 85.361,181.667 85.667 C 181.667 85.980,181.556 86.000,179.833 86.000 L 178.000 86.000 178.000 82.764 C 178.000 79.589,178.067 79.181,178.542 79.449 C 178.610 79.488,178.667 80.683,178.667 82.104 M185.168 81.625 C 185.169 84.615,185.559 85.317,187.224 85.328 C 188.973 85.340,189.500 84.437,189.500 81.433 C 189.500 79.690,189.542 79.333,189.747 79.333 C 190.267 79.333,190.316 83.568,189.806 84.517 C 188.783 86.424,185.647 86.451,184.750 84.559 C 184.271 83.551,184.420 79.333,184.934 79.333 C 185.122 79.333,185.167 79.778,185.168 81.625 M197.625 79.625 C 197.674 79.770,197.475 79.833,196.968 79.833 C 195.550 79.833,195.500 79.946,195.500 83.176 C 195.500 85.889,195.487 86.000,195.167 86.000 C 194.846 86.000,194.833 85.889,194.833 83.117 C 194.833 79.822,194.838 79.833,193.550 79.833 C 192.869 79.833,192.667 79.775,192.667 79.579 C 192.667 79.239,197.512 79.284,197.625 79.625 M201.167 82.667 C 201.167 85.889,201.156 86.000,200.833 86.000 C 200.498 86.000,200.295 80.396,200.601 79.597 C 201.006 78.541,201.167 79.411,201.167 82.667 M208.687 79.536 C 212.412 80.396,211.592 86.000,207.741 86.000 C 206.472 86.000,204.500 84.643,204.500 83.771 C 204.500 83.633,204.425 83.473,204.333 83.417 C 204.242 83.360,204.167 83.023,204.167 82.667 C 204.167 82.311,204.242 81.973,204.333 81.917 C 204.425 81.860,204.500 81.664,204.500 81.480 C 204.500 80.936,205.836 79.752,206.679 79.550 C 207.692 79.308,207.696 79.308,208.687 79.536 M215.271 79.971 C 215.428 80.212,215.678 80.538,215.826 80.697 C 215.974 80.856,216.580 81.663,217.172 82.490 C 218.692 84.611,218.812 84.562,218.870 81.792 C 218.914 79.710,218.936 79.583,219.250 79.583 C 219.570 79.583,219.585 79.710,219.629 82.792 C 219.673 85.915,219.665 86.000,219.337 86.000 C 219.011 86.000,218.333 85.464,218.333 85.207 C 218.333 85.137,218.146 84.878,217.917 84.631 C 217.688 84.383,217.500 84.103,217.500 84.007 C 217.500 83.912,217.431 83.833,217.347 83.833 C 217.263 83.833,217.023 83.552,216.814 83.208 C 216.605 82.865,216.389 82.546,216.333 82.500 C 216.278 82.454,216.027 82.143,215.776 81.809 C 214.886 80.622,214.667 80.993,214.667 83.686 C 214.667 85.889,214.651 86.000,214.333 86.000 C 213.921 86.000,213.799 79.596,214.208 79.458 C 214.580 79.333,214.978 79.525,215.271 79.971 M231.070 79.434 C 231.712 79.681,231.215 79.833,229.770 79.833 C 227.898 79.833,227.795 79.911,227.866 81.278 L 227.917 82.250 229.415 82.333 C 230.670 82.403,230.922 82.464,230.969 82.708 C 231.018 82.969,230.863 83.000,229.530 83.000 C 227.786 83.000,227.833 82.950,227.833 84.764 C 227.833 85.889,227.803 86.000,227.500 86.000 C 227.163 86.000,226.952 79.770,227.278 79.444 C 227.417 79.306,230.711 79.297,231.070 79.434 M237.801 79.526 C 238.636 79.731,239.824 80.460,239.830 80.771 C 239.832 80.875,239.946 81.053,240.083 81.167 C 241.099 82.010,239.889 85.229,238.418 85.598 C 238.186 85.656,237.956 85.770,237.905 85.852 C 237.575 86.387,235.062 85.682,234.333 84.849 C 232.711 82.997,233.534 80.236,235.910 79.558 C 236.803 79.303,236.891 79.302,237.801 79.526 M246.570 79.512 C 248.110 79.783,248.396 80.097,248.407 81.529 C 248.416 82.654,248.394 82.722,247.875 83.155 C 247.340 83.602,247.165 84.210,247.510 84.423 C 247.608 84.483,247.757 84.694,247.842 84.891 C 247.927 85.089,248.119 85.419,248.269 85.625 C 248.532 85.988,248.526 86.000,248.104 86.000 C 247.838 86.000,247.667 85.908,247.667 85.764 C 247.667 85.634,247.603 85.503,247.525 85.472 C 247.447 85.442,247.197 85.079,246.970 84.667 L 246.557 83.917 245.491 83.866 C 244.214 83.805,244.000 83.996,244.000 85.199 C 244.000 85.889,243.954 86.000,243.667 86.000 C 243.254 86.000,243.133 79.609,243.542 79.444 C 243.915 79.293,245.533 79.329,246.570 79.512 M260.256 79.511 C 260.317 79.608,260.265 79.814,260.141 79.969 C 259.877 80.299,259.686 80.634,258.960 82.040 C 258.664 82.614,258.346 83.136,258.254 83.201 C 258.162 83.266,258.059 83.922,258.026 84.660 C 257.942 86.502,257.333 86.732,257.333 84.922 C 257.333 84.129,257.239 83.677,256.977 83.213 C 256.629 82.596,256.385 82.158,255.572 80.682 C 255.165 79.945,255.059 79.498,255.292 79.503 C 255.494 79.507,255.765 79.731,255.894 80.000 C 255.959 80.137,256.104 80.402,256.215 80.587 C 256.326 80.772,256.634 81.297,256.899 81.753 C 257.165 82.210,257.404 82.610,257.430 82.642 C 257.529 82.762,258.207 82.182,258.406 81.806 C 259.620 79.517,259.982 79.067,260.256 79.511 M266.968 79.523 C 268.947 80.003,270.082 82.018,269.331 83.717 C 267.745 87.302,262.750 86.435,262.750 82.574 L 262.750 81.206 263.500 80.465 C 264.026 79.944,264.474 79.671,265.000 79.548 C 266.028 79.309,266.081 79.308,266.968 79.523 M273.167 81.889 L 273.167 84.242 273.780 84.787 C 275.659 86.459,277.333 84.985,277.333 81.660 C 277.333 79.724,277.406 79.333,277.768 79.333 C 278.051 79.333,278.114 83.910,277.833 84.083 C 277.742 84.140,277.664 84.313,277.661 84.468 C 277.642 85.416,274.494 86.673,274.139 85.875 C 274.108 85.806,273.866 85.638,273.600 85.500 C 272.267 84.811,271.617 78.941,272.929 79.444 C 273.119 79.517,273.167 80.004,273.167 81.889 M284.597 79.515 C 286.552 79.855,287.251 81.738,285.917 83.072 C 285.596 83.393,285.333 83.772,285.333 83.915 C 285.333 84.183,286.154 85.541,286.375 85.639 C 286.624 85.749,286.493 86.000,286.186 86.000 C 285.900 86.000,285.008 85.041,284.994 84.719 C 284.972 84.161,284.332 83.833,283.265 83.833 L 282.167 83.833 282.167 84.917 C 282.167 85.889,282.132 86.000,281.833 86.000 C 281.511 86.000,281.500 85.889,281.500 82.667 L 281.500 79.333 282.528 79.333 C 283.093 79.333,284.024 79.415,284.597 79.515 M297.009 79.518 C 298.489 79.835,299.015 80.977,298.086 81.858 C 297.570 82.347,297.570 82.426,298.076 82.896 C 299.792 84.486,298.398 86.000,295.219 86.000 L 293.500 86.000 293.500 82.764 C 293.500 80.331,293.552 79.507,293.708 79.444 C 294.097 79.287,296.147 79.333,297.009 79.518 M302.501 81.625 C 302.503 84.615,302.892 85.317,304.558 85.328 C 306.306 85.340,306.833 84.437,306.833 81.433 C 306.833 79.690,306.875 79.333,307.080 79.333 C 307.600 79.333,307.649 83.568,307.140 84.517 C 306.116 86.424,302.981 86.451,302.083 84.559 C 301.604 83.551,301.754 79.333,302.268 79.333 C 302.455 79.333,302.500 79.778,302.501 81.625 M314.083 79.556 C 314.618 79.694,314.936 79.872,314.970 80.053 C 315.039 80.410,314.597 80.419,313.600 80.080 C 312.077 79.563,310.608 81.001,311.910 81.733 C 312.089 81.834,312.338 82.010,312.463 82.125 C 312.588 82.240,312.864 82.333,313.076 82.333 C 313.480 82.333,313.973 82.553,314.657 83.038 C 315.133 83.375,315.230 84.810,314.803 85.201 C 313.612 86.294,310.333 86.010,310.333 84.814 C 310.333 84.405,310.461 84.417,311.401 84.917 C 312.827 85.675,314.412 85.240,314.301 84.119 C 314.251 83.618,313.588 83.043,313.025 83.012 C 312.819 83.001,311.941 82.655,311.333 82.345 C 310.687 82.015,310.490 80.481,311.025 79.955 C 311.592 79.399,312.846 79.235,314.083 79.556 M318.962 82.722 C 319.006 85.915,318.998 86.000,318.670 86.000 C 318.328 86.000,318.117 79.772,318.448 79.441 C 318.829 79.060,318.919 79.636,318.962 82.722 M323.680 79.993 C 324.039 80.357,324.333 80.699,324.333 80.755 C 324.333 80.811,324.427 80.955,324.542 81.075 C 324.656 81.195,324.862 81.461,325.000 81.667 C 325.137 81.872,325.328 82.125,325.423 82.229 C 325.518 82.332,325.849 82.773,326.159 83.208 C 327.144 84.590,327.333 84.371,327.333 81.854 C 327.333 79.802,327.505 79.061,327.890 79.446 C 328.185 79.740,328.007 86.000,327.704 86.000 C 327.400 86.000,326.996 85.616,326.681 85.026 C 326.583 84.843,326.381 84.572,326.233 84.424 C 326.085 84.276,325.623 83.689,325.206 83.119 C 324.789 82.549,324.384 82.058,324.307 82.028 C 324.230 81.997,324.167 81.881,324.167 81.769 C 324.167 81.438,323.828 81.199,323.486 81.289 C 323.191 81.366,323.167 81.546,323.167 83.686 L 323.167 86.000 322.750 86.000 L 322.333 86.000 322.333 82.842 C 322.333 80.009,322.363 79.666,322.625 79.513 C 323.017 79.285,322.946 79.252,323.680 79.993 M336.000 79.583 C 336.182 79.803,336.005 79.833,334.552 79.833 C 332.438 79.833,332.297 79.925,332.366 81.255 L 332.417 82.250 334.125 82.297 C 336.859 82.374,336.445 82.943,333.583 83.043 L 332.417 83.083 332.417 84.167 L 332.417 85.250 334.375 85.297 C 336.196 85.341,336.333 85.367,336.333 85.672 C 336.333 85.983,336.210 86.000,334.000 86.000 L 331.667 86.000 331.667 82.778 C 331.667 81.006,331.717 79.506,331.778 79.444 C 332.023 79.199,335.784 79.323,336.000 79.583 M342.667 79.563 C 343.079 79.686,343.409 79.872,343.400 79.977 C 343.391 80.081,343.372 80.237,343.358 80.322 C 343.345 80.408,342.890 80.328,342.347 80.145 L 341.361 79.812 340.681 80.159 C 339.535 80.744,340.282 82.333,341.703 82.333 C 342.152 82.333,343.287 82.987,343.559 83.403 C 343.850 83.848,343.933 84.667,343.686 84.667 C 343.605 84.667,343.501 84.811,343.455 84.987 C 343.268 85.701,341.176 86.281,340.373 85.841 C 340.214 85.754,339.802 85.558,339.458 85.406 C 338.767 85.099,338.574 84.500,339.167 84.500 C 339.350 84.500,339.500 84.565,339.500 84.644 C 339.500 85.204,341.874 85.497,342.458 85.009 C 343.397 84.226,342.800 83.352,340.917 82.754 C 339.743 82.382,339.344 82.031,339.220 81.261 C 338.980 79.787,340.655 78.961,342.667 79.563 M350.083 79.556 C 350.618 79.694,350.936 79.872,350.970 80.053 C 351.039 80.410,350.597 80.419,349.600 80.080 C 348.077 79.563,346.608 81.001,347.910 81.733 C 348.089 81.834,348.338 82.010,348.463 82.125 C 348.588 82.240,348.864 82.333,349.076 82.333 C 349.480 82.333,349.973 82.553,350.657 83.038 C 351.133 83.375,351.230 84.810,350.803 85.201 C 349.612 86.294,346.333 86.010,346.333 84.814 C 346.333 84.405,346.461 84.417,347.401 84.917 C 348.827 85.675,350.412 85.240,350.301 84.119 C 350.251 83.618,349.588 83.043,349.025 83.012 C 348.819 83.001,347.941 82.655,347.333 82.345 C 346.687 82.015,346.490 80.481,347.025 79.955 C 347.592 79.399,348.846 79.235,350.083 79.556 M128.012 80.069 C 127.896 80.208,127.837 80.704,127.866 81.278 L 127.917 82.250 129.094 82.298 C 130.555 82.358,131.167 81.997,131.167 81.075 C 131.167 80.107,128.646 79.304,128.012 80.069 M170.668 80.136 C 168.996 80.944,168.443 82.296,169.171 83.803 C 170.426 86.402,174.333 85.481,174.333 82.586 C 174.333 80.753,172.259 79.367,170.668 80.136 M206.632 80.229 C 203.960 81.538,204.815 85.333,207.781 85.333 C 210.649 85.333,211.379 81.293,208.717 80.152 C 207.778 79.750,207.594 79.757,206.632 80.229 M236.002 80.136 C 234.329 80.944,233.776 82.296,234.504 83.803 C 235.760 86.402,239.667 85.481,239.667 82.586 C 239.667 80.753,237.593 79.367,236.002 80.136 M244.259 80.204 C 243.943 80.655,243.900 82.667,244.200 82.967 C 244.942 83.708,247.437 83.064,247.795 82.039 C 248.336 80.485,245.202 78.858,244.259 80.204 M265.083 80.122 C 263.276 81.037,262.779 82.965,263.999 84.332 C 265.577 86.100,268.188 85.431,268.733 83.119 C 269.185 81.202,266.807 79.249,265.083 80.122 M282.458 80.013 C 282.215 80.155,282.167 80.430,282.167 81.675 L 282.167 83.167 283.561 83.167 C 285.534 83.167,286.561 81.889,285.602 80.626 C 285.130 80.005,283.139 79.617,282.458 80.013 M294.595 80.095 C 294.249 80.441,294.240 81.882,294.582 82.165 C 295.366 82.816,297.818 82.061,297.824 81.167 C 297.832 80.135,295.372 79.319,294.595 80.095 M130.653 80.691 C 131.299 81.383,130.573 82.000,129.112 82.000 C 128.132 82.000,128.000 81.883,128.000 81.014 C 128.000 80.378,128.083 80.333,129.271 80.333 C 130.129 80.333,130.381 80.398,130.653 80.691 M172.725 80.589 C 174.692 81.546,174.200 84.659,172.036 84.950 C 170.705 85.128,169.600 84.424,169.326 83.224 C 168.867 81.212,170.848 79.676,172.725 80.589 M209.206 80.761 C 211.200 82.244,209.724 85.392,207.253 84.928 C 205.127 84.529,204.641 81.569,206.543 80.598 C 207.246 80.239,208.617 80.323,209.206 80.761 M238.058 80.589 C 240.026 81.546,239.534 84.659,237.369 84.950 C 236.038 85.128,234.933 84.424,234.659 83.224 C 234.200 81.212,236.181 79.676,238.058 80.589 M247.000 80.548 C 247.343 80.721,247.426 80.899,247.468 81.551 L 247.519 82.344 246.756 82.681 C 246.276 82.894,245.731 83.000,245.288 82.968 L 244.583 82.917 244.535 81.625 L 244.486 80.333 245.535 80.336 C 246.111 80.337,246.771 80.433,247.000 80.548 M267.785 81.040 C 268.894 82.150,268.504 84.167,267.064 84.769 C 265.439 85.448,263.667 84.341,263.667 82.647 C 263.667 80.581,266.298 79.554,267.785 81.040 M284.880 80.486 C 285.497 80.721,285.758 81.507,285.430 82.142 C 285.052 82.871,283.469 83.263,282.656 82.827 C 282.267 82.619,282.170 80.594,282.542 80.444 C 282.902 80.298,284.460 80.327,284.880 80.486 M296.958 80.438 C 297.558 80.599,297.488 81.562,296.858 81.823 C 295.459 82.403,294.293 81.714,294.733 80.567 C 294.827 80.322,296.222 80.241,296.958 80.438 M128.033 82.976 C 127.882 83.072,127.831 83.440,127.866 84.182 L 127.917 85.250 129.163 85.300 C 131.046 85.375,131.988 84.567,131.218 83.535 C 130.755 82.915,128.698 82.554,128.033 82.976 M294.625 83.002 C 294.328 83.187,294.209 84.481,294.434 85.070 C 294.792 86.001,298.000 85.143,298.000 84.117 C 298.000 83.130,295.664 82.358,294.625 83.002 M130.802 83.506 C 131.663 84.309,130.872 85.000,129.090 85.000 C 128.116 85.000,128.000 84.886,128.000 83.931 C 128.000 83.199,128.057 83.167,129.330 83.167 C 130.214 83.167,130.511 83.235,130.802 83.506 M297.296 83.426 C 298.386 84.189,297.361 85.085,295.533 84.967 L 294.750 84.917 294.700 84.042 L 294.649 83.167 295.788 83.167 C 296.548 83.167,297.049 83.253,297.296 83.426 M69.123 86.405 C 68.242 86.720,67.009 87.805,67.003 88.273 C 67.001 88.377,66.888 88.677,66.751 88.939 C 66.229 89.939,66.524 91.361,67.525 92.676 C 68.178 93.532,70.013 94.324,70.861 94.115 C 71.075 94.062,71.491 93.958,71.785 93.884 C 74.575 93.184,75.378 88.935,73.079 87.040 C 72.047 86.189,70.448 85.932,69.123 86.405 M61.038 86.875 C 60.754 87.660,60.793 87.872,61.094 87.179 C 61.230 86.865,61.319 86.541,61.292 86.459 C 61.265 86.377,61.150 86.564,61.038 86.875 M72.305 87.042 C 75.493 88.969,74.212 93.667,70.500 93.667 C 66.230 93.667,65.590 87.682,69.750 86.654 C 70.476 86.475,71.666 86.655,72.305 87.042 M60.604 88.521 C 60.473 89.175,60.497 91.290,60.642 91.802 C 60.701 92.013,60.750 91.244,60.750 90.093 C 60.750 87.775,60.751 87.786,60.604 88.521 M60.835 92.744 C 60.825 93.604,62.257 96.064,63.475 97.279 C 64.328 98.129,65.833 99.184,65.833 98.932 C 65.833 98.882,65.617 98.730,65.353 98.594 C 63.916 97.850,62.283 95.893,61.385 93.838 C 61.084 93.148,60.836 92.656,60.835 92.744 M66.333 99.250 C 66.563 99.381,66.825 99.488,66.917 99.488 C 67.008 99.488,66.896 99.381,66.667 99.250 C 66.438 99.119,66.175 99.012,66.083 99.012 C 65.992 99.012,66.104 99.119,66.333 99.250 M67.667 99.736 C 67.987 99.867,68.475 99.972,68.750 99.968 C 69.243 99.962,69.242 99.960,68.667 99.823 C 67.296 99.498,67.027 99.475,67.667 99.736 M69.875 100.121 C 70.219 100.157,70.781 100.157,71.125 100.121 C 71.469 100.085,71.188 100.056,70.500 100.056 C 69.813 100.056,69.531 100.085,69.875 100.121 " stroke="none" fill="#7d818d" fill-rule="evenodd"/></g></svg>